<svg xmlns="http://www.w3.org/2000/svg" viewBox="0 0 1042 708.8" xml:space="preserve"><path data-dist-id="d6" class="st0" fill="#f1f5f9" d="M104.9 204.7c-1.9 1.4-4 2.5-6 3.8-2.8-.8-5.7-1.4-8.6-1.9-1 .1-2.1-.2-3 .1-1.6 1.4-3.2 2.8-4.7 4.3-.7 1.8-1.6 3.5-2.1 5.3l1.2 6c-3.2 1.4-6.5 2.7-9.8 3.9-4.7 1.3-9.3 2.8-14 4-2.2-.1-4.5-.3-6.7-.3-2.3.4-4.6 1.2-6.9 1.6-3.7 0-7.3-.1-11-.1l-6-3.4c-1.3.3-.8 1.6-.5 2.5.4 1.2 1.2 3.5.5 4.8 3.8 1.4 2.8 4.9 1.3 7.4 1 2.1-.4 5.5-.4 6.1-1.1.3-1.5 1-1 2 .2 1.2-.9 2.2-.3 3.3.7.9-.8 1.6-.3 2.3 1 .5.5 1.2.2 2 .6 1.7-2.1.9-2 2.4-.5.9-.2 1.9 1 1.8-.1.8 1.2 2.3-.3 2.4-1.5.2-.5 1.5.1 2.1-.7 1.2.7.6 1.3.9-.2 1.1-1.2 2.9 0 3.9-.5 2.4.4 5.4-.5 7.5-.7 1.7.7 3.5.3 4.8 2.2 3.2-2.4 3.4-1.7 6.2-1 1.4-4.4 1.4-4.6 3.6-.6.6-1.7 2.4-1 3.5l-.3 2c1.3.5 3.7 2.3 5.1 2.6 1.5.4 2.1 2.2 3.7 2.4 1.8-.1 2.9 1.5 4.2 2.6-.6 1.6-.8 3.3-.4 5 .6 1.7.4 3.5-.3 5.2-1.6 2.2-1.1 5-.9 7.6-.6 1.6-1.2 3.1-.8 4.8-.3 1.3-1.4 2.3-.4 3.7-.5 1.5-1.2 3.4.3 4.5.7 2.1 1.9 4.2 4 5 1.2.9 2.5 1.1 4 .7 2-.4 4-.6 6-.7 1.1-.7 2.1-2.1 3.6-1.9 1.7.3 2.9-1 4.6-1.3 1.8.4 3.8 1.2 5.8 1.3 1.4.3 2.1-1.6 2.2-2.8-.8-1.7 0-3.4 1.4-4.5 1.1-2.1 3.5-2.6 5.1-4.1 1.5-.8 2.4-2.2 3.2-3.7 1.7-1.1 1.5-3.6.4-5.2-.1-1.1-.3-2.9.5-3.7 1.2-.6 1.9-1.8 3.5-1.6-.1-1.3 1.8-2.7.4-3.6-1.1-.5-2.8-.1-3.2-1.6-.6-1.8-2.9-2.3-4.3-1.3-1.6-.7-.7-2.6-.7-3.9 2.3-2 4.8-3.8 7.7-4.9 1.4-.8 2.7.6 3.8 1.3.8.5 2.6-.2 3.4-.7.4-1.5 2.8-1.4 2.8-3.1-.4-1.5-.4-2.8 1.4-3.2 1.5-1.4 2.3.2 1.5 1.6 1.6.5 1.4 2.5.4 3.5-1.5.2-2.7 1-.4.9.9.3-1 2.3-1.2 3.3.7.7 2.2-.7 2.9 1.1.4 1-1.7 2.1.2 3.3.1 1.2-.3 2.8 1.5 3.1 1.6-.4 2.5 1.2 3.3 2.2 1.4-.8 3.2-.4 1.1.8-1 .6-2.4 2.2-.7 2.9.8 1.4.5 2.6-.5 3.8 1.6.3 3.5.1 4.7 1.2.7 1.4 3.3 1.5 3.6-.1.5-1.3 1.4-2.4 3-2.3 2.5-1.2 5-2.3 7.1-4 1.8-.7 2.9-2.4 3.7-4.1 1-1.1 0-2.7.8-3.8 1-1.2 2.7-2.3 2.3-4.1 1.8-.8 3.9-.1 5.5-1.2.2-.2.3-.4.3-.7-.4-.8-.5-1.5 0-2.2-.1-1.1-.8-.2-1.2-.1-.5-.9-.1-2-.8-2.8-.4-1 .1-2.2-.5-3.2-.5-.8-.7-1.8-.5-2.8-2.1-.7-2.2-3-2-4.9-1.6.1-3-1-3.8-2.8-.7-2.7-1.3-5.9-.9-8.7 2.3-2.9-2.6-3.3-1.4-6.3-1.3-1-1.4-3.1-3-3.7-3.4-.6-4.5-4.6-1.2-6.3 1.3-2.8-3-6.5-.4-8.8 3-1.7-2.9-2.1-1.4-3.7 1.6-2.1-1.9-4.7-2.4-7.2-1.9-2.9-.6-5.6 1.2-7.9.8-3.1-2.5-6.1 0-8.6-.4-2.8-1.2-5.9-.3-8.6 1.2-3-.7-5.7-.8-8.5"/><text data-dist-id="d6" transform="translate(36.92 275.202)" class="st2">
                            Kokrajhar
                        </text><path data-dist-id="d13" class="st0" fill="#f1f5f9" d="M85.9 293.9c-.3 0-.6.2-1 .5-1.8.4-1.8 1.7-1.4 3.2 0 1.6-2.4 1.6-2.8 3.1-.8.5-2.6 1.1-3.4.7-1.1-.7-2.4-2.1-3.8-1.3-2.9 1.1-5.4 2.9-7.7 4.9 0 1.3-.9 3.2.7 3.9 1.5-1.1 3.7-.5 4.3 1.3.4 1.5 2.1 1.2 3.2 1.6 1.4.9-.5 2.3-.4 3.6-1.6-.2-2.3 1.1-3.5 1.6-.8.8-.6 2.6-.5 3.7 1 1.5 1.3 4-.4 5.2-.7 1.5-1.7 2.9-3.2 3.7-1.6 1.6-4.1 2-5.1 4.1-1.3 1.1-2.1 2.8-1.4 4.5-.1 1.2-.8 3.1-2.2 2.8-2-.1-3.9-.9-5.8-1.3-1.6.2-2.9 1.6-4.6 1.3-1.6-.2-2.5 1.2-3.6 1.9-2 .2-4 .3-6 .7-1.4.4-2.8.2-4-.7-2.1-.8-3.4-2.9-4-5-1.5-1.1-.8-3-.3-4.5-.9-1.4.1-2.4.4-3.7-.3-1.7.3-3.2.8-4.8-.1-2.6-.7-5.3.9-7.6.8-1.6.9-3.5.3-5.2-.4-1.7-.2-3.4.4-5-1.3-1.1-2.3-2.7-4.2-2.6-1.6-.2-2.2-1.9-3.7-2.4-1.4-.3-3.8-2.1-5.1-2.6-.7 1-.7 4.2-2.2 4-.8.3-2.3-1-2.5-.1 0 1.4-1.8 1.2-2.4 2.2-.6 1.4-1.5.1-2.4-.1-.5 1.2-.2 3.2.7 4.5 1.5 1.5-.8 2.4-1.7 1.1-.3-.9-1-.4-1.7-.4-1 .3-3.1-.2-2.3-1.6.7-.8-.2-1.5-.5-.4-.6 1 .2 2.6 1.2 3.3 1.1.6 1.6 1.8 2.2 2.8-.5.6-.2 2.2-1.4 2.3-1.1.4-3.2-.2-2.8-1.7-.6-1-1.5.2-1.5 1-.8 2 2 .2 2.4 1.6-.8 1.5.7 1.7 1.6 2.5 1 1.6-2.3 1.4-2.5 2.7.3 1.4-1.1 1.9-2.1 1.4-.4 1.4 1.9.8 2.7.6.8-.6 3.3-.5 2.5.9-.6 1.4-2.3.2-3 1.2.6.2 1.2.9.8 1.8-.3 1.2-2 1.6-2.8.7-1.5-.2.2 1.1.5 1.5-.6 1.6 1.6 2.1 2.4.8.7-.2 3-.3 2.5.8-1.3-.7-1.1 1-2.2 1.2v.2c.1 1.4.2 2 1.8 1.3 1.8-.5 3.6 0 3.9 2.2-.5 1.7 1.6 1.2 1.8 2.4 1.4 1.8-3.3 3.8-.6 4.8 1.4-.5 1.5.9 3 .6.9-.9 1.3.5.5.9 1.2.2-.1 1 0 2-.7 1.5.6.5.9 1.3.9-1.2 1.7-.8.6.4-.8 1.4 1.2-.3.5 1.3.9.7-.2 1.3.5 1.5.6 1.6-2.2.6-2.3 2 1.6 1.3-1.3 1.3-1.7 2.5.1 1.5 1.6.8 2.3 0-.7 1.3 2.1 1.3 1.6-.1.7-.2.6.3.4.9.2-.6.7-.9.8-1.6 1.7-.2.9 2.6 2.3 3.3-1.2 1.1.1 1.9.5 3-.9.5.5 2.8-.9 2.4-.4.4 1.1 2.9 2.4 2.9 1.9.9 1.2-.9.8-1.9-.4-.9-.4-3.4.9-3.1 1.2 1.5.9 4.2 3.4 4.4.6 1.2 1.3 0 1.5 1.3-.7 1.2-3 1.8-4.5.9-2.5.6 1.3 2 .1 3.3 1.5 1.3-.6.5-1.4 0-1.9-1.2-2.4 1.8-.7 2.3 1.4-1 2 1.5 3 .6 1.4-.9 3.2-.3 4.6-1 1.6-.4.9.4.5 1.4-.4 2.1-1.7 4-3.4 5.2.8.8 1.7 1.5 2.5 2.3 1.2-.8 2.6-1.2 3.6-2.2.9-.7 1.4-1.8 2.4-2.3 1.1-.4 1.9-1.2 2.9-2 1.5-1.3 3.5-2 4.9-3.4 2.1-1.7 3.8-3.9 5.5-6 1.4-1.3 3-2.2 4.7-3.2 1-.3 1.1-1.5 1.5-2.3.8-.1 1.5-.5 2.1-1 .2-1 .9-1.7 1.5-2.5 1.2-1.2 2.2-2.6 3.9-3.2.5-.7.7-1.6 1.1-2.4.7-.8 1.7-1.4 2.5-2.1 1.5-.4 3.2-.3 4.8-.9 1.3-.5 2.6-.4 4-.4-.2-.4-.1-1 .5-1 2.1-1.5 3.7-3.7 4.5-6.1.2-3 3.2.1 3.7-2.3 1.5-.2 1.9-2.2 3.7-1.7 2.8.2 2.9-4.4 2.5-6.3 1.1-2.2 4.5-2.4 6.9-2.3 1.8 1.5 4.6.3 6 1.6 1.6 1.5 4.3-.5 6.3-.1 2.8.2 1.8-3.4 2-5.1-.8-2.1.6-5.3 2.9-2.8 2.4-.2 3.5-4 5.8-4.3 2.4.6.7-1.4 0-2.2.7-2.9 1.8 1.8 3.2 1.3.4-1.3-2.6-2.8-.3-4.1 1.1.5 3.4 2.5 4.1 0-1.5-.4-3.7.3-2.7-2.1-.5 1 2.6 1.6 1.9.5-1.8-1.4.2-1.9 1.4-1.5 1.2-1.4.2-4-.9-5.5-1.6-1 .7-1.9-.1-2.6-1.4.8-1.8-.3-2.7-1.1-1.6 1.1-3.8.4-5.5 1.2.4 1.9-1.3 2.9-2.3 4.1-.8 1.1.2 2.7-.8 3.8-.8 1.7-1.8 3.4-3.7 4.1-2.2 1.7-4.7 2.8-7.1 4-1.5-.1-2.5 1-3 2.3-.3 1.7-2.9 1.5-3.6.1-1.2-1.1-3.2-.9-4.7-1.2 1-1.2 1.2-2.4.5-3.8-1.7-.7-.3-2.3.7-2.9 2.1-1.1.2-1.6-1.1-.8-.9-1.1-1.7-2.6-3.3-2.2-1.8-.3-1.5-1.9-1.5-3.1-1.9-1.1.2-2.3-.2-3.3-.7-1.8-2.2-.4-2.9-1.1.2-1 2.2-3 1.2-3.3-2.2.1-1-.6.4-.9 1-1 1.2-3-.4-3.5.4-1 .1-2.1-.8-2"/><text data-dist-id="d13" transform="translate(19.992 355.177)" class="st2">
                            Dhubri
                        </text><path data-dist-id="d15" class="st0" fill="#f1f5f9" d="m157.2 322.8-2.1.4-4 .4-3.3 4.5-4.8 1.9-5 .4-3.7 2.3-6.4 2.7-4 2.6-4.7.4-4.4-.8-6.4-2.3-2.1-2.8c-1.3.3-2.5.6-3.4-.3-1.4-1.2-4.3-.1-6-1.6-2.4-.1-5.8.1-6.9 2.3.4 2 .3 6.5-2.5 6.3-1.8-.4-2.2 1.5-3.7 1.7-.5 2.4-3.5-.7-3.7 2.3-.8 2.4-2.4 4.6-4.5 6.1-.6 0-.7.6-.5 1 .8 1 2 1.6 3 2.3 1.6.1-.3 1.8-.4 2.7-.7 1.1.2 2.6 1.5 2.4 1.5-.1 2.4 2.4.8 2.9-.8.5-2.7.6-1.6 1.7-.3 1.2 1-.5.6.5-1.1.9-.5 2.2-.4 3.3-1.3.9-3.1.5-4.1 1.9-1.1.4-1.3 1.6-2.6 1.7-.5.9-1.3.8-2.2.6-.6.3-.6.9-.5 1.5.2.2.1.7.5.6 1.5-.3 3.3.4 4.3-1.3 1.1.2 2.3 2.2 4.1 1.1.9 1.2 1.9 4.2 2.7 1 1.2-1 3.5-2.4 3.8-.1 2.9-.3 5.7-.9 8.5-1.4 3.2-.3 6.3-1.3 9.3-2.4 1-1.3 1.3-2.8 2.6-3.6.9-1.9 3.4-2.9 5.4-3.2 1.5.5 3.6-1.3 4.4 0 1.5.5 3 1.5 3 3.4 2.1 1.3 3.9-.7 5.9-1.1 1.2-.8 2.2-2.5 3.8-3.1 1.8.6 3.1 2 4.4 3.3 1.3 2.4 2.8 4.7 4.4 6.8.9 1.4.5 3.5.1 5.1-1.8.9-1.4 3.3-2.6 4.7-2.2 2 .7 2.6 1.8.7 1.1-1.4 2.4-2.5 3.6-3.8.6-2 3.6-1.9 3.8-3.9.1-2 1.6-3.6 2.8-1.5 2-.2 2.8 1.6 4.6 2 3.1.6-.2 2.2-1.2 3.5-1.8 1.4-.1 2.9.4 4.3 2.2.8 2.6-1.3 2.1-2.9 1.3-1.9 4-2.5 6.1-3.3 2-.1 2.5-2.1 3.7-3.3 1.7.2 4.3-.7 5.2-.3.8 1.5 2.8-.7 4-.9 1.5.2-1.3 2.7-.2 3.9 1.8.5 1.7.8.4 2.8-1.4 2.9.9 0 2.3-.2-1.3 2.2 1.4 2.6 3 2.4 0-2 1.4-3.5 2.4-5.1 1-1.1 2.6-2.5 3.4-2.7 1.3 1.6 3.5.1 3.7 1.5 0 1.9 1.7-1.7 3.6-.2 2.2 1.3 2.2-1.3 3.6-.6.4-1.8 1.7 2 2.7 2.2-.5 1.4 2.6 1.8 3 3.5 1.4 1.6-.3-2.4.1-3.4-.9-3.2 2.5.3 3.3-1.6 1.4-1.7 1.5 1.8 3.5 1.8 1 2.8 1.7 5.7 1.5 8.6 1.7-.5 3.6-.7 5.3 0 1.6 1 3.2-.1 4.8-.2 0-1.8 1-3.2 1.5-4.9.1-1.6 1.3-2.7 2.1-3.9-1.2-1.6 1.1-2.9 1.8-4.4.6-1.7 2.9-2.1 3.1-3.9 1.2-.9.4-3 1.5-4 1.5-.3 1-1.6.5-2.4-1.1-.8-.3-2.7-1.8-2.9-.4-1.1-1.2-1.3-2.2-1.2-.3-1.2-1.3-1.6-2.4-1.3-1 1.8-2.6-.9-3.7.4-1.4 1-2.5-1.3-3.7-1.9-1.4.1-2.6-.8-3.9-1.1-1.6-.8-3-2.1-4.2-3.5 0-1.5-1.4-.2-1.8-1.1-.1-1.7-2-.4-2.1-1.9-.2-.2-.3-.5-.5-.7-.7.1-1.1.7-1.6 1-.8.2-1.5.8-2.3.3-1-.7-2.3-.8-3.5-.8-1 .1-2-.1-2.9-.5-.5-.6-.9-1.4-1.2-2.2-.1-1-1.2-.9-1.9-1.2-.7-.4-1.1.5-1.7.8-.5.2-1-.7-1.6-.7-1-.1-1.8-.7-2.7-1-2-.4-3.6-1.8-5.6-2.3-1.8-.3-3.7-.7-5.5-.6-.9-.2-1.8.4-2.7.4-.7-.3-1.2.6-1.7.5-.6-.3-1-.7-.9-1.2-.8.1-.6-1-.9-1.5-.8-.3-1.8-.3-2.4-1.1-.5-1.8-1.5-3.3-2.2-5-1-1.6-.8-3.7-1.8-5.2.1-.7-.4-1-.6-1.6.3-.3-.2-.8-.4-1.5"/><text data-dist-id="d15" transform="translate(116.06 356.177)" class="st2">
                            Goalpara
                        </text><path data-dist-id="d3" class="st0" fill="#f1f5f9" d="M117.8 198.1c-3.2.2-6.5.4-9.7.7-.8 1.5-1.3 3-1.4 4.7-.5.4-1.1.8-1.7 1.1h-.1c.1 2.8 2 5.5.8 8.5-.9 2.8-.1 5.8.3 8.6-2.4 2.5.9 5.5 0 8.6-1.8 2.3-3.1 5-1.2 7.9.5 2.5 4 5.1 2.4 7.2-1.5 1.6 4.4 2 1.4 3.7-2.6 2.3 1.7 6 .4 8.8-3.2 1.7-2.2 5.7 1.2 6.3 1.7.5 1.7 2.7 3 3.7-1.2 3 3.7 3.4 1.4 6.3-.4 2.8.2 5.9.9 8.7.8 1.8 2.2 2.9 3.8 2.8-.2 1.9 0 4.2 2 4.9.5-.4.8-.9.9-1.6.5.6 1.8.7 2.6 1.4 1.6-1-.9-3.2.2-3.6.5-.9.1-3 1.7-3.8-.3-2.5 2.4-2.3 4.1-2 1.8 0 5.6-1 4.7 2.2-.4 1.5-.3 5.9 2.1 3.4 2.1-.4 2.6-2.3 2.2-4.2-.3-2.1 1.4-3.6 2-5.3 1-2.2-2.2-4.8 0-6.3 1.5-1.4 4.9-.8 5.6 1.2.4 2.1 1.8 5.6 4.3 3.3 2-1.2 1.3-3.1-.1-4.3-.9-1.5.4-2.1 1.6-2.6 1.1-.7 2.4-1 3.7-.6 2.2 0 2.3 3.5 4.7 2.8 2.4.7.7 3.9 2.9 4.5 1.8-.6 3 1.3 4.7.4 1.7-.3 2.9.9 3.6 1.8 1.7 1.4 1.7-3.9 3.5-1.6.4 3.1 2.9 1.5 4.7.8 0-.9.3-1.8-.1-2.7.6.4.4-.5.5-1 1.1-.9 1.6 1.7 2.6 1 .2-1.2 1.3-1.9 2.4-2 .7.4 1.3 2 2.2.9.1-1-.5-2 0-3.1-.2-.9.2-1.6.3-2.5.5-1.3-1.1-.3-1.6-1-.7-.4-1.8-.2-2.2-.9-.6-.4 0-1.9-.2-2.7-.5-.6-1.8-.9-1.8-2-.1-.7 1.2-1.3 1.8-1.6 1 .2 2 .9 3 .6.9-1.7.5-3 1.3-4.7 3.1.7 2.3-2.9 4-4.1 2.6-.4 3.8-3.1 3.5-5.5.7-1.6-1-2.2-1-3.3.8-1.5.5-3.2 1.4-4.4 1.2-1.1 2.5-3.1 1.8-4.7-.2-2.2 1.8-3.8 2.7-5.6.4-1.8 1.8-3 2-4.9 1.5.2 1.8-1.4 2.8-1.7-.5-1.3-2.1-.1-3.2-.4-7.1.6-14.3 1.5-21.4 1.9-3.6.1-7.4 0-11 .3-2 .5-3.9 1.5-5.9 1-1.4.2-2.4-.5-3.2-1.5-.9-1.3-2.1-1.2-3.4-.6-1.1 0-2.8 1.6-3.3.1-.8-1.1-1.1-2.9-2.8-2.8-3.8-.8-7.7-1.6-11.3-3.2-2.9-.9-4.9-3.3-7.4-5-5.3-4.4-10.6-8.2-15.7-12.3"/><text data-dist-id="d3" transform="translate(118.624 252.029)" class="st2">
                            Chirang
                        </text><path data-dist-id="d8" class="st0" fill="#f1f5f9" d="M214.6 250.5c-.3 0-.7.2-1 .4-.4.6-.4 1.2-.2 1.8.3.6-.1 1.3-.4 1.8-.5.5-.9 1.1-1.7 1.1q-1.2.3-2.4 0c-.6.1-1.7-.3-1.2.6.2.8.9 1.5 1.3 2.3.3.9-.1 2 .3 2.9.3.7-.9.7-1.2 1.1-1.1.6-2.4.8-3.6 1.3-.4.5-.7 1.1-1.2 1.5-.9.4-.5-.7-.9-1.2-.5-.1-1.2-.4-1.2-1.1 0-.8-.8-.8-1.4-.7-.7-.2.2-1.1.6-1.2.5-.8-.2-.7-.7-.9.2-.6.4-1.2-.1-1.7-.3-.5.7-1.2-.2-1.4-.6-.1-.8-1.2-.8-.1-.1.7-.2 1.4-.2 2-.8-.4-1.6-.1-2.4-.4-.3 1-.9-.1-1.6.1-.5.2-1.4-.6-1.4.2-.2.8-1 .4-1.5.9-.7-.6-1.7-.6-2.5-.2l-1.3-.3c-1 .3-2-.4-3-.6-.6.3-1.9.9-1.8 1.6 0 1.1 1.3 1.4 1.8 2 .1.8-.4 2.3.2 2.7.3.8 1.5.5 2.2.9.5.7 2.1-.2 1.6 1-.1.9-.5 1.6-.3 2.5-.5 1.1.2 2.1 0 3.1-.9 1.1-1.6-.4-2.2-.9-1.1.1-2.2.8-2.4 2-1.1.6-1.6-1.9-2.6-1-.1.5.1 1.5-.5 1 .4.9.1 1.8.1 2.7.5.6 1.4.3 2.1.4.1.9.1 2 .3 2.9.4.7 1.4 1.3 1 2.1-.6.8-1.2 2.1-2.4 1.9-.9 0-1.8-.4-2.4-1-.6 0-1.4.4-1.5 1 .3.7.8 1.3 1.2 2 1.3.3 2.6-.5 3.8-.7.6-.6 1.2.2 1.9 0 1-.3 1.7-1.3 2.1-2.2.6-.5 1.2.5 1.7.8.5.5 1.5 1.1.9 1.9-.3 1.2-1.4 2-1.4 3.2-.2.6-.7 1.3-.8 1.9.5.6-.1 1.4.4 2.1.5 1.2 2.1 1.8 2.2 3.1.1.8 0 1.6-.5 2.2-.8.3-1.6 0-2.4.5-.6.4-1.3-.2-1.9-.5-.5-.5-1.1-1.2-1.9-.8-.7.5-1.2 1.4-1.9 2-.5.6-.7 1.4-.5 2.2-.6 1.1-1.7 1.9-2.4 2.9 0 .6 1 .7 1.6 1.1.6.2.8 1.2.7 1.8-.1.8-.6 1.2-1.4 1.2-.5.6-1.2.6-1.9.5-1 0-1.9-.3-2.7-.8-.4-.5-1-1.4-1.7-.8-.7.3-1.5.8-1.7 1.7-.9.9-2.4.8-3.1 2-.6.8-1.6 1.5-1.4 2.6.2.5-.1 1.8.6 1.7.6.1 1.7-.4 1.7.4.1.6.2 1.6-.7 1.5-.9.3-1.4-.7-2-1.2-.8.4-1.5 1.1-2.4 1.4-1.7-.1-3.4-.6-4.9.3-.7.2-1.3.6-1.8 1.1-.9.3-1.3 1.2-1.2 2.1.2.6.8 1.1 1 1.7.2.7.7 1.2.8 1.9.2.6.7 1 .6 1.6 1 1.6.8 3.6 1.8 5.2.7 1.7 1.7 3.2 2.2 5 .6.7 1.6.8 2.4 1.1.3.5.1 1.6.9 1.5-.1.5.3.8.9 1.2.4.1.9-.7 1.7-.5.9 0 1.7-.6 2.7-.4 1.9-.1 3.7.3 5.5.6 2 .5 3.6 2 5.6 2.3.9.3 1.7.9 2.7 1 .6 0 1.1.9 1.6.7.6-.2 1.1-1.1 1.7-.8.7.3 1.8.3 1.9 1.2.3.8.7 1.6 1.2 2.2.9.4 1.9.5 2.9.5 1.2.1 2.5.1 3.5.8.8.5 1.6-.1 2.3-.3.5-.4.9-.9 1.6-1 .2.2.3.5.5.7 1.3-.2 2.8 0 3.7-1.1.8-.7 1.8-1.3 2.4-2.3.9-.7 1.8-1.5 2.6-2.3.8-.2 1.5-.7 2.2-.9 1.1.3 2.1.9 3.1 1.5.4.5 1.1.3 1.6 0 .7-.8 1.7-1.4 2.8-1.3.7-.3.4-1.1.8-1.6 1-1.3 2.2-2.4 3.3-3.6.9-.6 1.8-1.1 2.8-1.3 1 .2 2 .6 2.8 1.2.6.3 1.1.9 1.8.5 1-.4 2-.8 3-.8.7 0 1.5-.1 2.1-.6 1.2-.7 2.3-1.5 3.7-1.8 2-.7 4.2-.8 6.2-1.2 1.2-.2 2.4-.3 3.5-.8 1.8.8.5-2.4 2.2-2.8.2-.9-1.6-1.5-1.8-2.5-.9-1.1-2.9-.2-3.3-1.8 1.1-1.3 1.1-3.4 2.6-4.5 1.6-.7 1.8-3.6-.4-3.1-1.1.2-1.7.5-1.9-.8 0-.9 1.2-2.2 1.9-2.5 1.5 1.1 3.1-.1 4.4-1 1.4-.8.2-1.4-.6-1.9-1-1.6 2.4-.6 1-2.1-1.1-.7.1-1.8.8-1.8.7-1.1 1.3-2.3.5-3.5 0-1.3 2.1-.4 1.5-1.9.5-1.2-.1-1.9-.8-2.8.1-.7 2.3-2 .7-1.9-1.3.5-2.6.9-4 .8-1-.1-.2-1.9-1.5-2.1-.5-.8-.2-1.7-1.1-2.3-.2-.8.4-1.5.6-2.2-.5 0-.9.1-1.4.3-1.1.6-2.3-.1-3.3-.4-1 .1-1.1-.4-1.2-1.2-.2-1-.1-2.1-1.1-2.7-1-.7-1.4-1.7-1.8-2.7-.6-.5-1.9-.2-2.7 0-1.1 0-2.3-.1-3.4-.2-1.3.3-2.5.5-3.5-.6-.8.3.2 2.3-.8 3.1.5 1.2-.3 2.3-.9 3.4-1.3 0-1.3 1.8-2.5 1.6-1.5.3-2.9-.3-4.4 0-1.1 0-2.3-.3-3.3-.9-1.3-.6-.9-2.4-2-3.3-.2 1.2-.5 2.6-1.6 3.4-.5.7-.9.7-1.4 0-.6-.6-1.5-1.1-1.6-2.1-.2-1-1.3-1.5-1.9-2.2-.7-.4-.9-.9-.4-1.6s.1-1.5.1-2.2c-.6-.4-1.6-.5-1.7-1.4-.3-.6-.3-1.4-.8-1.8-.4-.3-1.6-.4-1.5-.9.3-.7.6-1.3.9-2-.4-.7-.8-1.3-1.2-2 1.7-.4 3.4-.7 5-1.2.1-2.2 0-4.4.3-6.6.6-.8 1.1-1.7 1.4-2.7-.3-1.3-.5-2.7-.3-4 .5-1 1.2-2 1.6-3 0-1 .2-1.9.5-2.9-.4-1-.6-2.1-1.5-2.8.2.3-.1.2-.3.2"/><text data-dist-id="d8" transform="translate(180.952 323.945)" class="st2">
                            Barpeta
                        </text><path data-dist-id="d4" class="st0" fill="#f1f5f9" d="M279.3 210.2c-.6.2-1 1.4-1.5 2-1.3 2-2.6 4-3.8 6-2.1.9-4.2 1.9-6.3 2.7-2.2-.4-4.5-.7-6.7-1.2-1.2-.8-2.2-2-3.5-2.5-2.1-.6-4.2-1.5-6.4-2-3.4-.1-6.7-.5-10.1 0-2.1.1-4.3.5-6.3-.3l-6-1.5c-1.6 1.6-3 3.3-4.6 5-.8.7-1.4 1.8-2.3 2.3-1 0-2-.3-2.9-.2-2.5-.4-5-1-7.5-1.2-1.8.6-3.7 1.1-5.5 1.7.1-.2.2-.3.3-.5-1 .3-1.3 1.9-2.8 1.7-.2 1.9-1.6 3.1-2 4.9-.9 1.8-2.9 3.4-2.7 5.6.7 1.6-.6 3.6-1.8 4.7-.9 1.2-.6 2.9-1.4 4.4.1 1.2 1.8 1.7 1 3.3.4 2.4-.9 5.1-3.5 5.5-1.7 1.3-.9 4.8-4 4.1-.8 1.7-.4 3.1-1.3 4.7l1.3.3c.8-.4 1.8-.3 2.5.2.4-.5 1.2-.2 1.5-.9.1-.9.9 0 1.4-.2.7-.2 1.3.9 1.6-.1.8.3 1.7-.1 2.4.4.1-.7.2-1.4.2-2 0-1.1.2 0 .8.1.9.2-.2.9.2 1.4.5.5.4 1.1.1 1.7.4.2 1.2.2.7.9-.4.1-1.3 1-.6 1.2.6 0 1.4-.1 1.4.7 0 .7.7 1 1.2 1.1.4.4 0 1.6.9 1.2.5-.3.8-1 1.2-1.5 1.1-.5 2.4-.7 3.6-1.3.4-.4 1.6-.3 1.2-1.1-.3-.9.1-2-.3-2.9-.3-.8-1.1-1.5-1.3-2.3-.5-.9.6-.6 1.2-.6q1.2.3 2.4 0c.8 0 1.2-.6 1.7-1.1.3-.5.7-1.2.4-1.8s-.2-1.3.2-1.8c.5-.3 1.3-.7 1.6.1.9.7 1.1 1.8 1.5 2.8-.3.9-.5 1.9-.5 2.9-.4 1-1.1 2-1.6 3-.2 1.3 0 2.7.3 4-.2 1-.7 1.9-1.4 2.7-.3 2.2-.2 4.4-.3 6.6-1.6.5-3.3.9-5 1.2.4.7.8 1.3 1.2 2-.3.7-.6 1.3-.9 2 0 .5 1.1.6 1.5.9.5.4.5 1.2.8 1.8.1.9 1.1 1 1.7 1.4 0 .7.4 1.5-.1 2.2-.5.6-.3 1.2.4 1.6.6.7 1.7 1.2 1.9 2.2.1 1 1 1.4 1.6 2.1.5.7.9.7 1.4 0 1.1-.8 1.4-2.2 1.6-3.4l.2-.4c.3-1.1 1.2-2.2.7-3.4.1-1.1-1.4-1.8-.9-2.8.4-1.1.4-2.2.1-3.3-.4-.7-.8-1.5-.2-2.2.5-.6-.7-1.3-1.2-1.3-1 .3-1.6.3-.9-.8.1-1 1-1.5 1.7-2.2.3-.5.1-1.6-.3-2.1-.5-.6-.9-1.3-.4-2 .7-1.4 2.4-1.7 3.8-1.8 1.6-.3 3.1.5 4.7.8.4 1.1.9 2.2.7 3.4.7.4 1.8 1.4 2.4.4.7-1.5 1.2-3 2.4-4.2.9 0 1.9.2 2.8-.3.6-.4.8-1.3 1-2 .2-1.2 1-2.4.9-3.6-.3-1.1-1.4-1.7-1.6-2.9.1-.9.7-2-.1-2.8-.1-.7-1-1.5-.2-2.1.3-.6 1.9-.4 1.7-.8-.4-.5-.9-.8-1.2-1.4.2-1-1.2-1-1-1.8.4-1.1-1-.9-1.1-1.5-.1-1.1 1.1-.6 1.5-.8-.1-.7-.3-1.4.5-1.9.7-.5 1.4.3 1.9.7.8.7.3 2 1.1 2.7.9.3.8 1.5 1.5 2.1.8.4.6 1.5 1.2 2.1.9.6 1.7 1.4 2.5 2.2.5 1 1.3-.7 1.7.1.5.7-.3 1.5.1 2.2.3.9 1.5 1.4 2.2.6 1-.8-.9-.8-.4-1.6.2-.6 1.2-.6 1.4-1.3.2-.8 1.3 0 1.9-.2 1 .4 2.1.2 3.1.5 1-.1 2.1-.2 3.1-.1 1.1.3 2.3.4 3.4.2 1.2-.3.1 1 0 1.6-.1 1-1.3.8-2 1.2-1.5.2-2.2 1.7-2.8 2.9-.8.3-1.7.5-2.1 1.3-.4.6-.7 1.4-1.6 1.3-.1.5.6 1.4.8 2.1.6.2 1.3.4 1.9.6 1.3.1 2.6-.1 3.9.1.7.2 1.3-.1 1.9-.4.6-.6 1.5-.4 2.3-.4.5.9.7 1.9.9 2.9-.1 1.2-.2 2.4-1 3.4-.2.6-.2 1.3-.8 1.5-.5.3-.1 1.1-.1 1.7-.1.7.7.9 1.2 1.3 1.3.2 2.7.2 4 .1.7-.5 1.2-1.3 1.9-1.8.6-.4.8-.9.9-1.5.4-.6 1-1.1 1.4-1.8.9-.7 2.1-1 3.2-1.4 1.2 0 2.3-.2 3.5-.5 1.6-.2 3.2-.3 4.7-.9 1.2-.2 2.3-.4 3.4-1 .7-.1 1-.6 1.4-1.2.4-.5-.6-.9-.8-1.4.2-.4 1-.6 1.5-.9 1.5-.2 3-.1 4.5-.1.2.6.5 1.2.8 1.8.3.8.5 1.5 1.2 2 .6.9 1.7.5 2.5.4.6-.1.8-1 1.5-.9.8 0 .4-.9.6-1.4.2-.7-.4-1.4.2-2 .8-.2.4-.9.2-1.5-1.1-.9-3.7 1-3.5-1.4.8-1.4.6-3.1-1.2-3.3-1.1-1.2-.3-3.1.4-4.3 1.7-1.4 1.7-3.5.6-5.2.7-1.9-.3-3.5-1.4-5.1-1.4-.9-2.4-2.3-3-4-.9-1.6-2-3.6-1.4-5.5-.6-1.9.1-3.7-.1-5.6-.2-3.1-3-4.9-5.3-6.6-1.4-.9-2.3-2.3-2.6-3.9-1.1-2.3-2.2-3.7-2.3-5.5"/><text data-dist-id="d4" transform="translate(219.707 241.242)" class="st2">
                            Baksa
                        </text><path data-dist-id="d34" class="st0" fill="#f1f5f9" d="M235.9 242.6c-.2 0-.3 0-.5.1-.8.4-.7 1.2-.5 1.9-.4.2-1.6-.3-1.5.8.2.6 1.5.4 1.1 1.5-.1.9 1.2.9 1 1.8.3.6.8 1 1.2 1.4.2.4-1.4.2-1.7.8-.8.6 0 1.4.2 2.1.8.8.2 1.9.1 2.8.2 1.2 1.4 1.8 1.6 2.9 0 1.3-.7 2.4-.9 3.6-.3.7-.4 1.6-1 2-.9.5-1.8.4-2.8.3-1.1 1.2-1.7 2.8-2.4 4.2-.6 1-1.7-.1-2.4-.4.2-1.2-.3-2.3-.7-3.4-1.6-.3-3.1-1.1-4.7-.8-1.4.1-3.1.4-3.8 1.8-.5.8-.1 1.4.4 2 .4.5.6 1.6.3 2.1-.7.6-1.6 1.2-1.7 2.2-.6 1.1 0 1.1.9.8.5 0 1.7.7 1.2 1.3-.6.7-.2 1.5.2 2.2.3 1.1.3 2.3-.1 3.3-.5 1.1.9 1.8.9 2.8.4 1.2-.4 2.3-.7 3.4l-.2.4c1.1.8.7 2.6 2 3.3q1.5.9 3.3.9c1.5-.3 2.9.4 4.4 0 1.2.1 1.2-1.6 2.5-1.6.6-1.1 1.4-2.1.9-3.4.9-.8 0-2.8.8-3.1 1 1.1 2.2.8 3.5.6 1.2.1 2.3.1 3.4.2.8-.2 2.1-.5 2.7 0 .4 1 .8 2.1 1.8 2.7s.9 1.7 1.1 2.7c.1.8.3 1.3 1.2 1.2 1.1.3 2.2 1 3.3.4.4-.2.9-.3 1.4-.3-.1-1.3-.3-2.6-1-3.8-.2-1.6-.1-3.2.8-4.6-.2-1.7 1.6-2.3 2.3-3.6.7-1.4 2.2-2.6 2.3-4.3-.4-1.6-1.8-2.6-3.1-3.4 0-1.1.8-2.6-.3-3.4-.4-.5.6-.8-.1-1.5.2-.9.1-1.6-.3-2.6-.2-.7-.9-1.6-.8-2.1.9.1 1.2-.6 1.6-1.3.5-.8 1.3-1 2.1-1.3.7-1.2 1.3-2.7 2.8-2.9.7-.4 1.9-.2 2-1.2.1-.6 1.1-2 0-1.6-1.2.1-2.3.1-3.4-.2-1-.1-2.1 0-3.1.1-1-.3-2.1-.1-3.1-.5-.6.2-1.7-.7-1.9.2-.3.7-1.2.7-1.4 1.3-.5.8 1.4.8.4 1.6-.7.7-1.9.3-2.2-.6-.3-.7.5-1.5-.1-2.2-.5-.9-1.2.8-1.7-.1-.8-.8-1.6-1.5-2.5-2.2-.7-.6-.4-1.7-1.2-2.1-.7-.5-.6-1.7-1.5-2.1-.9-.7-.3-2-1.1-2.7-.3.1-.8-.3-1.3-.4"/><text data-dist-id="d34" transform="translate(218.15 278.398)" class="st2">
                            Bajali
                        </text><path data-dist-id="d9" class="st0" fill="#f1f5f9" d="M303.4 257.5h-.6c-.4 0-.8.1-1.1.4-.3.2-.5.5-.8.4-.7.1-1.5-.4-2.1 0-.2.2-.4.5-.5.7l.6.9c.2.6.7 1.2-.2 1.5-.6.6 0 1.3-.2 2-.2.5.2 1.4-.6 1.4-.7 0-.8.9-1.5.9-.9.1-2 .4-2.5-.4-.7-.5-.9-1.2-1.2-2-.2-.6-.5-1.2-.8-1.8-1.5 0-3 0-4.5.1-.4.3-1.3.6-1.5.9.2.5 1.2.9.8 1.4-.3.6-.7 1.1-1.4 1.2-1.1.5-2.2.8-3.4 1-1.5.6-3.1.7-4.7.9-1.1.3-2.3.5-3.5.5-1.1.4-2.3.7-3.2 1.4-.3.7-.9 1.2-1.4 1.8q0 1.05-.9 1.5c-.6.6-1.2 1.4-1.9 1.8-1.3.1-2.7.1-4-.1-.5-.4-1.3-.5-1.2-1.3 0-.5-.4-1.3.1-1.7.7-.2.6-1 .8-1.5.8-1 .9-2.2 1-3.4-.2-1-.4-2-.9-2.9-.8 0-1.6-.1-2.3.4-.6.4-1.2.7-1.9.4-1.3-.2-2.6 0-3.9-.1-.6-.2-1.3-.4-1.9-.6.4 1 .5 1.6.3 2.6.7.6-.3 1 .1 1.5 1.1.7.3 2.3.3 3.4 1.3.8 2.7 1.8 3.1 3.4-.1 1.6-1.6 2.8-2.3 4.3-.7 1.2-2.5 1.9-2.3 3.6-.9 1.4-1 3-.8 4.6.7 1.2.9 2.5 1 3.8-.3.7-.8 1.4-.6 2.2.9.6.6 1.5 1.1 2.3 1.3.2.5 2.1 1.5 2.1 1.4 0 2.7-.3 4-.8 1.6-.1-.6 1.2-.7 1.9.7.9 1.3 1.6.8 2.8.7 1.6-1.5.7-1.5 1.9.8 1.2.2 2.4-.5 3.5-.8-.1-1.9 1-.8 1.8 1.4 1.5-2 .5-1 2.1.8.5 1.9 1.1.6 1.9-1.3.9-2.9 2.1-4.4 1-.7.4-1.9 1.7-1.9 2.5.2 1.3.8 1 1.9.8 2.3-.5 2.1 2.4.4 3.1-1.5 1.1-1.5 3.2-2.6 4.5.4 1.6 2.4.7 3.3 1.8.2 1.1 2.1 1.7 1.8 2.5-1.7.4-.4 3.6-2.2 2.8-.6.6-.8 1.2.1 1.4 1.1.6 2.2 1.3 3.2 2.1 2.3.3 4.6 1 6.9 1 1-.5 2.1-.7 3.2-.5.9-.1 2.1 0 2.8-.7 1-.6 1.9.9 2.9 0 1-.2 1.7.9 2.5 1.2 1.5 1.1 2.7 2.5 4.2 3.6 1 .7 2.2-.1 3.3.4.4-2.8 1.4-5.7.8-8.5-.5-1.2-1-2.4-1-3.7 1.1-.2 1.1-1.6 1.3-2.4.1-1.3 0-2.9.9-3.7 1.5.1.6-1.6-.5-1.3s-1.9-.5-2-1.6c.1-.9.4-2.1 1.3-2.4 1.1-.1 2.2.9 3.3.8.7-.7 1.6-1.5 2-2.4-.1-2.1-.7-4.3.1-6.2 1.9-1.1-1.7-.4-.1-1.4 1.1-1 2.7-.4 4.1-.5 1.2-.1 2.6.1 3.4-1 1.2.8 1.4-.5 2.3-.8 1.2.2 2.2-.5 3.2-1 1.3-.5-1-.9-1.6-1.1-.9-1.4.2-3.1 1-4.3.6-.5 2.2-1.7.8-2.1-1.5.2-1-1.3-.3-2 .8-.8.3-1.9 1.3-2.6.7-.7 1.4-1.8.5-2.7-.4-1.4 1.5-.5 2.1-.5 1.3 0 .6-1.5 1.4-2.1.5-1 0-1.9-.3-3-.5-1.4-1.4-2.6-1.3-4.1-.4-1.3.4-2.6 1.3-3.5-.1-1.9-.3-3.8-.8-5.6.1-1.2 1.1-1.6 2.2-1.5 1.3-.2 2.3-1.3 2-2.6 1.1-.5.6-1.6.5-2.6 0-1 1.1-.7 1.8-.6-.2-.8-.3-1.6-.7-2.3-.4-.6-.6-1.7-1.3-1.9-.9 0-1.8.1-2.5-.4-.3-.2-1-.5-1.6-.5"/><text data-dist-id="d9" transform="translate(254.174 299.12)" class="st2">
                            Nalbari
                        </text><path data-dist-id="d11" class="st0" fill="#f1f5f9" d="M308.6 262.4c-.4 0-.6.2-.6.7.1 1 .6 2.2-.5 2.6.2 1.3-.8 2.4-2 2.6-1.1 0-2.1.3-2.2 1.5.5 1.8.7 3.7.8 5.6-.9.9-1.7 2.2-1.3 3.5-.1 1.5.8 2.8 1.3 4.1.2 1 .8 1.9.3 3-.8.6-.1 2-1.4 2.1-.6 0-2.5-.9-2.1.5.9.8.2 2-.5 2.7-1 .6-.5 1.8-1.3 2.6-.7.6-1.2 2.2.3 2 1.4.4-.2 1.6-.8 2.1-.8 1.2-1.8 2.9-1 4.3.6.2 2.9.6 1.6 1.1-.9.5-2 1.2-3.2 1-.9.3-1.1 1.6-2.3.8-.8 1.1-2.2.8-3.4 1-1.4.2-3-.5-4.1.5-1.7 1 1.9.3.1 1.4-.8 2-.2 4.2-.1 6.2-.4.9-1.2 1.7-2 2.4-1 0-2.1-.9-3.3-.8-1 .3-1.2 1.4-1.3 2.4.1 1.1.9 1.9 2 1.6s2 1.4.5 1.3c-1 .9-.9 2.5-.9 3.7-.2.9-.2 2.2-1.3 2.4.1 1.3.5 2.5 1 3.7.6 2.9-.5 5.7-.8 8.5-1.1-.5-2.3.3-3.3-.4-1.5-1.1-2.7-2.5-4.2-3.6-.8-.4-1.5-1.4-2.5-1.2-1 1-1.9-.5-2.9 0-.7.7-1.9.6-2.8.7-1.1-.1-2.2.1-3.2.5-2.3 0-4.6-.7-6.9-1-1-.8-2.1-1.4-3.2-2.1-.9-.2-.7-.9-.1-1.4-1.1.4-2.3.6-3.5.8-2.1.4-4.2.5-6.2 1.2-1.4.3-2.5 1.1-3.7 1.8-.6.5-1.3.6-2.1.6-1.1-.1-2.1.4-3 .8-.6.5-1.2-.2-1.8-.5-.9-.6-1.8-1-2.8-1.2-1 .3-1.9.8-2.8 1.3-1.1 1.2-2.3 2.3-3.3 3.6-.5.5-.2 1.2-.8 1.6-1.1-.1-2.1.5-2.8 1.3-.5.2-1.2.5-1.6 0-1-.6-2-1.2-3.1-1.5-.7.2-1.4.7-2.2.9-.8.8-1.7 1.6-2.6 2.3-.6.9-1.5 1.6-2.4 2.3-.9 1.1-2.4.9-3.7 1.1.2 1.5 2.1.2 2.1 1.9.4 1 1.8-.4 1.8 1.1 1.2 1.5 2.6 2.7 4.2 3.5 1.3.3 2.5 1.1 3.9 1.1 1.2.6 2.2 2.9 3.7 1.9 1.1-1.3 2.7 1.4 3.7-.4 1.2-.3 2.2.1 2.4 1.3 1-.1 1.8.1 2.2 1.2 1.5.2.7 2.1 1.8 2.9.4.9 1 2.1-.5 2.4-1.1 1-.3 3-1.5 4-.2 1.8-2.5 2.1-3.1 3.9-.8 1.5-3 2.8-1.8 4.4-.8 1.2-2 2.3-2.1 3.9-.5 1.6-1.5 3.1-1.5 4.9 0 1.5 0 3.3-.8 4.5-1.7.7-1.9 1.9-2.1 3.6 0 1.4-2.6 3.4-1.1 4.3 1.8.5 3.1-.8 4.3-1.9 1.7-.5 2.1-3.2 3.7-3 1.2 1.3 4.3-1.5 3.7-.3-.3 2-1.4 2.4-3 3-2.8.2.6 3.2 1.2 1.6 2.6-1.5 6-.9 8.9-1.3.7-1.9 2.6-1.7 3.8-2.7 1.3-1.2 3-.6 4.3.2 1.9 1.2 2.4-1.2 3.7-1.9 1-1.5 1.3 2.6 1.3 3.2-1 1.3-1.6 2.7-2 4.3.9 1.4-1 2.9-.7 4.5 0 1.8-1.2 3 .2 4.3 1.3 1.3 0 3.7.7 5.3.2 2 1.5 1.1 3.2 2.2 1.6.5 2.6.7 3.9-.6 1.8-1.2 3.1-4.1 5.5-3.4 2.1 1.2 1.4-2 3.1-2.6 2.3-3.4 3.7-7.3 6.1-10.7 1.4-.8 1.1-4 2.8-2.9 1.1-.7 2.3-.5 3.7-.7 1.5-1.3 3.6-.9 5.3-1.7 1.6.2 2.9-1.5 4.6-.7.9.7 2.7 3.2 3.6 1.7 1.1-1 2.6-2.6 4.1-2.6 1.5.4 2.3-1.6 4.2-.8 1.7-.1 2.9-1.1 4-2.1.9.3 2.8-3.1.6-3-1 1.2-.9 3.1-2.5 3.9-1.5.6-3.2.8-4.8.2-2-.4-.4-3.1.4-4.2.7-2.2 4 1.2 2.9-1.4 1-2.1 2.9-3.6 4.9-4.6 1.4-2.6 0-1.4-1.5-.2-.7.9-3 3.3-3.2.9.4-1.5 2.1-2.9 2.9-4.1-.4-1.6-.5-3.5 1.5-3.7 2 .4 1.4-2.5 3.7-2.5.3-1.8 1.3-3.3 2.3-4.9-.1-1.4 1-2.7.6-4.2.2-2.1 3.1-1.8 3.7-.1.8 2.5 1-.1 3.2.3 1.2-.7 3.3-.5 3.6 1.1-.5 1.3.3 3.1-1 3.9-.3 1.4-.5 3.1.6 4.5 1.8 1.3.1 2.6 0 4.3.2 1.7-3.4-.4-3.3 1.4 1.1 1.9 3.6 2.6 5.1 4.3 1.1 1.8 2 2 3.8 1.7 1.4 1.5 1.5-2.1 3.1-2.2.7-1.3 2.8-2.4 2.6-3.9 1.7-.5 3.5-1.8 3.3-3.7-.3-3.5-.1-7.1.2-10.6.4-1.6 0-3.3.6-5 2.3-.9 0-2.9 2.6-3.1 2-.7 3.7-2 4.9-3.8-.2-1.2-.3-2.5-.8-3.6-.4-1.4-2.3-.1-3.4-.2-1.1.5-2-.4-3-.7-1.2.2-2.4.5-3.7.5-1.1-.3-1.5 2.1-2 1.5-.4-.6-.1-2.1-.9-2.2-.6-.1-1.2 0-1.4.6-.7.6-1.8.2-2.7.2-.8-.6-1.2-1.6-2-2.1-.8-.7-2.5-.7-2.3-2.1 1.2-.7.4-2.1.5-3.3-.5-1.1-2-2-1.2-3.4.1-1.7 1.9-1.3 3.1-1.8.6-.8-1-1.5-1.5-2.1-.9-.5-.3-1.8.5-.8 1.1.9 2.5 1.2 3.8 1.5s2.5.6 3.6-.1c1.3.1 2.6 0 3.8-.4.9-.2 2.3 0 1.9-1.3.1-1.4 1.1-2.1 2.3-2.6.6-.3 1.1-.6 1.7-.8-2-2.1.9-3.6 2.4-4.5-.1-2.5 4-.8 3.3-3.5-.2-1.8 1.7-3.2.6-5 .3-1.8-1.5-4.1.1-5.3 1.2-.5.4-2.8 1.8-1.3 1.4.1 1.9-1 2.3-1.9 2.3.1.7-2.7 1.1-4 .2-1.8.1-3.5-.1-5.3 0-2-2.9-.4-2.5-2.3-1.7-.6-.3-3.4-2.2-3.7-2.5.5-1.2-3.2-2.6-3.3-.8-1.4-.3-3.1-1-4.6-.6-1-1.2-3.5.8-2.7 1.3-1.1.7-3.1.8-4.4.1-.3.2-.5.3-.7-1.7-.4-3.5-.6-5.2-.7-1.2.1-1.7 1.3-2.5 2-1.3.7-1.3 2.3-1.9 3.4-.8 1.3-2.1 2-3.7 1.5-2-.1-3.9-1-5.7-1.6-.6-.9-1.1-2-2.1-2.5-1.1-.6-1.1-2-1.2-3.1s.1-2.9-1.5-2.5c-1.9.6-1.9-1.6-3-2.5-1.2-.3-3-.6-2.7-2.3-.1-.9-.2-1.8-.5-2.7-.9-.3-1.3-.4-1.7-.4"/><text data-dist-id="d11" transform="translate(241.481 363.498)" class="st2">
                            Kamrup
                        </text><path data-dist-id="d14" class="st0" fill="#f1f5f9" d="M367.7 316.9c-1.2.2-2.5.2-3.5.9-.9.3-1.1 1.8-2.1.8-1 .4-1.8 1.1-1.9 2.3-.8.7-1.5 1.6-2.6 1.8-.6.9-1.6.9-2.6 1.2-1.1-.3-2.1-.7-3.2 0-1.1.3-2.3.4-3.4.1-1.4.2-2.5 1.2-3.9.8-1.1.4-2.3.5-3.3 1.1-.8.6-1.6 1.6-2.7 1.1s-2.7.5-3.5-.6v-.1c-.6.3-1.2.5-1.7.8-1.2.4-2.3 1.2-2.3 2.6.4 1.4-1 1.1-1.9 1.3-1.2.3-2.5.5-3.8.4-1.2.7-2.4.4-3.6.1-1.3-.3-2.7-.6-3.8-1.5-.7-1-1.4.3-.5.8.5.6 2.1 1.2 1.5 2.1-1.1.4-2.9 0-3.1 1.8-.8 1.4.7 2.2 1.2 3.4-.1 1.1.7 2.5-.5 3.3-.2 1.4 1.5 1.3 2.3 2.1.8.6 1.2 1.5 2 2.1.9.1 2 .5 2.7-.2.2-.7.8-.7 1.4-.6.8.1.5 1.6.9 2.2.6.6 1-1.8 2-1.5 1.2 0 2.5-.3 3.7-.5 1 .3 1.9 1.2 3 .7 1.1.1 3-1.2 3.4.2.5 1.2.7 2.4.8 3.6.1-.1.1-.2.2-.2.6-1.1.9-.9 1.7-.2 1 .4 1.4-.6 1.8-1.4.5-.5.7-2 1.4-1.9 1 .6 1.5-.6 2-1.3.3-1 .7-1.6 1.8-1.2 2.6 1.4 5 3.2 8 3.7.1 2.2-.4 4.4-.8 6.6-.6 1.5.5 2.7 1.1 4 .5.6.5 2 1.5 1.9 1.2-.2 2.1 1.1 3.3.6.5.4 1.6.7 1.7 1.3.1.8-.6 1.7.3 2.3.1.8.1 1.8 1.2 1.4.3-1 .9-1.8 1.3-2.8 1 .1 2 .2 2.8-.4 1.5-.5 3.1-1.1 4.5-1.8.8-.5 1.1-1.3 1.4-2.2.6-.9 1.4 0 2.2-.1.8.2 1.7-.4 2.5-.1.9.3 1.5 0 2.4 0 1-.2 1.2 1 2.2 1 1.2.6 2.6.1 3.7-.4.7-.5 1.5-.7 2.1-1.2 1.1-.7 2.4-1.1 3.7-1.1 1.3-.4 2.5 1.2 3.8.6 1 .3 1.4-.5 1.9-1.2s1.3-1 1.8-1.6c.1-1.1 1.3-1.4 1.9-2 .8-.7 1.7-1.2 2.8-1.3-2.4-1.5-.8-3.8-1.2-6-.5-2.3-1.3-4.7-1.2-7.1.4-1.1.8-1.3.3-2.4-1.8-2.7-2.8-.4-2.7-.1-.3.1-2.5-.6-3-1.9.3-3.2-2.9 1.4-5.8-.2-5.6.7 2.9-4.1-2-1.9.3-3.5-4.1-.5-4.7-3.6-2.4-4.1-.8.1-2.1 1.1-1.1-4.1-2.2-.5-3.9-1.1-3.8-.4-10.2-3.3-9.9-8-1.2-1.4-.5-1.8-1-2.4"/><text transform="translate(338.152 340.94)" class="st3">
                            <tspan x="0" y="0" class="st2" data-dist-id="d14">
                                Kamrup (M)
                            </tspan>
                        </text><path data-dist-id="d2" class="st0" fill="#f1f5f9" d="M433.4 192.5h-.4c-.3.1-.5.2-.8.3-2.4.6-4.9 1-7.3 1.8 0 .8.1 1.6.1 2.3.2.6-.7.7-1.1.8-.9.4-1.9.3-2.9.6-.6.4-1.2-.2-1.8-.3-.6-.6-1.5-.8-2.2-1.2-1.5.6-3.1 1.2-4.6 1.8-1.7.6-3.4 1.3-5 2.2-1.4-.1-2.8-.4-4.1-.2-.7-.1-1.4-.3-2.1 0-1.5.4-3 .2-4.5.3-.9.4-1.8-.1-2.6-.3-.5.7-1.3 1.4-1.6 2.2-.1.8.2 1.8-.1 2.5-2.4 1.4-4.9 2.4-7.4 3.6-2.4-.4-4.8-.2-7.1-.7-1.6-.5-3.4-.7-4.9-1.4-1-1.1-2.2-2-2.6-3.4-.3-1.3-1.7-1.7-2.7-2.5-3-2-6.4-3.3-9.5-5.2-1.7.9-3.6.7-5.4 1.1-1.9 3-3.8 6.1-5.7 9.1-2.4 1.3-4.8 2.7-7.2 4.1-3.2 1.8-6.4 3.7-9.7 5.6-1 0-2.2-.6-3 0 1.1 1 .7 3.6 1.6 5.1.4 3.2.9 6.5 2.9 9.1 1.4 1.7-.3 4.3 1.6 6-.5 1.7 1.4 3.1.3 4.8.5 1.5-1.5.9-1.3 2.3-.9 1.8 1.9 2.2 1.7 3.5-1.3.5-.8 1.5.4 1.3 1.2 1.6-2.3.4-1.5 1.9 2.3-.6.7 1.2.5 2.4 1.1.5-.3 1.2 0 2 1.9-1 1.8.6.8 1.8.3 1.1.5 3.2 2.3 3 1.8 1.1 1.1 4.3 3.4 5.1-.8 1.2 1.5 1.9.4 2.7-1.1 1.1.2.4.5 1.2-.9.3-1.3 1-.1 1.3 1.3-.9 2.5.3 3.6 1 .9-.2 2-1.1 3.2-.9 1.1.4 2.6.1 3.1-1.1.3-1.2 1.8-1.3 2.1-2.5 1.2.1 2.1-1.1 3.3-1 1-.1 2.6.5 3.3-.5.5-.9.4-2.5 1.9-2.5 1.6.4 1.7-1.1 2.4-2.1 1-.7 2.4-.2 3.4.4 1.4.4 1.7 1.8 2.1 3 .7.9 1.9 1.6 2.7.4.4-1.4 1.9-1.6 3-2.1s2.2-.8 3 .3c1.2 1.4 3 2.2 3.7 4 0 1.7 1.8.8 2.6 1.8.6 1.2.9 2.1 2 .7 1.8-.4.6 1.6.6 2.5-.2 1.5 1.6 2.7.6 4.1-.1 1.2-.1 2.4 1.1 2.9.3-.7.1-3.4.8-2.7 1.1.6.4 2.9 1.9 2.1.2-1.3.1-2.5-.8-3.5-.4-1.2 1.4-1.9-.1-2.8 1.2-1-.5-2.4.6-3 .4-1 .2-2.4.9-3.4-.6-1.2 0-2.5-.6-3.8-.5-1.4.2-2.4 1.6-1.4 1.1-.4 2.1.3 3.3.2.9.8 2.3.1 3.2 1.1.4-1.5.6-3 .2-4.5-.1-1.3-2 0-2.9-.5-1.1-1-2.1.3-3.3-.3-1.5 0-3.2.2-4.5 1.2-1 .8-.3 2.2-.9 3.1-.3 1-.1 2.1 0 3.1.3 1.1-1.9 1.9-2.3.6-1.3-.8-1.5-2.8-3.1-3-1.2.1-1.4-2-1.2-2.7.9-.7 2.4.4 2.3-1.5.8-.9 1.2-2.1 1.6-3.2.8-1 2.3-.4 2.4-2.1 1.6-.5 2.7-2.4 4.6-2 1.1.6 2.7-.5 1.9-1.7-.3-1.1-.2-2.9 1.3-2.1 1.2.6 2.5 1 3.8 1.2 1.2.7 2-.6 3.2-.8 1-1 2.3-1.5 3-2.8.8-1.2 2.2-.6 3.2-.2 1.1.8 2.4 1.8 2.5 3.3 0 1.7 1.4 2.6 2.6 3.5 1.3.6 1.1 2.2 1.1 3.4-.2 1.2-.1 2.3.6 3.2.4 1 .2 2.8 1.6 2.5 1.1-.5 1.6-1.6 2.7-2.2 1-1.3.3-3-.1-4.4.1-1.6 1.8-2.4 3.3-2.4 1.1-.6 1.3-2.2 1.6-3.4.4-1.9-.1-4.4 1.9-5.5 1.4-.2 2.6 1.2 3.9 1.4-.4-.8.6-1.8.1-2.9-.3-1.4.7-2.7.2-4.1.7-1.8-.2-3.6-.3-5.4-1.6-.6-.3-1.9-.8-3-1-1.3 2.2-2.6.5-3-1.2-1.6 1.7-.1 1.2-1.1-1.3-.9.1-2.2-.7-3.1-.2-1-.8-1.9-.9-3 1-.7.4-1.3.2-2-.5-1.1 1.5-1 .7-1.8-1.5-1.3.2-3.2.8-4.6 1.2-1.2.2-2.7.6-4.2-1.3-1.9 1-3 .7-4.9.6-1.9 1.3-3.9 2.6-5.6l-1.2-.3c-.3.1-.4 0-.5 0"/><text data-dist-id="d2" transform="translate(341.365 233.65)" class="st2">
                            Udalguri
                        </text><path data-dist-id="d7" class="st0" fill="#f1f5f9" d="M426.4 240.2h-.3c-2 1.1-1.4 3.6-1.9 5.5-.3 1.2-.5 2.7-1.6 3.4-1.5-.1-3.2.7-3.3 2.4.4 1.4 1.1 3.1.1 4.4-1.1.6-1.6 1.7-2.7 2.2-1.4.3-1.2-1.5-1.6-2.5-.7-.9-.8-2-.6-3.2 0-1.2.2-2.8-1.1-3.4-1.2-.9-2.7-1.8-2.6-3.5 0-1.5-1.4-2.5-2.5-3.3-1.1-.3-2.4-.9-3.2.2-.7 1.2-2.1 1.8-3 2.8-1.1.2-2 1.4-3.2.8-1.3-.2-2.6-.6-3.8-1.2-1.5-.8-1.6 1.1-1.3 2.1.8 1.2-.8 2.3-1.9 1.7-1.9-.4-3 1.4-4.6 2 0 1.7-1.6 1.1-2.4 2.1-.4 1.1-.8 2.3-1.6 3.2 0 1.9-1.4.8-2.3 1.5-.2.7 0 2.8 1.2 2.7 1.6.2 1.9 2.2 3.1 3 .4 1.3 2.6.5 2.3-.6-.1-1-.3-2.2 0-3.1.6-1-.1-2.3.9-3.1 1.3-1 3-1.1 4.5-1.2 1.2.6 2.2-.7 3.3.3.9.5 2.8-.7 2.9.5.4 1.5.2 3-.2 4.5-.9-1-2.3-.3-3.2-1.1-1.1.1-2.2-.6-3.3-.2-1.4-1-2.1.1-1.6 1.4.5 1.2-.1 2.5.6 3.8-.7 1-.5 2.4-.9 3.4-1.1.6.6 1.9-.6 3 1.5.8-.3 1.5.1 2.8.9 1 1 2.2.8 3.5-1.5.7-.8-1.6-1.9-2.1-.7-.7-.5 2-.8 2.7-1.3-.6-1.3-1.7-1.1-2.9 1-1.4-.8-2.6-.6-4.1.1-.9 1.2-2.9-.6-2.5-1.1 1.4-1.5.5-2-.7-.8-1-2.6-.1-2.6-1.8-.7-1.8-2.5-2.6-3.7-4-.8-1.1-2-.8-3-.3-1.2.5-2.6.7-3 2.1-.8 1.2-2 .5-2.7-.4-.3-1.2-.7-2.6-2.1-3-1-.6-2.4-1.1-3.4-.4-.7 1-.9 2.5-2.4 2.1-1.5.1-1.4 1.6-1.9 2.5-.7 1-2.2.4-3.3.5-1.2-.1-2.1 1.1-3.3 1-.3 1.3-1.8 1.3-2.1 2.5-.5 1.1-2 1.4-3.1 1.1-1.2-.2-2.3.7-3.2.9-1-.7-2.3-1.9-3.6-1-.3.5-.6 1.1-.5 1.8.9 1.3 1.2 1.9-.1 2.9-.2.2-.3.5-.3.7 0 1.4.5 3.4-.8 4.4-2-.7-1.4 1.7-.8 2.7.7 1.5.1 3.2 1 4.6 1.3.1.1 3.8 2.6 3.3 1.9.3.5 3.1 2.2 3.7-.4 1.9 2.5.3 2.5 2.3.3 1.8.3 3.4.1 5.3-.4 1.3 1.2 4.1-1.1 4-.4 1-.9 2-2.3 1.9-1.4-1.5-.6.8-1.8 1.3-1.6 1.3.2 3.6-.1 5.3 1.1 1.8-.8 3.2-.6 5 .8 2.8-3.3 1-3.3 3.5-1.5.9-4.3 2.4-2.4 4.5v.1c.8 1.1 2.4.1 3.5.6s1.9-.6 2.7-1.1c1-.6 2.2-.7 3.3-1.1 1.4.4 2.6-.6 3.9-.8 1.1.2 2.3.2 3.4-.1 1.1-.6 2.1-.2 3.2 0 1-.3 2.1-.3 2.6-1.2 1.1-.2 1.8-1.1 2.6-1.8.1-1.1.8-1.9 1.9-2.3 1 1.1 1.2-.5 2.1-.8 1.1-.7 2.3-.8 3.5-.9.8-.8 1.6-1.5 2.3-2.3 1.9-1.4 4.5-1.7 6.3-3.1 1-1.1 1.5.3 2.4.9 1.1 1.1 2.3-.1 3.3-.5.9-1.3 2.5-1.9 3.6-3.1-.2-1.5 1.5-.7 2.3-1.3 1-.3 1.8-1.3 2.1-2.2-.1-1.3-.1-3.1 1.1-3.9.8-.7 1.3-1.7 2.6-1.2 1-1 2-1.7 3.4-2 1.2-1.2 2.5-2.5 4.1-3.1 1.2-.1 2.1-.6 2.6-1.7-.3-1.4.3-2.8-.2-4.2-.4-1.2-.3-2.5.6-3.4.7-.7.9-2.5 2-1.4.6 1.3 1.7 2.1 2.3 3.4 1.1.3 1.9 1.2 3 1.5 1-.2 2.1-.7 3.2-.9 1.6-.1 2.6-1.5 3.3-2.8 1.2-.6 1.9-1.7 2.5-2.8.5-1 1.6-1.4 1.9-2.6 1.3-1.4.9-3.5 1.8-5.1.9-1.4 1.3-3.3 2.8-4.3 1.6 0 3.2-1 4.7 0 1 .9 2.2 1 3.5.8 1.4-1 3.1-1.9 4.9-1.9.2-.2.5-.4.7-.6-.8-1.3-2.6-.7-3.8-.4-1.6.8-2.6-1.5-.8-2 2.2-1.1.2-2.6-.4-4-1.4-.7.5-2.8-1.4-2.8-1.7-.3-.9-1.7.1-2.2.6-1.8-2.8-.2-3.7-.4-1-.4-3.5-2.4-1.3-2.5 1.8.3 1.4-1.3-.1-1.3-1.3-.2-.4-.7-.3-1.3-2.6-.7 1-2.4.5-3.9-1.3-.7-.1-2.7.9-1.3 1.3.9.4-.4-.2-.9 1.8-1.4-2.1-.8-.6-2.3-.4-.8.7-1.5.2-2.2-.9-.3-2-1.6-3.3-1.5"/><text data-dist-id="d7" transform="translate(344.161 287.188)" class="st2">
                            Darrang
                        </text><path data-dist-id="d10" class="st0" fill="#f1f5f9" d="m443.6 269.5-1.3.2h-2.1c-1.8 0-3.5.9-4.9 1.9-1.2.3-2.5.2-3.5-.8-1.4-.9-3.1 0-4.7 0-1.4 1-1.8 2.8-2.8 4.3-1 1.6-.5 3.6-1.8 5.1-.2 1.2-1.3 1.6-1.9 2.6-.6 1.1-1.3 2.2-2.5 2.8-.7 1.3-1.7 2.7-3.3 2.8-1.1.2-2.2.7-3.2.9-1.1-.2-1.9-1.2-3-1.5-.6-1.2-1.7-2.1-2.3-3.4-1.1-1.2-1.3.7-2 1.4-.9.9-1.1 2.2-.6 3.4.5 1.4 0 2.8.2 4.2-.5 1.2-1.4 1.6-2.6 1.7-1.6.6-2.9 1.8-4.1 3.1-1.4.2-2.4 1-3.4 2-1.3-.5-1.8.5-2.6 1.2-1.2.8-1.2 2.5-1.1 3.9-.4.9-1.2 1.9-2.1 2.2-.8.7-2.5-.1-2.3 1.3-1.1 1.2-2.7 1.8-3.6 3.1-1.1.4-2.3 1.6-3.3.5-.8-.6-1.3-2-2.4-.9-1.9 1.5-4.5 1.7-6.3 3.1-.8.8-1.6 1.5-2.3 2.3.4.6-.2 1 .8 2.1-.3 4.7 6.1 7.6 9.9 8 1.7.7 2.8-3 3.9 1.1 1.2-1-.3-5.1 2.1-1.1.6 3.1 5 .1 4.7 3.6 4.9-2.2-3.6 2.6 2 1.9 2.8 1.6 6.1-3.1 5.8.2.5 1.2 2.7 1.9 3 1.9-.1-.3 1-2.7 2.7.1.5 1.1.1 1.3-.3 2.4-.1 2.4.7 4.8 1.2 7.1.4 2.1-1.2 4.4 1.2 6 .6.6.3 1.2.1 1.8.4.1 1.4-.2 1.7.5 1.1-.4 2.1-.7 3.2-.4 0-.6.6-.3 1-.1 1-.3 2.1.3 3.1.7 1 .8 2 .4 3.1.2 1 .1 2.1-.3 3-.4.5.7 1-.2 1.7-.4 1.1.2 1.3-.6 1.9-1.4.5-.9.9-.1 1.4 0 .4-.2 1.2-1.1 1.4-.1.9.6 0-1.4.6-1.8.6-1.3 1.9-2 3.1-2.3.6-.5 2.3-.5 1.8-1.5.6-.5 1.9-.4 2.5-1.3 1.1-.8 1.9-1.8 2-3.2 1.5.2 1.9-2.1 3.3-1.7 1.1 0 2.5 1.2 3.4.4.6-.5 2.4-.6 1.4-1.5-.7-.9-.8-2-.8-3.1-.8-1.2-1.4-2.6-1.5-4 0-1 .4-1.8 1.4-2.3.9-.5 1.8-1.2 2.9-.9 1.5.5.7-.9.5-1.7-.3-1.2-.8-2.6-.6-3.9.1-1.2 1.1-1.3 2.1-1.4.8-.2-.6-1.5-.6-2.2-.3-1.1-.6-2.2-.1-3.3-.1-1.2.8-1.5 1.8-1.9.9-.5 1.7-.9 2.7-.7 2.1.3 4.1-.6 6.3-.5 1.8 0 3.3-1 5-1.5 1-1.3 1.3-2.9 1.2-4.5.2-1.9 1.6-3.4 1.5-5.3.4-1.2-1-1.9-1.1-3.1-.5-1.3-.3-2.7-.4-4-1.9 1.1-4.1 1.1-6.1 2.1-1.5.8-3.2 1.1-4.9 1.3-1.4-.6-2.9-.9-3.9-2.2-1.3-.9-1.4-2.6-2-3.9-.4-1.5-1.4-3-1-4.7 0-1.6.7-3.2 1.6-4.5.6-.8 1.2-1.6.4-2.5-.3-1.3-1.4-2.2-2.1-3.2-.3-1.2-.7-2.3-1.6-3.1-.7-.8-1-2.1-1.6-3.2"/><text data-dist-id="d10" transform="translate(395.701 309.163)" class="st2">
                            Morigaon
                        </text><path data-dist-id="d5" class="st0" fill="#f1f5f9" d="M588.5 235.7c-.9.4-1.8-.4-2.5.4-.7.4-.1 1.9-1.2 1.9-1.4.6-3 1.1-4.5.4-.9-.5-2.1-.2-2.4.7-1.2 1.4-1.6 3.3-1.8 5.1-.1 1.9-1.3 3.4-2.4 4.9-1.8.9-3.5 2.1-5.5 2.3-1.3.1-2.2.9-2.9 1.9-.9.8-1.2 2-1.8 3.1-1.7.1-3.5-.1-5.2.2-1.1.7-2.5.4-3.5-.4-1-.4-1.6-1.7-2.8-1.4-1.5 0-3.1.2-4.6 0-2.6.3-5.2-.2-7.7-.6-1.2-.6-2.3-1.6-3-2.8-2.5-.7-5.2-1.4-7.7-.6-1.6.7-2.1 2.7-3.5 3.6-1.1.7-2.4.6-3.6.4-.5-.2-1 .2-1.4.3-1.1.5-2 1.4-3 2-1.4.2-2.8-.9-4.2-.2-3 .8-5 3.3-7.6 4.9-1.4.2-2.8.2-4.3.3-.7 1.1-.9 2.3-1.1 3.5 0 1.2-1.4 1.7-1.2 2.9.1.9-.3 2.2-1.5 1.7-1.2-.4-2.8-.8-3.5-1.9-.2-.7.4-2.6-.8-2.2-2.6.3-3.8 2.9-5.4 4.5-1.2.9-1.9-.9-2.9-1.4-1.2-1-2.5.2-3.8 0-2.5-.1-4.6 1.4-7 1.7-1.5.5-2.9 1.2-4.4 1.6-1 0-1.9-.3-2.8-.7-1.4-.4-2.9-.3-4.3-.9-2.7-.1-5.3.6-7.8 1.6-1 .8-2.3 1.1-3.4.6-1.3-.5-2.1-1.9-2-3.2-.3-1.3-2.1-1-3.1-.8-.9.2-1.8.4-2.7.7.6 1.1.9 2.3 1.7 3.3.9.9 1.3 1.9 1.6 3.1.7 1.1 1.8 1.9 2.1 3.2.8.9.2 1.7-.4 2.5-.8 1.4-1.5 2.9-1.6 4.5-.4 1.6.6 3.1 1 4.7.6 1.3.7 3 2 3.9 1 1.2 2.5 1.6 3.9 2.2 1.6-.2 3.4-.5 4.9-1.3 1.9-1 4.2-1.1 6.1-2.1.1 1.3-.1 2.7.4 4 0 1.2 1.5 1.9 1.1 3.1.1 1.9-1.4 3.4-1.5 5.3.1 1.6-.3 3.2-1.2 4.5-1.7.5-3.2 1.5-5 1.5-2.1-.1-4.1.8-6.3.5-1-.3-1.9.2-2.7.7-.9.4-1.8.7-1.8 1.9-.5 1.1-.1 2.2.1 3.3 0 .7 1.3 2 .6 2.2-1 .1-2 .2-2.1 1.4-.2 1.3.2 2.6.6 3.9.1.8.9 2.2-.5 1.7-1.1-.3-2 .4-2.9.9-1 .5-1.3 1.3-1.4 2.3.1 1.4.7 2.8 1.5 4 0 1.1.1 2.2.8 3.1.9 1-.9 1.1-1.4 1.5l-.4.4c.7.4-.1 1.4-.5 1.7-.1.4-1 1.9 0 1.6.9.1 2-.5 2.6.4.6.7 1.3 1.4 1.6.1-.3-1.1.6-1.3 1.5-1.2.2-.7 1.1-1.1 1.4-1.8.3-.9 1.5-.1 1.6-1.1.7-.4 1.1-1.4 1.8-1.6.9-.1.5 1.6 1.5.4 1.1-.9 2.7-1.4 3.9-.4.3 1 1.1 1 1.7.3.5-.7 1.3-1.3 1.9-.4.7.9-.1 1.8-.4 2.7.1.8-.6 1.4-.3 2.2-.4 1-.5 2-.3 3.1.2.9 1.5.3 1.9.7.1 1.3 1.2.4 1.5-.3.7-.5.6-1.4 1.5-1.7.6-.7 1.5-.4 2.3-.7.8-.1 1.7.1 2 .9-.1.9.1 1.8-.2 2.6.4.9 1.3 1.5 2 2 .7.2 1.2 1.1 1.4 1.8 0 .9-.4 1.7-1 2.4-1 1-1 2.4-1.1 3.6-.3.8-.8 2 .1 2.6.6.3 1.9.2 1.3 1.2-1.2.7-2.6.9-3.6 1.9-.8.8-.1 1.3 0 2-1.1 1.6-1.8 3.3-2.8 4.9-1 .8 0 1.3.7 1.8.8.3 1.6.6 2.5.7.6-.5 1.3-.9 2.2-.6 1 .3 1.3-.7 1.7-1.4.2-1.1 1.2-.6 1.9-.7 1.2-.2 1.7-1.7 2.9-1.8.5-.6 1.6-.5 1.7-1.4.4-.9 1.4-1 2.3-1 1 .2 1.2-.6 1.4-1.3-.3-.8-.1-1.6-.4-2.4.2-.6 1.3-.8 1.7-1.5.6-.8 1.3.8 1.9.1.6.3.8-.5 1.4.5.8 0 1 1.1 1.8.6.7.4 1.4 0 1.9.1.8.5 1.2-.9.7-1.5.7-.5.6-1.6-.2-1.9-.7-1.2.1-2.6.8-3.6 1.7-.4 4.1-.4 5.9-.6.9-4-5-.8-2.8-3.3 1.9-1.9.6-4.6-.9-4.2-1.3 1.4-3.7.3-1.6-.8 1.6.9 1.7-1.9.6-2.1-.5-.8-2.8-2.1-4.1-1.7-.8-1.3 1.5-1.9.8-3.3-.9-.2-1.4-.7-3.3.1-5.7 1.4 2.3-1.9-1.8-2.7-.1-1.1.3-2.6 1.7-2.3 1.3-.1 2.2 1.6 3.5 1 1.2-.4 1.1-1.9.7-2.8-.1-1 .4-1.9 1-2.7 1.2.1 1.5-1 2.1-1.9 1-1 2.3-1 3.6-.7 1-.4 2-.5 3-.5.7-.8 1.2-2 .7-3.1-.3-1.2-.5-2.3-.8-3.5.8-1 1.7-1.9 2.8-2.5 1-.5 2-.9 3-.6.9.1 1.6.7 2.4 1 .3-1 .2-2 1.2-2.3 1.1 0 1.8-1.6 2.3-2.5.2-1.3.3-2.5 1.1-3.6 1.4.2.9 1.3 2.2 1.9 1.2.4 2.2 1.3 3.4 1.5 1.1-.4 2.5-1 2.2-2.4-.7-1 1-1.8 1.7-2.4.9-1 2-.7 2.7-.5 1-.9 2.5-1.4 3.2-2.5s.2-2.2-.1-3.4c.1-1.5-1.5-.6-2.2-1.5-.9-.7-2.5.8-2.7-.7.2-1.1 1.2-2 1.5-3 1.5-.7.3-2-.5-.8-1.5.6-1.9-.8-3.2-.7-.7 0-3.3 1.3-1.8-.1.6-1.5 1.4-.3 1.9-1.5.5-2 1-1 1.6-.6.7-.1 1.4.8 2.5-.4.9-.3 2.3-1.3 3.2-.6 1.5 1.7.8-.6 1.9-1.1 1-.8 1.5-1.7 2.8-1.9.7-1.5 1.8-.2 2.8-.6 1.1-.3 2-1.7 3.2-.8 1.6 1.1 3.6 0 4.6-1.4.8-1.4 1.4-.9 2.4-.3.1.7 1.1 3.1-.5 2.2-.5 1.8 1.3.8 2.3.8.9-.6.7-1.8 1.5-.6 1.4-.2 1.8-2.3 3.4-2.4.1-.9-1.9.7-2.7.7-2 .1-.1-1.5.9-1.5 1-.4 2.2-.8 2.9-1.7 2 .6 0 1.3-.2 2.3.5.4 1.8-1.2 2.8-1.3-.9-.5-.9-1.2-1.4-1.6.9-.6 2-1.4 2.7-2 1.3-.4 0-1.7-1.1-1.4-2-.4.4-1.2 1.3-1.3 1.1.3 2.5-2.1 1.7-1.9-1.6 2-.7-.7-.9-.5-1.8-.1.2-2.4-1.4-1.3-1 .4.9 2.7-.4 2.7-.4-1.8-1.3.6-2.1.9-1.3.8-.5.6.3 1.7-.9 1.2-.8.8-2.1 1.2-1.8.9.4-1.7-1.3-1.7-1.6 0-1.6-.4-2.3-1.6-1.9.6-1.3-1.5.2-1.5 1.3-.1 1.4-1.8 2.7-2 .4-1.6-1.5.7-2.3.4-.8 1.3-1.2-2.4-1.7-.4 1.3 1.4-.6 1.4-1.7 1.5-1.7.1-3.3.7-4.8 1.5-1 .6-2.2 1-2.8-.2 0-1.3-1-2.3.4-3-.4-1.6 1.5-1.6 2.4-2.2 1.4-.4 2.3-1.6 2.9-2.9 2 .2-1.4-1.6.5-2.1 1.2-.5 2.4-1.2 3.7-.8 1.1-.6 2.3.3 3.3-.4.8.9 2.7.4 2.1 1.9.6.6 2.5 1.1 2.9.1-1.1-1.5 1.4-.8 2.1-1.4.4-1 .8-2.3 2.1-2.7.5.9 1.5 1.9 2.6.8 1.6-.6 2.6-2.1 3.8-3.1 1.5.2 3.2.7 4 2.1-.5 1.1-1.4 2.1-2.3 2.8-1-.4-2.2.3-2.7 1.2-.9.8-2 1.3-3.1 1.8.9 1 2.2-.6 3.2-.7 1.2.1 1.9-1.7 3-1 .7 1.4 1.5 2.8 1.5 4.4 1.6 1.4 1.1-.6.5-1.6.7-.7 1.7-.3 0-1.5.4-.7 1.8-.2 1.5-1.9 1.1.8 2.2 0 3.3.9 1.2.2.6 2.5 2 2.1.9.1 3 0 3.1.8-.4.9-1.9 2.4.2 1.8-.4-.9.6-2.1 1.9-1.8.1 1.1.4 1.2 1.1 2.4 1.5.1.3-1.8 0-2.7-.7-1.4-2.5.2-3.2-1.1-1.1-1 1.1-1.5.6-2.8-.2-1.9-1.4.6-1.6 1.4-1.6.5-1.4-.2-.4-.5-.2-1-1.6-1.7-2.3-1.7 0-.7 2.8-1.3.3-1.3-.9.1-3.1.5-2.1-1 1.2-.5 1.5-2.1 2.6-2.3 1.2.5 2.2-.5 3.3-.8 1.2.5 2.4.1 3.1-1 .3-.2.8 0 1.2-.1-.1.1 0 .1-.1.2l.1-.1.3-.4-1.6-1-.1-.4.3-.7.7-2.4-1-2.2-1.3-3.4.7-.4 3 .1.9-.6.8-1.7.1-1.5-1.5-1.1-.2-1 1.3-1.2.4-.6-.4-.4v-.8l-1.3-1.1z"/><text data-dist-id="d5" transform="translate(468.903 291.43)" class="st2">
                            Nagaon
                        </text><path data-dist-id="d25" class="st0" fill="#f1f5f9" d="M506 315.6c-.8 0-1.5.4-2.2.7-1.2.6-2 1.5-2.8 2.5.2 1.2.5 2.3.8 3.5.5 1.1 0 2.3-.7 3.1-1 .1-2 .2-3 .5-1.3-.3-2.6-.3-3.6.7-.5.9-.8 1.9-2.1 1.9-.6.7-1.1 1.7-1 2.7.4.9.6 2.5-.7 2.8-1.4.6-2.2-1-3.5-1-1.4-.3-1.9 1.2-1.7 2.3 4.1.9-3.9 4.1 1.8 2.7 1.9-.8 2.4-.3 3.3-.1.7 1.4-1.6 2-.8 3.3 1.4-.4 3.6.9 4.1 1.7 1.2.2 1 3-.6 2.1-2.1 1.1.3 2.2 1.6.8 1.4-.5 2.8 2.3.9 4.2-2.2 2.4 3.7-.7 2.8 3.3-.3.4 1 .8.2 2.1-2.6.4-1.5 2-.4 3.1 1.3-.6 4.3.5-.1 2.1-.2 1.9 6.5.2 4.8 3-5.4-2.1-4.7 3.7-1.4 4.4-4.9 2 1 9.6 2.6 3.1 4.6.1-3.1 2.9 1.2 5.5-.9 4.8.5 2.3 2.7 1.6 1.3 3.6 4.3.6 5.2 1.8-.2 4.2 4.3 6 2.2 9.6 2-.4 4.7-4.6 4.3.3.3-.2.6-.3.9-.5.6-.5 1.4-.2 2.2-.4.9-.2 1.7-.3 2.6-.4 1.4-.1 2.8-.4 4.2-.6 1.1-.2 2.2-.5 3.3-.6s2.2.1 3.3-.1c.5 1 1.2 1.9 1.7 2.9.2.9 1 1.4 1.7 1.9 1 .4.6 1.5 1.1 2.3.3.9 1 1.6 1.5 2.3.8 1.8 2.2 2.8 3.5 4.2.8 1 1.8 1.6 2.7 2.5.6.7 2.1.7 2.7 1.2.4.8-.5.7-.9 1.2-.8.7-.3 1.7.6 1.5.6.8 1.1.4 1.4-.3.3-.8 1.2-.8 1.9-1 .6-.2 1.2.2 1.8-.1.3.6 1.2 1.2 1.9 1.6.5.8 2 .1 2 1.3 0 .9-.6 1.8.5 2.3.8.4 1.5 1.5 2.4 1.5.3.4 0 1.4-.1 2.1-.1.9-.8 1.5-.8 2.5 1.7-.6 4-.1 5-1.9 1.3-1.9 3.6-.9 5.5-1 1.6.9 3 .3 3.3-1.5.7-1.4.8-3 .7-4.5 1-.8 1.4-2 2.4-3.1.7-1.4.1-2.6.3-4.1.4-1.4-1.3-2.3-.5-3.6-.3-1.5 0-3.1-1.2-4.3-.4-1.5-1.3-2.6-2.6-3.4-1.3-1.4-2-3.2-3.5-4.6-1.1-1.3-2.9-2.3-2.9-4.2-.6-2.2-.7-4.7-1.8-6.6.4-1.7-1.7-1.3-1.9-2.9 0-1.4-.7-2.7-.7-4.1.3-1.4-1.1-2.4-1.6-3.7-.6-1.2-.8-2.8-2.4-3-1.1-.7-1.5-2.8-3.2-2.5-1.4-.2-3.8 1.4-2.6-1 .4-2.2 1.4-4.3 1.5-6.5-.5-.6-3.3.4-2.3-.5-1.3.3-1.3-1.8-1.9-.2-1.1-1.6-1.6-.2-2.9-.5-1-1.1-1.3-.8-2.6-1-2 .6-1.2-1.9-2-3 1-1.7-2.4.8-2.3-1.4-.7-.7-2.2.1-3.2-.9-.7-1.2-2.1-1.4-3.3-2.2-1.4-.5-2.6.1-3.4-1.6-.9-1.5-2.5.4-3.6-.4-1.7-.1-1.6-2.2-.2-2.4 1.4-.3 1.6-2.1 2.7-2.9.6-1.3 0-2.8-.3-4.1-1.1-.7-1.2-2.9-2.9-2.3-1.3-.3-2.6-.6-4-.1-2.1.2-3.9-2.1-6-.7-1.7.5-3.7 1.4-5.2 0-1.5.4-2.9-.2-4.4.1-1.3.4-3.6.9-3-1.2-.4-2.4 1.2-1.5 2.5-.8 1.3.6 2.9-1 2.4-2.2-1.4-.7-2.1-1.9-1.4-3.6.1-.7.2-1.3.3-2-.8-.3-1.5-.9-2.4-1 .1-.2-.1-.2-.4-.2"/><text data-dist-id="d25" transform="translate(513.963 371.49)" class="st2">
                            Hojai
                        </text><path data-dist-id="d16" class="st0" fill="#f1f5f9" d="M539.3 396.7c-.1-.2-.6 0-1.7.9-4.3 1.1 1.2 5.7-2.4 7.6 1.7-3.8-3.6 1.6-1.6-2-2.4-1.2-2.3-2.9-.6-4.6-1.5 0-3.4 3.5-5.9 2 .5 1.5-.7 3-.2 4.6-.9 2.2-5.5 2.8-6.7 4.1-1 1.3-6.4.4-8.7 2.4-1.2.9-3.3.5-1.9 2.7.4 2-.8 4.8-2.3 5.6-1.8.1-1.2 2.9-3.4 3-2.6.7-1.9 3.4.3 4.1.3 2.4-2.2 3.7-3.6 5.2-2 .7-1.3 1.7.3 2.4.1 2.4-3.4 0-2.9 2.9-.3 2.1-4.5 3.7-5.6 1.9-1.6-2-4.3-.4-5.6 1.3-.8 1.1 1.2 2.7-1.3 2.4-.8-.2-1.8.3-2.2.6 0 .1-.5 2.1-1.7 2.1-.9.3-1 1.1-1.1 2.1.3 3.2-.8 2.7-1.8 3.6-1 .7-1 1.6-1.6 2.3-.5.5-1.3.5-1.9.6-1 1.2-2.1 1.3-3.3 2.4-1.1.6-1.9 1.1-2.6 2.2-.4 1.2-3 4.6-.6 4.4.6-.8 2.1-2.7 1.9-.5 1.3-1.2 3.8-.7 2.5 1.4-.7 1.6 2.1 1.7.8 3.4.6 1.6-.2 4 1 5.1.7-1.4 1.5-2.4 3.1-1.7-.2-1.2-1.1-3.3.8-1.6.6.7.7 3.4 1.6 1.4.4-1 2.5-3 1.3-.6-.5 1.8 2.3 5.5 2.5 2.1 1.8-.1 2.5 2.3 4.2 3 .2 1.8 1.1 2.9 2.9 2.4.2 1.6 1.2 3 2.6 1.3 1.2-.8 3.1-.4 1.3 1-1.4 1.4 2.2.3.7 2.1 1.5.7 2.3 1.8 2.3 3.5 1.1 2.5 3.2-.2 4.7 1.5 1.5 1.2 1.2 3.8.1 5 .4 2.1 3.2 4.6.3 6-1.4.5-2.5 1.6-.7 2.6.1 2.1-3.9 1.6-1.5 3.8.3 1.9 2 2.6 3.4 1 2.1-.8 4.1.2 6.1-.7 2.3 1.4-2.6 2.8-2 4.9-1.4 1.8-4.5-1.7-5.8 1.6-1.2.9-2.5-.8-3.8.3-1.2-.6-2.6-1.8-3.1.1-2.5.6-3.2.4-4.3 1.9-.8.1-1.5-.4-2.5 1-.9 1.4-.6.8-2.5 1.4-.4-.7-.8-.8-1.3 0-1.7 0-1.6 1.9-1.9 3.1-.2 1.2-1.2 1.7-2.3 1.7-1.1.6-1.8 1.7-2.2 2.8-.4 1-.1 2.1-.9 2.9-1 1.5-2.3-1-3.6-.7-1.2.4-1.6-.9-2.8-1-1.1-.7-2.4.2-3.6-.2-1.4.5-3-.1-4-1-.6.2-1 .6-1.7 0-.7-1.2-1.1-.2-.9.8-.3 1.2.7 1.6 1 2.5 0 1.5 1.6 2.1 1.9 3.5.6-.9 1.9-1.7 3.2-1 1.7.9 3.6-.6 5.4-.6 1.2-1.6 2.3.1 3.5.6 1.1.4 2-1.2 3.1-1.3.3-1.5 2.6-1.9 3.3-.5 1.2-.5 2.2 1.6 3.5.6 1-1.3 2.5-.9 3.4.1 1.5.6 2-2.4 3.4-1.2 1.2 1.6 1.5-1.3 2.8-1.6.4-1.2-1.5-2.2-.6-3.5 1 .4 1.7 1.6 3 1.2 1.5-1.1.8 2.2 2.2 2.7 1 1.2-.1 2.9.9 3.9 1.3 1 1.8 3.4 3.8 2.8 2.2-.3 3.9 1.6 5.7 2.6.4 1.2.1 3 1.8 3.3 1.5 0 2.3-1.9 3.7-1.8 1.1-.6 2.5-.1 3.7-.9 1.3-2.5 4.7-2.5 7.1-1.9 1.6-.1 2.2 1.7 3.6 1.5 1.5-.6-.2-3.1 1.7-3.3 1.4-.3 2.9 1.5 3.8-.4.9-1.3 2.8-.8 4.2-1 1.6.6 2-1.3 3.6-1.4 1.3-.3 3.4.5 2.2 2-1 1.4-2 3.2-3.8 3.5-.8 1.4-1.3 2.7.3 3.8.5 1.4 1.9 2.1 2.7 3.2 1.6.2 2.1 1.8 3.1 2.4 1.1 1.4-1.2 2.3.3 3.5 1.2.1 1.5 1.6 3.2 1.2 5.1.1 10.3-.1 15.4.2 1.7-.1 2 .1 2.6.9 1.7-.3.5 1.9 2.3 2 1.3-.3 1.9-1.7 3.2-.7 2.3-.5-.7 2.1 1.5 1.9.8-1.4 1.2 2.4 2.4.7l.2-.2.2-.1v-.1l.1-.1c-.1-.8 0-1.2-.1-2.1.1-.6 1.1-1.5.5-2.2-.3-.7 1.6.2 1.1-1.1-.8-.2-1 1.1-1.5-.1-.1.9-1.4.8-1-.1-.1-.9 1.2-1.6.3-2.2.6-.5 2.1-.5 1.2-1.6-.3-.7 1.3-1.1 1.2-2-.7-1 1.5-1 .6-2 .8-.3 1.9-.4 2.7-.4.1 1.1 1.4.9 2.1.6.6-1.4.7-.4 1.2 0-.3-1 .1-1.6.6-2.1-.5-.8-.2-1.8.4-2.4.1-1.3 1.2-2 1.9-3 .1-1 1.4-1 2.2-1.3.2-.9.5-1.8.6-2.7 0-.9 1-1.1.8-2.1 1.1-.8 0-.8.4-1.8.3-.8-.1-1.5.6-2.3-.3-.9-.4-1.8-.4-2.7-.4-.9.3-1.6.4-2.5.1-1.3.9-2.4 1.7-3.5.1-1.1 1.6-1.2 1.6-2.2-.5-1 .8-1.5 1.2-2.2 0-1 1.1-1.4 1.2-2.3.8-.9-.1-2.2.5-3.2 1-.7 1.6-1.8 2.2-2.8.4-1 1.5-.2 2.2-.7 1-.1 1.3-1.3 1.2-2.1.2-1.2 1.8-1.3 2.6-2 .7-1.1 2-1.5 3.2-1.3 1.1-.5 1.7-1.8 2.4-2.7-.1-.1-.2-.2-.3-.2-.8-.6-1.2-1.4-1.8-2.1-.7-.4-.8-1-.4-1.7.6-.7.5-1.6-.4-2-.9-.2-.6-.9-.2-1.5.6-.7 1-1.6 1.8-2.2.4-.7.9-1.5 1.3-2.2.5-.7.9-1.4.6-2.3-.5-1.3-1.4-2.4-1.9-3.7-.7-.9.2-1.7-.1-2.6 0-.9-.6-1.5-1-2.3-.6-.7-2.1-.6-2.8-2-1.4-1.2-3 .4-4.6-.3-1.9-2.1-4.1-2.3-3.4-5 .2-.6-1-1.4-1.2-2.1-.2-.5-.2-2.1-1.9-2.6.4-1.8-2.7-2-2.9-4.2-.1-1.4-3.6 0-4.2-5.5-.4.7-1.1 2-1.6 2.7-1.3.8-3.1 1-3.3-1.1s-1.9-.2-2.6.6c-.7 1.6-2.7 1.2-2.7-.5.2-2-2.4-1.2-3.6-1.3-1.6.7-2.9-.4-4.4-.5-.7 2-1.3-.3-1.7-1.2-1.1 0-1.1-.6-.8-1.5-2.1-.2-1.3-3.1-2.7-3.7-.4-1.1-2.2-1.7-2-2.9 2.1-.4.3-2.6 1.7-3.7 2.1-1 .8-3-.4-4.2-1.4-.9-.8-2.8-2.3-3.4-1.4-.5-3.4.5-4.3-1.1-.5-1.6-1.9-3.3-.5-4.7.1-1.3-.3-3.1 1.1-4 0-.9.6-1.6.8-2.5.1-.6.4-1.6.1-2.1-.9 0-1.6-1.1-2.4-1.5-1.1-.5-.5-1.4-.5-2.3.1-1.2-1.4-.5-2-1.3-.7-.4-1.6-1-1.9-1.6-.6.3-1.2-.1-1.8.1-.7.2-1.6.2-1.9 1-.3.7-.8 1.1-1.4.3-.9.1-1.4-.9-.6-1.5l-1.5-.6-1.3-.6c-.7-.7-2.9-2.8-5.1-1.9-.8-4.5-2.4 4.3-3.8.2-1.8-1.8.7-5.9.3-6.5"/><text data-dist-id="d16" transform="translate(508.37 484.957)" class="st2">
                            Dima Hasao
                        </text><path data-dist-id="d21" class="st0" fill="#f1f5f9" d="M495 522.3c-.8 1.3 1.1 2.3.6 3.5-1.3.3-1.6 3.2-2.8 1.6-1.4-1.2-1.9 1.7-3.4 1.2-1-.9-2.5-1.4-3.4-.1-1.3 1-2.3-1.1-3.5-.6-.7-1.4-3-.9-3.3.5-1.1.1-2 1.7-3.1 1.3-1.3-.5-2.3-2.2-3.5-.6-1.8 0-3.7 1.5-5.4.6-1.3-.7-2.6.1-3.2 1-.7.1-1.1-.1-1.6-.7-1.3-.9-3 0-4.4-.5-1.1-.6-2.3-.3-3.4-.3-.7.6-1 1.9-.9 2.9.3 1.3-.6 2.3-.8 3.6-.9 1-1 2.9-2.4 3.3-.4 1.1 1.1.8.7 2 .5 1.6-1.6 2.4-2.1.7-1.6-1.2-1.7 1.7-3.2 1.4.1.3.2.5.3.8-.1.6-.4 1.2-.3 1.8.1.5-.2 1-.2 1.5s-.6.7-.9 1.1c-.6.8-1.1 1.7-1.5 2.6 3.4-.2-1.9 6.8 3.4 4.3 2.1.8 4.7-1.7 5.4 1.4-.9 1.6-4.8.6-3.4 3.5 2.7.2 4.5-.9 6.7-1.3-2 3.5.7 5.3 1.4 7.8-2.1 1.6 1.1 4-1.6 5.2 3.1.8 5.6-3.4 5.3 1.4.5 1.8 2.6.4 3.6-.4 1.8-2.4 3.5-.8 4.6-.8.7.1 2.7 0 3.5-.4 1.6-1.6.6 1.8 2.3 1.9.5 1.5 3.3 1.7 4.6 2.5 1.4 1.3-.2 4 .5 4.9.1.3.2.7.3 1 .8-.1 1.5.5 2.2.7 1.3.9 3-.4 4.3.3.4.5 1 1.2.7 1.9-.5.8-1.3 1.5-1.9 2.2-.8.3-.5 1.3-.8 1.9-.4.9.2 1.8-.1 2.7-.2.7-.3 1.5-.7 2.1-.8 1.7-1.3 3.7-.9 5.6.2.8.4 1.5.4 2.3-.1 1.2 0 2.5-.4 3.6-.2 1 .2 2 .2 3 .1.7.3 1.7 1.2 1.3.6.2 0 1.5.6 2 0 1.6-.6 3.1-.1 4.7.2.7.2 1.7 1.2 1.3.7-.7 1.4-.2 2 .3.5.4 1.5.9 1.3 1.5-.7.4-1.2.9-2 .9-.7.3-1.3.5-2.1.3-.5.4.3 1.3.4 1.9-.1.6-.9 1.3-.3 1.9.4.5.7 1.5 1.5 1.3 1.4 0 2.3 1.1 3.2 2 .5.5.7 1.7 1.5.9.6-.4 1.5-.8 1.7.1 1.2-.6 1.7-1.9 2.4-2.9 0-.6.5-1.6 1.1-.7.5.2 1.3.2 1.9.4.7-.2 1.1.8 1.4 1.3.3.6.2 2 1.2 1.3.5-.2 1.8-.7 1.9 0 .1.9.2 1.5-.5 2-.5.5-1 1.4-.3 1.9-.4.7-.8 1.3-1.3 2-.6.7-.8 1.5-1.1 2.3-.6.7 0 1 .7.9.1.3.2.6.4 1 .8 2.4 1.9 4.8 2.4 7.4q.45 1.05.6 2.1c.6 1.3 1 2.7 1.4 4.1.3 1 .8 1.8 1.3 2.6.3.5.5 1.4-.4 1.1-.1.8.8.4 1.2.3.4.3.3 1 .6 1.2.5.4 1.3-.1 1.3.8.2 1 1.6.9 1.9 1.8-2.4 1.7-.5 2.7-.6 3.2-.2.6.5 1.3 1 .9s1-.9 1.6-.5c.7-.5.8-1.5 1.2-2.3.6-.2.8-.8 1.3-1.1.8-.7 1.8.6 2.6.1.6-.1 1-.8 1.5-.9.5.2 1.3-.2 1.3.7 0 .8.7.8 1.3 1 .7 0 .8-.5.8-1.1.6-.6.7-1.4.8-2.1.1-.6.9.5 1.3.6.7.3.5.9 1.1 1.2.1.7.9.8 1.4 1 .7.3.4-.9 1-1 .7.1 1.3-.8 2-.6.5.4.6 1.2 1.1 1.6.6-.4 1.4-.6 1.8-1.2.3-.6.7-1.1 1.4-1.3.5.3 1 .3 1.5.5.6.1.7 1.1 1.3.9.6-.4 1.5-.6 2.2-.9-.9-3.6.5-.6 2.2-.1 5.9-.5-.3-3.7 1.9-6.6-1.6-3.8 4.1-4.3.4-8-4.4-2.3 2.9-2.9-.3-4.3 3.8-1.7.1-5.3 3.3-8.4.7 2.7 2.8.1 1.7-1.8-4-4.6 3.8.7 3.9-3 4 .6.9-3-1.4-1.9-5.2-.9 2.8-4.7-1.1-5.6 1.4-1.6 2.8-1.9 1.2-4.7 1.8-1.2 2.3-3 3.4-5.6-3.7.5-1.2-.8-3.1-3.3-1.5-1.3-1.9-2.5-1.1-3.6.6.3 1.2.7 1.8 1 1.2-1.5.6-3.2 1.8-4.5 1.5-.1 1.1-3.4.3-1.7-.8-.3-.1-1.9 0-2.7 1.5-1.4-.5-3 .3-4.2.4-1.2 1.2-2.6 1.4-4.2-1.2-1.2 1-3.1 1.7-2.6-1.4 1.6 1.7 2.7 2.3 1.1.2 1.4 1.2 2.1 2.3 2.7.3 2.3 1.6-.4 2.7-.7 1.2-1.5 1.1.8 1.9.6-.2-2.2 2.5-1 3-2.9-.4-1.1-1.6-2.4-.3-3.7-.6-.1-.8-1.1.3-.9 1.5-.4-.9-.7-.4-1.5.9.2 1.5 0 .8-1.1-1.3-1.7.8-.5 1.4-1.2 1.2-1 1.8-2.7 3.1-3.6-.9-1.1.7-1.1 1.1-2-.7-1-.5-1.4.1-2.5 1.7.5 1.4-1.5.7-2.5 1.7.6 2.9-1.2 1.6-2.7-2 .3.1-1.3-.4-1.9-1.5 1.3-1.2-1.1.1-.6 2.3 1.2-1.1-3.2 1.2-1.9 1.8 1.4.4-.9 1.3-1.8.4-1.5-1.3-1.4-1.6-2.1l-.2.1-.2.2c-1.1 1.7-1.6-2.1-2.4-.7-2.2.2.7-2.5-1.5-1.9-1.3-1-2 .4-3.2.7-1.8-.1-.5-2.3-2.3-2-.6-.8-.8-.9-2.6-.9-5.1-.4-10.2-.1-15.4-.2-1.7.5-2-1.1-3.2-1.2-1.5-1.2.8-2.1-.3-3.5-1-.6-1.6-2.2-3.1-2.4-.7-1.1-2.1-1.8-2.7-3.2-1.6-1-1.1-2.4-.3-3.8 1.8-.3 2.8-2.1 3.8-3.5 1.2-1.5-1-2.3-2.2-2-1.6.1-2 2-3.6 1.4-1.4.2-3.3-.3-4.2 1-.8 1.9-2.4.1-3.8.4-1.9.2-.2 2.7-1.7 3.3-1.4.2-2.1-1.6-3.6-1.5-2.4-.6-5.8-.6-7.1 1.9-1.2.8-2.5.2-3.7.9-1.5-.1-2.3 1.8-3.7 1.8-1.7-.3-1.4-2.2-1.8-3.3-1.8-.9-3.5-2.9-5.7-2.6-2 .7-2.5-1.8-3.8-2.8-1-1 0-2.7-.9-3.9-1.4-.5-.7-3.8-2.2-2.7-1.2 1-1.8-.1-2.9-.5"/><text data-dist-id="d21" transform="translate(492.55 581.577)" class="st2">
                            Cachar
                        </text><path data-dist-id="d23" class="st0" fill="#f1f5f9" d="M473 571.1c-.2-.1-.4 0-.8.4-.8.4-2.9.5-3.5.4 1.2 2.4 1.9 5.6-.2 7.7-.5 1.3-1 2.7-2.5 3.3-1.2 1.7-2.1 3.7-1.4 5.8.5 1.3-1 2.3-.1 3.7-.5 1.5-2 2.3-3.1 3.3-.8 1.1-.5 2.5-.6 3.8-.6 1-1.1 2.2-2 2.8-1 1.5-.6 3.5-1.9 4.8-.8 1.6.6 2.7 1 4.1-.3 1.3.2 2.7.2 4-.1 1.5.6 2.4.6 3.3-.5 1.2.5 3.5-.7 3.5-.3 1.7.6 3.1 1.4 4.6 1 .6.8 2.4.6 3.6-.2 2.3-2 4.3-1.1 6.6-.7 1.7-.3 3.4-.3 5.1-.9 1.4.9 2.7 0 4.1-.2 1.9-.5 3.9-.3 5.8-.4 2.5-1 5.1-1.2 7.7-1.1 1.4-.1 3.3-1.2 4.8.1 2.2-1.9 3.9-1.8 6.2-.5 3.9-2.5 7.2-4.7 10.4-.5 1.4-1.7 2.2-2.4 3.5-.5 1.2-.9 3-2.5 2.5 0 .5 0 1-.1 1.4-.1 1.7-.8 3.5-.3 5.1-.6 1-.1 2.1-.1 3.2-.5 1.3.6 2.5 1.8 2.9 1.3.4.1 2.1 1.3 2.7-.4 1.1-.5 2.1-.3 3.3.9.1 1.7-.1 2.1 1.3 1 .2 1.8 1.1 2.6 1.7.5.7 1.2-1.4 1.9-1 1.6.7-.1-1.2.7-1.7.6-.7.1-1 .7-1.9.9-.3 2.2.9 2.9-.2-.3-2.1 1.8.9 1.5-.4-1.2-1.3 1-.5.4-1.9.7-.6 1.8 1.1 2.5-.2.9-.8 0-1.4.7-2.5.9-1-.1-2.1.9-2.9.7-.9.1-2.1 1-2.9.6-1.1 0-2.3.3-3.4 0-1.5 1.6-1.3 2.6-1.9 1.3 0 2.7 1 4 .9.9-.6 1.7-1.1 2.9-.8 1.5-.6 1.5-2.6 1.6-4.1 0-1 1.1-2.4.2-3.2-.1-1 .2-2.1.2-3.1.2-1.4 1-2.6.8-4-.3-1.7 1.2-.8 2-1.5.6.1.1 1.3 1.3 1.5.3-1 .7-.1 1.1-.6 0-.6 1.2-1.4 1.1-2.4 1-.2.9-.2 1.8-.6.6-1.3 2.3.5 2.5-.6 1.2-.3 1.2-1.6 1.5-2.5.3-.6.1-1.8.9-2.2 1.7.2.1-1.7 1.3-2.2.1-1 .5-2 1-3 .7-.8-.3-2 .9-2.5.5-2.2 1-4.3 1.8-6.4 1.1-2.4 2.5-4.6 3.3-7.1.2-1 .9-2 .7-3 .4-.9 1.6-1.6 1.8-2.8-.6.1-1.2-.1-.7-.9.3-.8.5-1.6 1.1-2.3.4-.7.8-1.3 1.3-2-.7-.6-.2-1.4.3-1.9.7-.5.6-1.2.5-2-.1-.7-1.4-.2-1.9 0-1 .7-.9-.7-1.2-1.3-.3-.5-.7-1.6-1.4-1.3-.6-.2-1.4-.2-1.9-.4-.6-.9-1.1 0-1.1.7-.7 1-1.2 2.3-2.4 2.9-.1-.9-1.1-.5-1.7-.1-.9.8-1-.4-1.5-.9-1-.8-1.8-2-3.2-2-.8.2-1.1-.8-1.5-1.3-.6-.7.2-1.4.3-1.9-.1-.6-.9-1.5-.4-1.9.8.1 1.4 0 2.1-.3.8 0 1.4-.6 2-.9.1-.7-.8-1.2-1.3-1.5-.6-.5-1.3-1-2-.3-1 .4-1.1-.6-1.2-1.3-.5-1.5.1-3.1.1-4.7-.7-.5 0-1.8-.6-2-.9.4-1.1-.6-1.2-1.3 0-1-.4-2.1-.2-3 .5-1.1.3-2.4.4-3.6 0-.8-.2-1.5-.4-2.3-.4-1.9.1-3.8.9-5.6.4-.7.5-1.4.7-2.1.3-.8-.2-1.8.1-2.7.3-.6 0-1.6.8-1.9.6-.7 1.4-1.4 1.9-2.2.3-.7-.3-1.4-.7-1.9-1.3-.7-3 .6-4.3-.3-.7-.2-1.4-.8-2.2-.7-.1-.3-.2-.7-.3-1-.8-.9.9-3.6-.5-4.9-1.3-.8-4.1-1-4.6-2.5-1.3-.4-1-2.4-1.4-2.7"/><text data-dist-id="d23" transform="translate(481.796 687.346)" class="st2">
                            Hailakandi
                        </text><path data-dist-id="d22" class="st0" fill="#f1f5f9" d="M424 564.3c-1.2 0-2.7 1.7-3.3 2.3-2.6-.5-5.4-1.4-7.5.7 1.6.3.3 2.2 2.3 2.3 1.6 1.8-.7 3.3-1.5 4.9 1.5 1.3.1 4.7 3.1 4.4-1.1 1-1 1.8.4 1.3 2.7-.4 3 2 3.2 3.8-1.1 1.7.3 2.1.7 3.5 2.7.8.2 3 .1 4.7 3.1 1-1.8 3.5.6 4.7 3.2.6.3 3.3-.8 4.9-.9 2.1-2.9 4.1-3.3 6-1.3.7-.3 1.6-.8 2.6-1.6 1.9-.7 3.7-1.2 5.9-.6 2.8-1.5 5.6-2 8.4-.4 2.7-.6 5.4-.6 8.2.4 2.8-1.2 4.8-2.5 6.9.7.1.8.5.9 1.1.5 0 1.5.7 1.5.1-.2-1 .5 0 .6.5.2.6.2 1.2.8 1.6-.4.6-1.1 1.1-1.4 1.8-.2.5-.4 1.2-.3 1.7.3.6.4 1.2.3 1.9.3.5 1 .9.8 1.7.1.8 1 1.1 1.6 1.6s1.3.8 1.7 1.3c.3 1-.2 2.1-.1 3.2.3.7.9 1.2 1.1 1.9-.2.6.1 1.3.2 1.9.6.2 1.2.5 1 1.2.7.4.3 1.1-.1 1.6.5.4.4 1-.2 1.3-.4.5.3 1.4-.4 1.8-.8 1.2-1.1 2.6-1.7 3.9l-7 17.5c2.6-.1 5.3-.2 7.9-.2 1.7-.1 3.4-.3 5.1-.2l.6-.1 20.5-.2c1.6.5 2.1-1.3 2.5-2.5.6-1.2 1.9-2.1 2.4-3.5 2.2-3.1 4.2-6.5 4.7-10.4-.1-2.3 2-4 1.8-6.2 1-1.5 0-3.3 1.2-4.8.1-2.6.7-5.1 1.2-7.7-.2-2 .1-3.9.3-5.8.9-1.5-.9-2.7 0-4.1 0-1.7-.4-3.5.3-5.1-.9-2.3.9-4.3 1.1-6.6.2-1.1.4-3-.6-3.6-.8-1.4-1.7-2.8-1.4-4.6 1.3 0 .2-2.3.7-3.5-.1-1-.8-1.8-.6-3.3 0-1.3-.5-2.7-.2-4-.4-1.4-1.8-2.6-1-4.1 1.4-1.3.9-3.3 1.9-4.8.9-.6 1.5-1.8 2-2.8 0-1.3-.3-2.8.6-3.8 1.1-1 2.7-1.9 3.1-3.3-.8-1.4.7-2.4.1-3.7-.8-2.1.2-4.1 1.4-5.8 1.4-.6 1.9-1.9 2.5-3.3 2-2.1 1.4-5.3.2-7.7-1.2 0-2.8-1.6-4.6.8-1 .8-3.1 2.2-3.6.4.2-4.8-2.2-.6-5.3-1.4-.7.7-.3 2.1-.9 2.7-1.8-1.7-4.8-3.3-7.1-1.1 1.3 2.4-2.3 3.8-3.9 2.1-2.5-2.4-1.6 3-3.7 1.1-2.4.7-.8-2-2.6-2.4.2-1.6-.9-2.7-2.3-1.4.1-1.9-2.1-1.4-2.2-3.5-.6-1.8-1.4-1-.8.5 1.2 3.6-3.2.2-2.4-1.6-1.9 1-4.8-.6-4-3.2-.3-.3-.7-.4-1.1-.4"/><text data-dist-id="d22" transform="translate(339.219 625.809)" class="st2">
                            Karimganj
                        </text><path data-dist-id="d1" class="st0" fill="#f1f5f9" d="M483.1 173.6c-.9 0-1 1.8-1.6 2.4-1.5.6-2.1 1.4-.9 2.8-.3 1.4.3 2.7.2 4.1-2.6 1.2-5.2 2.5-7.8 3.7-2.2 1.4-4.8 1.2-7.2 1.6-2.6-.7-5.3-.8-7.9-1.4-3 .6-6 .3-9 1-1.2.3-1.7 1.8-2.8 2.4-.8 1.2-2.2.9-3.4.7l-1.9 3.4c-1.9-.5-4-.4-5.8-1.2-1.2 1.7-2 3.7-2.6 5.6.3 1.9-2 3-.7 4.9-.4 1.4.6 3-.6 4.2-.6 1.3-2.2 3.2-.8 4.6.8.7-1.3.7-.7 1.8.2.8.8 1.3-.2 2 .1 1.1.7 2 .9 3 .8.9-.6 2.2.7 3.1.5 1.1-2.5-.5-1.2 1.1 1.7.4-1.4 1.7-.5 3 .5 1.1-.8 2.4.8 3 .1 1.8 1 3.6.3 5.4.4 1.4-.6 2.7-.2 4.1.5 1.1-.5 2.1-.1 2.9.5.6-.6 1.4-.2 2.2-1.5 1.5 2.4.9.6 2.3.6.5 1.5 1.8.2.9-1-1.4-2.2.6-.9 1.3.5 1.4-3.1 3.2-.5 3.9-.1.6-1 1.1.3 1.3 1.5.1 1.9 1.7.1 1.3-2.2.1.3 2.1 1.3 2.5.9.2 4.3-1.4 3.7.4-1 .4-1.8 1.9-.1 2.2 1.8 0-.1 2.1 1.4 2.8.5 1.5 2.5 3 .4 4-1.9.5-.9 2.8.8 2 1.3-.4 3-1 3.8.4-.2.2-.5.4-.7.6h2.1l1.3-.2c.9-.2 1.8-.4 2.7-.7 1-.2 2.7-.5 3.1.8-.1 1.4.8 2.7 2 3.2 1.2.6 2.5.3 3.4-.6 2.5-1 5.1-1.7 7.8-1.6 1.4.6 2.9.5 4.3.9.9.4 1.8.7 2.8.7 1.5-.4 2.9-1.1 4.4-1.6 2.4-.3 4.6-1.8 7-1.7 1.3.2 2.6-1 3.8 0 1 .4 1.7 2.3 2.9 1.4 1.6-1.6 2.9-4.2 5.4-4.5 1.2-.4.7 1.5.8 2.2.7 1.1 2.3 1.5 3.5 1.9 1.1.5 1.5-.8 1.5-1.7-.3-1.2 1.2-1.7 1.2-2.9.2-1.2.4-2.4 1.1-3.5 1.4-.1 2.8-.1 4.3-.3 2.6-1.5 4.6-4.1 7.6-4.9 1.4-.7 2.8.4 4.2.2 1-.6 1.9-1.4 3-2-1.6-1.3-.9-2-1.7-3.3-1-1-.5-2.5-1-3.7.4-1.4-.5-2.8-1-4.1.3-.7.4-1.5.1-2.3.3-1-.2-2-.1-3.1.3-1.4-.6-2.7-.8-4.1-.6-1-1.1-2.2-.6-3.3.7-1.3-.3-2.9.7-4.1.8-.3.8-1.3 1.4-1.7.6-.5.4-1.5 1.1-2 .6-1 .4-2.1.3-3.1.1-1.2.3-2.3-.1-3.5-.3-2.5-1.9-4.7-2.1-7.3-.3-.9.1-1.6.6-2.3.4-.9 1.4-1.6 1.2-2.7.5-1 .6-2.7 2.1-2.9.8-.5 1.7-.9 2.6-1.3.7-.5 1.3-1.1 2.2-1.4.2-.9.8-1.6 1.6-2.1.9-.8 2.3-.7 3.1-1.6.7-.5 1.4-1.2 2.3-1.1 1.2.3 2.2-.8 3-1.6-2.5-2.2-6.1-2.6-8.8-4.6-1.3-.2-2.2-1.4-1.8-2.7.6-1.5-.4-2.3-1.6-3.1-1.4-1.4-3.4-1.3-4.9-2.6-2.5-1.1-5.6-.6-8-2.1-3-1-5.9-2.4-9-2.7-3.1.2-6.2.5-9.2 1.1-2.9-.2-5.7-1.2-8.5-2.1z"/><text data-dist-id="d1" transform="translate(443.645 234.45)" class="st2">
                            Sonitpur
                        </text><path data-dist-id="d24" class="st0" fill="#f1f5f9" d="M652.2 181.5q-.15 0 0 0c-1 1.6-2.4 2.8-3.5 4.2-1.8.8-3.9 1-5.9 1.3-2.6-.2-4.8 1-7.2 1.7-1.5.7-3.1.2-4.7.3-4.4.3-8.6 1.4-12.7 2.8-.4-1.7-2.2.4-3.5-.1-.9-1.1-2.2-1.9-3.3-2.8-5.4-1.1-10.9-.9-16.3-1.6-7.2.8-14.6 1.1-21.7 3-4.9 1.8-10 2.3-15.1 3.3-1.9 0-3.3 1.2-4.7 2.3-1.3.1-2.8-.6-3.9-1.4-2 .9-4.2 1-6.4 1.2-1.8.6-3.1-1-4.5-1.8-1.1-.7-2.3-1.4-3.5-1.5-.8.9-1.8 1.9-3 1.6-.9-.1-1.6.6-2.3 1.1-.8 1-2.2.9-3.1 1.6-.8.4-1.4 1.2-1.6 2.1-.8.3-1.5.9-2.2 1.4-.9.4-1.8.8-2.6 1.3-1.4.1-1.5 1.8-2.1 2.9.2 1.1-.8 1.7-1.2 2.7-.5.7-.9 1.4-.6 2.3.2 2.5 1.8 4.7 2.1 7.3.4 1.1.2 2.3.1 3.5.1 1.1.3 2.2-.3 3.1-.7.5-.5 1.4-1.1 2-.6.5-.6 1.4-1.4 1.7-1 1.2 0 2.8-.7 4.1-.4 1.2.1 2.3.6 3.3.2 1.4 1.1 2.6.8 4.1-.1 1 .4 2 .1 3.1.3.8.2 1.5-.1 2.3.5 1.3 1.4 2.6 1 4.1.5 1.2 0 2.7 1 3.7.8 1.3.1 2 1.7 3.3.5-.2.9-.5 1.4-.3 1.2.2 2.5.3 3.6-.4 1.4-.9 1.9-2.9 3.5-3.6 2.5-.7 5.2-.1 7.7.6.7 1.2 1.7 2.1 3 2.8 2.6.4 5.1.9 7.7.6 1.5.2 3.1 0 4.6 0 1.2-.3 1.8 1 2.8 1.4 1 .7 2.4 1 3.5.4 1.7-.3 3.5-.1 5.2-.2.6-1 .8-2.3 1.8-3.1.7-1 1.7-1.7 2.9-1.9 2-.3 3.7-1.5 5.5-2.3 1-1.5 2.2-3.1 2.4-4.9s.6-3.6 1.8-5.1c.4-1 1.6-1.2 2.4-.7 1.5.7 3.1.2 4.5-.4 1.2 0 .5-1.5 1.2-1.9.7-.8 1.6 0 2.5-.4.8-.4 1.8-.5 2.4-1.3.6-.6 1.9.1 2.4-.7.7-.9.6-2.2 1.2-3.2.7-1.7 2.6-2.3 4.2-2.9 1.7-.4 3.2-1.1 4.8-1.8 1.3-.9 2.2.9 3.5.9 1.2.4 2.5.4 3.7.1 1.1-1.4 2.8-2.1 4.5-2.4 1.7.1 3.5.6 5.2 0 1.3-.7 2.4.7 3.7.8 1 0 1.8.4 2.3 1.2.7 1.3 2 2.1 3.5 2.2.2.6-.7 1.9.6 2.2 2.2.7 4.5 1.2 6.8 1.8 1.9.2 3.7 1.2 5.5 1.6 1 .3 1.9.2 2.6-.6.8-.5 1.5-1.2 2.5-.7-.3-.9-.4-1.9-.8-2.7-1.3-1.9-1.4-4.3-2.1-6.5-.3-1.6-1.5-3.3-.7-4.9 1.2-.5 2.2-1.3 3.3-2 1 0 2 .6 3 .8 1.3 0 1.8-1.3 2.4-2.2.6-.5.8-2 1.8-1.9 2.1.1 3.9 1.5 5.1 3.1l1.7-1.1 2.3-.1 1.9-.5 1.4-.7.7-1.5-4.6-2.8 1.1-1.3.1-1 1.1-.4 1.5-1.1-.1-.2-.1-.2c-.4-1.2-1.1-2.3-1.1-3.5-.1-1.6-1.8-2.1-3.1-2.3-1.7.1-3-1.1-3-2.8.8-1.1 1.5-2.4.8-3.8-.7-1.6-.1-3.3-.6-5-.1-2-2.7-2.1-3.1-3.8-1.6-.9-3.6-1.2-4.5-2.9"/><text data-dist-id="d24" transform="translate(527.547 220.865)" class="st2">
                            Biswanath
                        </text><path data-dist-id="d26" class="st0" fill="#f1f5f9" d="M620.2 252h-.1c-.4.1-.9.6-1.6 1-1.5-.6-4.2 2.2-2.2 2.8 2.1-1.2 3.8.5.9 1.1-1.7-.7-3.4 4-3.5 1.8 1.5-2 .6-3.2-.5-.5-.5-.6-.9-.9-3-.1-1.9-.1-3.7 1-5.2 1.3-2-.1.4-2.5-2-1.9-2.4 1-4.7-.9-7.2-.5-1.9.2-4.3-.8-5.9.5 0 .7-4.2 1.8-2.3.2-.4.1-.9-.1-1.2.1-.7 1.1-1.9 1.4-3.1 1-1.1.2-2.1 1.2-3.3.8-1 .2-1.4 1.8-2.6 2.3-1.1 1.5 1.2 1.1 2.1 1 2.5 0-.3.6-.3 1.3.7 0 2.1.7 2.3 1.7-1 .3-1.2.9.4.5.2-.8 1.5-3.3 1.6-1.4.5 1.4-1.7 1.9-.6 2.8.8 1.3 2.5-.3 3.2 1.1.2.9 1.5 2.7 0 2.7-.7-1.2-1-1.3-1.1-2.4-1.3-.3-2.2.8-1.9 1.8-2.1.6-.5-.9-.2-1.8-.1-.9-2.2-.7-3.1-.8-1.5.4-.8-1.8-2-2.1-1-.8-2.1-.1-3.3-.9.3 1.8-1.1 1.2-1.5 1.9 1.6 1.2.7.8 0 1.5.6 1 1.1 3-.5 1.6 0-1.6-.9-3-1.5-4.4-1.1-.7-1.8 1.1-3 1-1.1.2-2.4 1.8-3.2.7 1.1-.5 2.2-1.1 3.1-1.8.5-.9 1.7-1.6 2.7-1.2.9-.8 1.7-1.7 2.3-2.8-.8-1.4-2.5-1.9-4-2.1-1.3 1-2.3 2.5-3.8 3.1-1.1 1.1-2.2.1-2.6-.8-1.2.4-1.6 1.7-2.1 2.7-.7.6-3.3 0-2.1 1.4-.5 1-2.3.5-2.9-.1.6-1.5-1.3-1-2.1-1.9-1 .6-2.2-.3-3.3.4-1.3-.3-2.5.3-3.7.8-1.8.5 1.5 2.2-.5 2.1-.6 1.3-1.5 2.5-2.9 2.9-1 .6-2.8.6-2.4 2.2-1.4.7-.4 1.7-.4 3 .7 1.2 1.9.8 2.8.2 1.6-.7 3.1-1.3 4.8-1.5 1.1 0 3 0 1.7-1.5.5-2 .8 1.7 1.7.4.7.3 2.7-2 2.3-.4-1.3.2-1.4 1.8-2.7 2-1.5 0-2.1 2-.2 1.5.7 1.1.7 1.5 2.3 1.6 1.7 0-.6 2.6 1.3 1.7 1.3-.5 1.2 0 2.1-1.2-.8-1.2-1.6-.9-.3-1.7.8-.3 1.8-2.7 2.1-.9 1.3.1-.6-2.3.4-2.7 1.6-1.1-.4 1.2 1.4 1.3.2-.3-.7 2.4.9.5.9-.3-.6 2.2-1.7 1.9-.9.1-3.3.9-1.3 1.3 1.1-.3 2.4 1 1.1 1.4-.7.6-1.7 1.5-2.7 2 .5.5.4 1.1 1.4 1.6-1 0-2.3 1.6-2.8 1.3.3-1 2.2-1.7.2-2.3-.8.9-1.9 1.3-2.9 1.7-1 .1-3 1.6-.9 1.5.8 0 2.8-1.7 2.7-.7-1.6.1-2 2.2-3.4 2.4-.8-1.2-.6 0-1.5.6-1 0-2.8 1.1-2.3-.8 1.5.9.6-1.5.5-2.2-.9-.6-1.6-1.1-2.4.3-1 1.4-3 2.5-4.6 1.4-1.1-.9-2.1.5-3.2.8-1 .4-2.2-.9-2.8.6-1.2.2-1.8 1.1-2.8 1.9-1.1.5-.5 2.7-1.9 1.1-.8-.7-2.2.3-3.2.6-1.2 1.2-1.8.3-2.5.4-.6-.4-1.1-1.3-1.6.6-.5 1.2-1.3 0-1.9 1.5-1.6 1.3 1 .1 1.8.1 1.3-.2 1.7 1.3 3.2.7.8-1.2 2.1 0 .5.8-.3 1-1.3 1.9-1.5 3 .2 1.5 1.8 0 2.7.7.7.9 2.4 0 2.2 1.5.3 1.2.7 2.3.1 3.4-.7 1.1-2.2 1.6-3.2 2.5-.7-.2-1.8-.4-2.7.5-.8.6-2.4 1.4-1.7 2.4.3 1.4-1.1 2-2.2 2.4-1.2-.3-2.2-1.2-3.4-1.5-1.3-.6-.8-1.7-2.2-1.9-.9 1-1 2.3-1.1 3.6-.5.9-1.2 2.5-2.3 2.5-1 .3-1 1.3-1.2 2.3-.1.7-.2 1.3-.3 2-.7 1.7.1 2.9 1.4 3.6.4 1.3-1.2 2.9-2.4 2.2-1.3-.7-2.9-1.6-2.5.8-.6 2.1 1.8 1.6 3 1.2 1.5-.4 2.9.3 4.4-.1 1.5 1.4 3.5.6 5.2 0 2-1.3 3.9.9 6 .7 1.4-.5 2.7-.2 4 .1 1.7-.6 1.8 1.5 2.9 2.3.3 1.2.9 2.8.3 4.1-1 .8-1.2 2.5-2.7 2.9-1.4.2-1.5 2.3.2 2.4 1.2.8 2.8-1.1 3.6.4.8 1.7 1.9 1.1 3.4 1.6 1.2.7 2.6.9 3.3 2.2 1 1.1 2.4.3 3.2.9-.2 2.1 3.2-.3 2.3 1.4.8 1 0 3.5 2 3 1.2.2 1.5-.1 2.6 1 1.3.3 1.7-1.1 2.9.5.5-1.6.6.5 1.9.2-1.1.9 1.7-.2 2.3.5 0 2.2-1 4.3-1.5 6.5-1.2 2.4 1.2.8 2.6 1 1.7-.4 2.1 1.8 3.2 2.5 1.6.3 1.8 1.9 2.4 3 .5 1.3 1.9 2.3 1.6 3.7.1 1.4.8 2.7.7 4.1.2 1.6 2.3 1.2 1.9 2.9 1.1 2 1.2 4.4 1.8 6.6 0 2 1.8 2.9 2.9 4.2 1.4 1.4 2.1 3.2 3.5 4.6 1.3.9 2.2 1.9 2.6 3.4 1.2 1.2.9 2.8 1.2 4.3-.8 1.4.9 2.2.5 3.6-.2 1.5.4 2.7-.3 4.1-1 1.1-1.4 2.4-2.4 3.1.1 1.5 0 3.1-.7 4.5-.3 1.9-1.7 2.5-3.3 1.5-1.9.1-4.2-.9-5.5 1-1 1.8-3.3 1.4-5 1.9-1.4.9-.9 2.6-1.1 3.9-1.4 1.4 0 3.1.5 4.7.9 1.6 2.9.6 4.3 1.1 1.5.6.9 2.5 2.3 3.4 1.2 1.2 2.5 3.2.4 4.2-1.4 1.1.4 3.3-1.7 3.7-.1 1.2 1.6 1.8 2 2.9 1.4.6.6 3.5 2.7 3.7-.3.9-.2 1.5.8 1.5.4.8 1.1 3.2 1.7 1.2 1.5.1 2.8 1.2 4.4.5 1.2.1 3.8-.6 3.6 1.3-.1 1.7 2 2.1 2.7.5.8-.8 2.4-2.7 2.6-.6.1 2 2 1.9 3.3 1.1.6-.7 1.2-1.9 1.6-2.7 0 0 .4-1.4 2.4-1.8 2.5 2.6 2.1-.5 3.6-1.6 1.3-3.3 6.8-4.4 5.5-8.2 2.8-1.2 4.4-2.9 7.1-4.6 3.3.4 6-2.5 9.1-3.8.1-2.7 2.7-3.7 3.2-6 1.9-1.8 5.8-2.3 4-5.4-1.3-2.7 2-1.3 2.7-3.4-.4-2.6 5.4-2.7 3.5-4.2.4-.7 3.8-.4 3.2-2.6 3 2.8 1.1-3.6 3.4-2.3 2.7-.4-2-2.1.1-2.6 2.5 1.4.7-3.5 4-2.8-1.2-2.7 2.3.9 1.4-1.5 1.3 1.1 2.1-.2 3.3-.4 2.6-.6-.8-2.1 1.6-1.9-.3-1.6.9-1.1 1.9-1.9.6-.6.8-.3.9-1.7-.9-2.6-2.1-5-2.7-7.7-.8-1.4.4-2.4 1.5-3.1.8-.8 2-1.4 3.2-1 .7-.4 1.4-.9 2.1-1.3 1-.2 1.9-.7 2.8-1.2 1.5-.8 2.1-2.4 2.2-4.1 2.9 1.4.1-3.6 2.6-2.1 1.3-1.1.7-2 1.6-2.7.6 2.5 2.3 0 3.1-.6-3.4.3 1.3-3.6-2-2.8.3-1.5-2.7-2.2.1-2.9-1-.9-1-1.9.3-2.6-1.6.4-3.1-2.9-.9-1.3 3-.8-1.6-2.3-.6-3.2 2.3.8 3.3-2.2 2.6-3.9 2.1-1.1-.9-3.2 2.1-3-3.2-1.5.9-3.5 1.6-4.6-2.5-1.5 1.5-1.2.1-2.9-3.6-1.4 2.5-.2 1.1-1.6-2.3-1.3.2-2 .1-3.2-3.4-1.2 1.5-3.4-.5-4.4 1.1-1.3-.3-3.4 1.7-3.7-2-2.2 2.3-.7 1.4-2.7 3 1.2.1-3.8 1.8-2.7 2.4-.6-.7-1.1-.5-2 2.1 0 .7-2.4 2.2-3.5 2.2.2-1.3-2.1.5-1.7 2.2-1.5-1.5-1.6.6-3.4-1.6-.5-.6-1.9.8-2.5 1.9-2.1-2-.5-.5-2 2.3.7.7-1.8 2.4-1.7-1.6-1-.4-2.3-1-4 2-1-2.4-1.7.3-2.2-.4-.9.4-1.4.6-2.5-2.5.3-.1-1.9-1.4-3.5.3-.4 0-1.1-.7-1.3-1.8 1.3-2.3-1.1-3.2-2.3-1.8-.1-3.4-1.5-4.8-2.3-.8.8-1.2 3.3-2.9 3.6-1 .7-2.8 1.7-2.7 3.5-.8.9-4.4-1.4-2.1-1.8 1.2-1.3 1.9-2.8 3.2-3.9-1.5.3-4-1.1-2.7-2.5 2.8-1 .6-2 .2-2.9 2.4-.4-.1-2.3.3-3.6.3-1.3-3.7-2.6-2.1-3.3 1.6.5-.3-2.9-.9-3.8-.1-2.1-2.6-1.5-2-3.3-.3-.9.8-3.7-1.6-2.4 0-2.2-3.4-1.2-1.1-2.5-.6-.8-1-3.7 0-3.3-.6-1.9 1.6-2.5 1.7-3.9-1.7-.1-2.1-1.9-3.6-2.5-1.2-.9-1.5-2.6-4-2-2-.8-3.5.8-5 .6-1.2.7-2.4-.5-4.1.5.4 2.1-2.3-.9-3.3 1.3-.2 1-.6 3.2-1.3 4.4-1.1 1.6-.4-1.4-1.5-1.4-1 .3-4.2 2.1-3.8.7-.7-1.6-.3-3.6.7-4.8-.7-1.9-3.5-.2-4.5-1.7-1.7 0-3.2.9-4.6 1.9-1.3.4-4.3 1.6-4.7-.4-.8-.7-1.1-1.2-1.4-1.2M668 359.1c.1 0 .3-.1.4-.2-.2.1-.3.1-.4.2"/><text data-dist-id="d26" transform="translate(559.91 329.538)" class="st2">
                            Karbi Anglong
                        </text><path data-dist-id="d20" class="st0" fill="#f1f5f9" d="M701.7 209.7c-1.3-.1-2.5.6-3.4 1.7-1.5.3-2.4 1.3-3.2 2.4-.3 1.4 0 2.9-1.6 3.6-.9 1-1.5 2.7-3 1.6-2.1.3-2.6-2.3-4.3-3.1-2.1-.3-1.5-2.8-2.8-3.9-1-.6-2.3-1.7-3.5-.9-1.1 1-2.1 1.9-3.3 2.8-.9 1.2-2.3 1.7-3.6 2.4-1.2.7-2.7.4-3.9 1.1-2.3.9-4.9 1-7.2.3-.6-.3-1.3-.6-1.9-.9-1.2-1.6-3-3-5.1-3.1-.9-.1-1.1 1.3-1.8 1.9-.6.9-1.2 2.2-2.4 2.2-1-.2-2-.8-3-.8-1.1.7-2.1 1.5-3.3 2-.8 1.6.4 3.3.7 4.9.7 2.2.7 4.5 2.1 6.5.4.8.5 1.8.8 2.7-1-.5-1.7.2-2.5.7-.7.8-1.7.8-2.6.6-1.9-.4-3.6-1.4-5.5-1.6-2.3-.5-4.6-1.1-6.8-1.8-1.3-.3-.3-1.6-.6-2.2-1.5-.1-2.8-.9-3.5-2.2-.6-.8-1.3-1.2-2.3-1.2-1.3-.1-2.4-1.5-3.7-.8-1.7.7-3.4.2-5.2 0-1.7.3-3.4 1-4.5 2.4-1.2.3-2.5.3-3.7-.1-1.3.1-2.2-1.8-3.5-.9-1.6.7-3.1 1.4-4.8 1.8-1.6.6-3.5 1.2-4.2 2.9-.5 1-.5 2.2-1.2 3.2-.5.7-1.8.1-2.4.7-.6.7-1.6.8-2.4 1.3l.3 1.2 1.3 1.1v.8l.4.4-.4.6-1.3 1.2.2 1 1.5 1.1-.1 1.5-.8 1.7-.9.6-3-.1-.7.4 1.3 3.4 1 2.2-.7 2.4-.3.7.1.4 1.6 1-.3.4-.5.5c-.3.8 2.7-.1 2.7-.7 1.6-1.2 4-.3 5.9-.5 2.5-.4 4.7 1.5 7.2.5 2.4-.7 0 1.7 2 1.9 1.5-.4 3.3-1.5 5.2-1.3 2.1-.8 2.5-.5 3 .1 1.1-2.7 2-1.5.5.5.1 2.2 1.8-2.5 3.5-1.8 2.9-.6 1.2-2.3-.9-1.1-2.1-.6.7-3.4 2.2-2.8 1.4-.8 1.9-2.2 2.6.9.4 1.9 3.4.7 4.7.4 1.4-1 2.9-1.9 4.6-1.9 1 1.5 3.8-.2 4.5 1.7-1 1.2-1.4 3.2-.7 4.8-.4 1.4 2.8-.4 3.8-.7 1.2.1.5 3 1.5 1.4.7-1.2 1.1-3.5 1.3-4.4 1-2.3 3.7.8 3.3-1.3 1.7-1 2.9.2 4.1-.5 1.4.2 3-1.4 5-.6 2.5-.6 2.8 1 4 2 1.5.6 1.9 2.4 3.6 2.5-.2 1.4-2.3 2-1.7 3.9-1-.3-.6 2.5 0 3.3-2.3 1.3 1 .2 1.1 2.5 2.4-1.3 1.3 1.4 1.6 2.4-.6 1.8 1.9 1.2 2 3.3.6.9 2.5 4.2.9 3.8-1.6.7 2.5 2 2.1 3.3s2.1 3.3-.3 3.6c.4.9 2.6 1.9-.2 2.9-1.3 1.3 1.2 2.8 2.7 2.5-1.3 1.1-2 2.5-3.2 3.9-2.4.4 1.3 2.7 2.1 1.8-.1-1.8 1.7-2.8 2.7-3.5 1.8-.3 2.2-2.7 2.9-3.6 1.4.8 2.9 2.2 4.8 2.3.9 1.1 1.3 3.6 3.2 2.3.7.2 1 .8.7 1.3 1.3 1.6-1.1 3.8 1.4 3.5-.2 1.1-1 1.7-.6 2.5-2.6.5 1.8 1.2-.3 2.2.6 1.7-.5 3 1 4-1.7-.1-.1 2.5-2.4 1.7-1.5 1.5 2.4-.1.5 2-1.4.6-2.4 2-.8 2.5-2.1 1.8 1.6 1.9-.6 3.4-1.8-.4 1.8 1.9-.5 1.7-1.6 1.1-.2 3.4-2.2 3.5-.2.9 2.9 1.3.5 2-1.8-1.1 1.1 3.9-1.8 2.7.9 2.1-3.4.6-1.4 2.7-2 .3-.6 2.4-1.7 3.7 2.1 1-2.8 3.2.5 4.4.1 1.2-2.4 1.9-.1 3.2 1.4 1.5-4.7.3-1.1 1.6 1.4 1.6-2.6 1.3-.1 2.9-.7 1.1-4.7 3.2-1.6 4.6-2.9-.2.1 1.9-2.1 3 .8 1.6-.2 4.7-2.6 3.9-1 .9 3.5 2.4.6 3.2-2.2-1.6-.7 1.8.9 1.3-1.3.7-1.3 1.7-.4 2.6-2.8.7.2 1.4-.1 2.9 3.3-.8-1.4 3 2 2.8-.9.5-2.5 3-3.1.6-.9.7-.3 1.6-1.6 2.7.2 1.4 1.5 1.5 1.7 2.7.7.9.1 1.3.8 2.6-.3 1.4.5 1.5.2 3.2 1.2 1.1 1.1 2.9.5 4.3-.9 1-.7 2.5-1.3 3.8 1 1.3.3 1.8-.4 2.9-1.3.8.4 2.5-.8 3.2.5 1.7 1.5 3.4 1.7 5.2.7.9 2.9.5 3.3-.7 1.7-.8 1.7-2.9 2.1-4.6.8-1.4 2.1-3.3 4-3.1 1.4.3 3.1 1 4 2.2 1.2 1.4 2.3.5 2.8-1 .2-1.9 1.7-1.2 2.2-3 1.4-.7 1.5-2.6 2.8-3 1.5-.2 2.8-.5 3.1-2.2 1.5.2 3-.5 4.2-1.5.7-1.4 2.2-1.5 2.7-2.9-.2-1.6-2-2.9-1.8-4.7.2-1.9-1.3-3-2.4-4.3.3-1.6.9-3.2.6-4.8-1.2-1-.4-2.1.2-3.3.8-1.6-.4-4.4 1.9-4.9 0-1.8 1.8-2.7 2.4-4.3 1.1-1.1-.7-2.5-.2-3.8 1.8-.1.3-2.6 1.5-3.4 2.1-.8.6-1.8-.7-2.1.9-.6 1.8-2.6.1-2.8-.5-1.4 2.2-.1 2.1-1.9.6-1.2-1.9-2.4-.3-3.6 0-1.3.4-2.8 1.2-3.9 1-.9 2.1-1.7 3-2.7 2-.8.5-3.2 1.7-4.5-.8-1.4.7-2.5 1-3.9.5-1.5 1.3-2.6 2.8-3.1 1.5.6 2.1-1.3 2.3-2.6-.5-1.5 0-2.7 1.5-2.8.2-1.8 2.7-2.2 2.6-4.2-.2-1.2.6-3.4 2-2 1.8.7 2.5-.2.6-1.2-.1-1.7 2.5-.7 3.1-2 1.3.2.6 1.7 2.3.3 1.5.5 2.5-.6 3.7-.9 1.3-1.4.4-2.5-1.3-1.6-1.3-.3-2.4-.4-3.7-.2-1.6.6-1.4-1.2-1.9-2.2-.9-1.8-1.4-3.7-1.9-5.6-1-1.5-.4-3.3-.4-5-.3-1.8 1.4-3 1.9-4.6-.2-2.4-3.2-2.7-4.3-4.6-.1-1.1-.2-2.3-.8-3.4-.3-1.1 1-1.9 1-3.1.7-1.1-.5-2.5.6-3.5s-.2-2.7 1-3.6c-1.3-1-.4-1.3.1-2.3-1.2-.5-.6-2.8-2.2-2.5-.2-.9-.7-2-2-1.7-.4.8-2.5 1.1-2-.3.9-1.2 0-1.8-.9-2.1-.4-1.2.8-2.1 1.6-2.8 1.1-.8-1.6-1.3.1-2 1.3-.3-.1-2.1 1-1.8 1.6.3 1.1-1.6 1.2-2.6.1-1.4-2.2-.7-1.7-2.2 0-1.2-1.6-1.2-2-1.7-1.2 1.3-.2-1.5-1.4-.4-.5-.2-1.4 1.2-1.6-.3.6-.3-.2-2.6-.7-1.5-1 .4-.5-1.6-.2-2.1-1.5.1-.6-1.5-1.1-2.3-.5-1-1.4-2.1 0-2.7-.9-1.1.6-2.5.3-2.9-1.4.4 1.6-2.3-.1-1.7-.9.4-.6-1.8-1.7 0-.4-1.4-2.9 0-1.7-1.8-1.2-.2-2.3-.3-3.5.1-.2-1.1.2-2.4-.5-3.4-.8-.7-2.2 0-3.3-.1-1.3.5-1.1-2-.5-2.5 1.3-.4 2.1-1.2.5-1.7-.6-2 0-4.3 1.6-5.6 1.8-.1 2.4-2 3.5-3.2.2-.7-.2-.8-.7-.8"/><text data-dist-id="d20" transform="translate(627.032 247.234)" class="st2">
                            Golaghat
                        </text><path data-dist-id="d31" class="st0" fill="#f1f5f9" d="M766.6 187.6c-.9.6-2 1-2.4 2-1.1 1.8-1.9 3.8-2.8 5.7-1.1.4-2.1.9-3.3.7-1.4-.2-2.6 1.3-4 .9-1.2 0-2.5-.5-3.5.3-.9.6-2.1-.2-3.2.2-1.4-.1-2.3 1.6-3.6 1.1-.9-.2-1.8-.4-2.7.2-1.2.8-2.4-.1-3.6-.1-1 .2-2.2.2-2.9 1.1-.3.6.4 1.9-.6 2.2-2 .9-3.3 2.9-5.6 3.3-1.4.2-2.8.7-4.3.6-1.4.2-2.6-1-4-1-1 .1-1.8.8-2.4 1.5-.9-.1-1.5-.7-2-1.4-.5-.6-1.7-.1-2.2.5-1.2.8-1.9 2-2.9 3-1 .8-2.2 1.4-3.5 1.3-1.3.6-2.7.5-4.1.5-1.1 1.2-1.7 3-3.5 3.2-1.6 1.3-2.2 3.6-1.6 5.6 1.7.5.9 1.4-.5 1.7-.5.5-.7 3 .5 2.5 1 .2 2.5-.6 3.3.1.7 1 .3 2.3.5 3.4 1.1-.5 2.3-.3 3.5-.1-1.1 1.8 1.3.4 1.7 1.8 1.1-1.9.8.4 1.7 0 1.7-.7-1.2 2 .1 1.7.3.4-1.3 1.8-.3 2.9-1.4.6-.5 1.7 0 2.7.5.8-.4 2.3 1.1 2.3-.3.5-.8 2.5.2 2.1.5-1.1 1.3 1.2.7 1.5.2 1.5 1.1.2 1.6.3 1.2-1.1.2 1.7 1.4.4.4.5 2.1.5 2 1.7-.5 1.5 1.8.8 1.7 2.2-.1 1 .4 2.9-1.2 2.6-1.1-.3.3 1.5-1 1.8-1.7.7 1.1 1.2-.1 2-.8.6-2.1 1.6-1.6 2.8.9.2 1.8.9.9 2.1-.6 1.4 1.6 1.1 2 .3 1.3-.3 1.8.8 2 1.7 1.6-.3 1.1 1.9 2.2 2.5-.5.9-1.4 1.3-.1 2.3-1.2.9.1 2.6-1 3.6-1.1.9.1 2.3-.6 3.5-.1 1.1-1.3 2-1 3.1.6 1.1.7 2.2.8 3.4 1 1.9 4 2.2 4.3 4.6-.5 1.6-2.2 2.7-1.9 4.6.1 1.7-.6 3.5.4 5 .5 1.9 1 3.8 1.9 5.6.5 1 .3 2.8 1.9 2.2 1.3-.1 2.5 0 3.7.2-.8-1.2-.3-1.5.6-2.3 1.2-.8 0-2.1.8-3.1.9-1.2-.1-2.5 0-3.8.2-1.3-.4-2.5-.3-3.6.4-1.2.1-2.3.7-3.4.7-1.4.6-3.3 2.1-4.1 1.4-.7 2-2 2.6-3.3.3-1.3 1.2-2.2 2.2-3.1 2.1-1.4 4.1-3.1 5-5.5.7-2 2.4-3.5 3.7-5.2.4-.9 2.7-2.1 2.3-.5-1.3.4-.3 2-.6 3-.4 1.5.8 2.8.6 4.2-.6 1.8 0 3.6.5 5.4.1 1.4.6 2.6 1.4 3.7.4 1.2 2 .7 2.7 1.4 1-.8 1.4-1.9 1.3-3 .6-1.2 2.2-.6 2.9-1.7 1.2-.4 1.6-1.3 1.9-2.4-.3-.8-.4-1.8 1.4-1.4 1 0 2.8 0 2.6-1.4-.7-1.4 1-1.9 1.9-2.6 1.2-.2 1.5.6 1.9-1-.3-1.3.9-1.8 1.1-2.8-1.7-.9 2-.9 0-1.6 0-1.5 1.3-2.8 1.1-4.3-.4-1.5-1.8-2.9-1-4.4-.6-1.4.9-1.8 2-2.2 2-.5 3.6-1.9 5.2-3.1.6.1 2.8.7 1.6-.9-.2-1.1-1-2.3-.3-3.4.4-1.9 2.6-1.8 4-2.3 1.2.6 2.4 0 3-1 .5-1 2.1-1.1 2.3-2.4.3-.9.2-3 1.5-1.6 1.2-.8 2.5-2.3 4-1.5 1.2.1 2.6.4 1.7 1.9-.7 1.4.4 2.1 1.7 1.5-.6-.9.4-1.9 1.4-2.6.8.6 2.5.4 2.1-1.2-.3-2 1.1-1 1.6-1.2.6-1.7-2.4-1-1.6-2.2-.9-.1-1.7.1-1.9-1 .7-1.5-2.2-1.6-1.4-3.1.7-1.9-1.3.5-1.9-.6 0-1.2-.8-1.1-1.2-.2-.6 1.2-1.2.5-1.5-.4 0-.8-1.7-1.9-1.4-.7.2 1.5-1.2.2-1.3-.6.7-1.2-1.1.1-1.2-.9.7-.4.6-1.3-.4-1-1.8-.8 1.4-2.3.7-3.5-.9-.3-1.2-1.2-.1-1.6 1.1-1.9-1.9-1.9-2.4-3.4-.8-1.1-2.2-1.4-3-2.5-.2-.9.4-1.7.5-2.5.4-1.6-.1-3.2.7-4.7-.8-.8 0-1.6-.5-2.4-1.2-.5-2.3-2.3-2-3.6 1.6-.7-.9-1.9.4-2.7-.9-1.2.3-3.4-1.7-3.6-1.5-.7-3.2-.3-4.8-.1-1.7.4-3.2-1.3-4.7-.8-1.9-.5-2.8-2.2-2.6-3.6"/><text data-dist-id="d31" transform="translate(729.918 232.684)" class="st2">
                            Jorhat
                        </text><path data-dist-id="d30" class="st0" fill="#f1f5f9" d="M823.1 129.7c-.7-.1-1.7.2-2.6.4-4 .9-2 4-1.5 5.5-.7.1-1.8.1-2.5-2.3-.2-.4-.5-1.5-.8-1.7-1.9-2.9-1.8 1-2.8 2.5-1.2 1.3-3.3-.3-4.9.2-2-.6-2.1 1.5-2.8 2.9-.9 2.6-2.5 4.9-2.9 7.6-.4 3.2-2.2 5.9-4.2 8.3-.7.7-1.5 1.4-2.1 2.1 0 .9.1 1.8-.4 2.5-.3 1-1.6 1.4-1.9 2.5-.3.5-.4 1.2-1.1 1.3-.6.3-1.1.8-1.5 1.3-.3 1.2-.5 2.4-1 3.5-.6.5-1.1 1.1-1.9 1.2s-1 1-1.5 1.6c-.8 1.1-1.6 2-2.2 3.2-1 .6-2 1.3-3.2 1.6-.7.3-1.7.3-2.1 1.1-.8 1-.9 2.3-1.1 3.5-.1.7-.2 1.5-.7 2-.8 1.3-2.4 1.6-3.6 2.4-1.5.8-2.7 2.1-4.3 2.8-1.1.5-1.9 1.3-2.8 2.1-.2 1.4.8 3.1 2.3 2.9 1.5-.4 3 1.2 4.7.8 1.6-.2 3.3-.6 4.8.1 2 .2.8 2.4 1.7 3.6-1.3.8 1.2 2-.4 2.7-.3 1.3.8 3.1 2 3.6.5.7-.2 1.6.5 2.4-.8 1.5-.4 3.1-.7 4.7-.1.8-.7 1.7-.5 2.5.8 1.1 2.2 1.4 3 2.5.5 1.5 3.5 1.5 2.4 3.4-1.1.4-.8 1.3.1 1.6.7 1.2-2.5 2.6-.7 3.5 1-.3 1.1.5.4 1 .1 1 1.9-.2 1.2.9.2.8 1.5 2.1 1.3.6-.3-1.2 1.4-.1 1.4.7.3.9 1 1.6 1.5.4.5-.9 1.2-1 1.2.2.6 1.1 2.6-1.3 1.9.6-.7 1.6 2.2 1.6 1.4 3.1.2 1.1 1 .9 1.9 1 .5-.6.6-1.6 1.5-1.7.7-.2 1.1-.1 1 .7 0 .8.9.6 1.2 1.2.6.5.1 1.7.9 1.8.8.3 1.5-.1 2.1-.5 1-.8 2.4 0 3.5-.5 1.3-.8 2.9-1 4.4-1.4 1-.5 1.8-1.3 2.6-2.1 1.1-1.2 2.4-2.4 3.9-3.1 1-.4 1.8-1.1 2.4-2 .6-.4.1-1.3.7-1.6.4-.6 1.1.2 1.3.6.3.5.7 1.3 1.2.5 0-.6.5-1.1 1-1.4.8-.3.3-1.3.7-1.8.3-.7 1.1-.8 1.8-1 1-.2 1.7-1.1 2.7-1.3.8 0 .9-.7 1.1-1.3-.3-.3-1-.7-1.2-1.2.2-.3 1.1-.3 1.6-.6.4-.5 1.2-.5 1.2-1.3.3-.8-.1-2 .7-2.7.6-.3.6-1.1.5-1.7-.2-.6.6-1 1-1.5 1.1-.4 1.5-1.6 1.9-2.6l-10-12 7-13.4-.7-10.5 4.2-5.6c-1.8.8-2-1.3-3.5-.8-1.1.4-1.6-.8-.7-1.6 1.3-1.2-.4-1.2-1.2-1.8-1.5-.7-3.2-.3-4.7-1.1-2.1-.1-3.3-1.5-3.3-3.6.9-.8-1-1.6.2-1.7 1.4-.7 1.8-2.4 2.9-3.5-.5-.5-.8-1.7-.7-2.7 1-1 1.1-2 .6-3.4.4-1.7-1.4-1.3-1.5-2.3-.2-1.1.8-1.9.7-2.6-.8-.1-.5-1.7-.6-2.1-3.7-1.3-6.9.5-3.4-3.8.9-1.4.7-1.8 0-1.9"/><text data-dist-id="d30" transform="translate(767.474 206.714)" class="st2">
                            Sivasagar
                        </text><path data-dist-id="d32" class="st0" fill="#f1f5f9" d="M859.1 137.5c-1.4.9-2.5 2.1-3.6 3.4-2.9 3.5-6.2 6.5-9.5 9.5-1.9 2.3-3.6 4.8-5.2 7.3q-1.65 1.95-2.4 4.5l-4.2 5.6.7 10.5-7 13.4 10 12c.8-.3 1.4-.6 1.9-1.2.7-1.3 1.5-2.5 2-3.9.2-.8 1-1.3 1-2.1.4-.9 1.3-1.5 1.9-2.3.9-1.6 2.7-2.5 4.5-3 1.1.1 1.8-.9 2.5-1.6 1-.8.9.9 1.3 1.5 0 1.1 1.1.9 1.8.6 1 0 2-1.1 3-.4 1 .2.8 1.5 1.3 2.2.5.6 1.4.5 1.9 1.2.4.6 1.1 1.3 1.8.9-.3-1 .3-1.7 1.2-1 1.2-.4 2.5.1 3.6-.3.7-.9 1.5-1.6 2.5-2.2 1.1-.6 2.7 0 3.7-1.1.7-.8 1.8-1 2.8-1.2 1.1-.2 2.1-.7 3-1.4 1-.8 2.4-1.2 2.8-2.5.1-.8.2-1.5.7-2.2 1.6-.5 2.9-1.5 4.1-2.6.8-.2 1.5-.4 1.8-1.3 2.2-2.4 4.6-4.7 6.8-7 .2-.1.6-.3.8 0 1-.2.8 1.5 1.7 1.7 1.2.5 1.5-1.2 2.4-1.5.5.5 1.4.1.9-.6.9.1 1.6.9 2 1.8.6 1.6 1.8.4 2.7-.2 0-.6.4-.9 1.2-.8.5-1.1 2.5-1.6 1.9-3 1.1-1.4 2.5-2.6 4-3.6 1.3-.5 1.3-2.2 2.9-2.2 1.7-.6 3.1-1.9 4.6-2.9 1.3-.6 2.5-1.8 4-1.5-2.7-1.3-.3-3.4-.8-5.5-1.9-1.7-.4-5.5-3.2-5.6-.1-2.1-1.5-2.8-3.5-3.1-2.3 1.8-3.1-.9-5.1-1.1-2.2-2-2.7 2.7-4.6.3.4 2.6-1.9-1.4-1.6 1.7-.1-1.8-1.1-1.3-2.6-.8.5 1.3-1.5 1.6-.6 3-1.1-.3-1.7 1-2.9 1.3-.6-2.4-1.2 1.6-3.2.6-.3 3.2-1.8-.6-2.8.6 1.6 1.9-1.9 1.3-.6 3-1 2.7-.9-1.4-1.1-.1-.2 2.4-2.6 1.1-1.7 2.8-.8 0-1.4-2.1-2.2 0 .1-1.2-.5-2.1-2.1-1.9-.8 1.7-.6-.4-1.3.2-.4 2.1-1.3.7-2 .6-.5-.3-1.3 0-1.6-.7-1.9-.2-3-.6-4.9-.5-1-.2-2.7.6-3.1-.7-.4-.9-.4-2.8-1.8-2.4-1.4-.1-1.9 1.6-3.3 1.7-1.6 0-3.1-1-4.7-.5-.9.2-2.6 0-2.7-.9.7-1 .2-2.1.6-3.1-.2-1.4-1-2.8-1.4-4.2-.4-2.6.1-5.1-1-7.2"/><text data-dist-id="d32" transform="translate(842.187 168.359)" class="st2">
                            Charaideo
                        </text><path data-dist-id="d19" class="st0" fill="#f1f5f9" d="M743.6 84.2c-2.3 1.2-4.9 2.1-7 3.6-.4 1.8-2.5.9-3.9 1.3-1 .9-2.2 2.6-3.8 2.3-1.3.5-2.6 1.6-1.5 3.2-1.5 2.1-3.6 3.5-5.4 5.3-1.7 1-2.5 2.9-4 4.1-2.1.9-3.3 2.9-4.2 4.9-.7 1.7-1.8 3.1-2.5 4.7-2.3.2-3.5 2.9-5.8 3-1.2 1-3.2 1.6-4.1 2.6.1 1.4-2.5 1.5-2.8 3.1-1.7 1.8-4 3.1-5.2 5.3-2.1 3.8-6.1 5.9-8.6 9.3-1.7 2-3.2 4.3-4.6 6.6-1.3 1.4-2.8 2.6-3.8 4.2-.7 1.7-3 .8-3.7 2.4-.6 1.6-3 2-2.7 4 .4 1.1-2.8 1.9-.3 1.8 1.8-.2 1.2 1.2 1.8 2.1 2-.4 2.1 2.1 1.9 3.5-.3 1.6 1.8 2.8 1.2 3.9 1.3 1-1.3 2.7-1.3 2.2-.4.5-1.9 1.3-2.4.3-.5 2.2-2 1.1-2.4-.3-.3 1-.3 3.7-1.8 2.8-.4-1.9-.4-2.7-1.1-.5-.2 2.6-1.3-2.9-1.4.6-.9 0 .2 3.1-2.1 3.1-2.4 1.7-5.5 2.3-7.6 4.6-1.7.8-.5 2.6-2.2 3.4.9 1.6 2.9 2 4.4 3.1.4 1.7 3 1.8 3.1 3.8.5 1.7-.1 3.4.6 5 .7 1.4 0 2.7-.8 3.8 0 1.7 1.4 3 3 2.8 1.3.1 3 .7 3.1 2.3 0 1.3.6 2.4 1.1 3.5l.1.2.1.2c1.1-.1 2.2-.3 3.4-.3 1.6.1 2.7 2 4.6 1.9 1.6 1 3.6-.2 5.2.8 1.7-.3 2.9-2.4 4.3-3.4-.1-1.7.9-3.4 2.4-4.3 2.3-1.3 2.3-4.5 1.2-6.6 1.7-2.1 4.7-1.2 7-.8 1.6.6 3.5.7 4.7-.8.9-2.2 2.7-1.6 3.6.3 1.4.6 3.7-.7 2.6-2.5-.7-1.9.5-3.3 1.9-4.4.9-.9 2.2-.4 2.6-1.7.7-1.3 3.1-1.3 2.7.6-.3 1.3 1.1 4 2.5 2.7.6-1.5 2.1-2.2 3.6-2.5 1.7-.7 3.3 2.1 4.6.5 1-1.9-1.5-3-2.4-4.3-1.2-1.6 1.2-3.6 2.5-2.1.9 1.1 2.2 3.4 3.9 2.2 1.7-.7 2.1-3 1.2-4.5-.3-1.7-.8-3.5-.3-5.1 1.3-1.9 2.5.7 2.4 2 .5 2 2.1-.5 2.9.7 1 1.7 1.5-.4 2.5-1 1.8-.8.3-2.7.6-4.2.2-1.7 2-2.8 2.7-4.3 1.7 0 1.9 2.1 3.4 2.3 2.3.4 1.7-2.4 1.4-3.7.6-1.3 2.3-2 3.6-1.6 1.2.6.6 3.3 2.5 2.3 1.3.5 1.3-1.3 2.2-1.7 1.2.6 2 1.9 3.4 2.3s3.3-.5 3-2.2c-.3-1.8 2.3-2.6 2.9-.8.5 1.1.6-.1.9-.5 1.3-.8 2.6.2 3.9.5 1-.1 1 .5 1.5 1.2 1.8.9 2.3-1.4 1.9-2.7-.2-1.3.4-3.1 2-3 1.8-.1 3.5.7 5.2.3.5-1.2 1-4.3 3.1-3.4 1 1 .9 3.3 3.1 2.9 1.6-.2.1-3.7 1.8-4 1.8.7 3.7-1 2-2.5-1.3-1.2 2.3-2.1 3.2-2.9 2.7.8 1.6-2.6 3.4-1.3.2-.3.3-.5.5-.8.3-.8 1.2-1.4 1.3-2.3.3-1.2.4-2.5-.2-3.7.5-2 1.4-4 1.6-6.1 0-1.1-.7-2.3-.2-3.4.7-.9 1.3-1.8 1.8-2.8-1.2-1.1-2.5-2.2-3.2-3.6-.9-1.1-1.9-3.4-3-3.4-.9 1.3-2.3 2.7-3.8 3.2-.7 0-1.8.3-1.5-.9-.4-1.7-.2-3.6-1.5-4.9-.8-1.2-1.6-2.3-3.1-2.3-1.3-.5-2.6.2-3.9.4-1.5.4-2.9.7-4.4 1.1-.9.5-1.7 1.1-2.6 1.5h-4.7c-2.5-.6-5-1.2-7.6-1.6-.9-.1-1.8-.3-2.6-.7-.9-.3-1.8-.8-2.8-1.1-1.2.2-2.4.3-3.6.5-.2-.4-.2-1-.7-1-.9-.3-1.9-.5-2.6-1.1-.9-.5-1.7-1.1-2.4-1.9-.9-.8-1.6-1.8-2.5-2.7-.2-.4-.3-.9-.5-1.3.3-1.2 1.6-2.3 2.9-1.5.8.9 1.7 1.7 2.6 2.5.9.7 2.1-.1 2.9-.6 1.1-1.1 1.1-2.7 1.2-4.2 0-1.4.3-2.7.1-4.1-.5-1.8-2.6-2.4-3.5-3.9-.7-1.1-1.4-2.3-1.2-3.7.2-1.7.2-3.4.2-5.1-.6-1.3-1.4-2.6-2.7-3.2-.6.4-.8.3-1 .2"/><text data-dist-id="d19" transform="translate(694.758 149.98)" class="st2">
                            Lakhimpur
                        </text><path data-dist-id="d28" class="st0" fill="#f1f5f9" d="M948.1 18.1c-7.2 2.5-14.3 4.9-21.4 7.4-2.7-1.3-5.3-2.6-8-3.9-1.4-.4-2.7-2.1-4.2-1-3.7.6-7.1 2.1-10.6 3.2-9 3.4-18.2 6.6-27.3 9.8-1.5.8-3.5.7-4.5 2.1-1.3 1.8-3.7 2.9-5.9 2.3-1.4-.4-2.8-.8-3.9.4-4.5 1.5-9.1 2.3-13.5 4.2-2.3 1-4.7 1.6-7.3 1.8.2.1.3.2.5.3.9.5-1.2.9-1.7 1.1-.3 1.3-.5 2.6-.8 3.9-1 1-2.2 1.7-3.5 2.2-1 .7-2.1.2-3.2.3-.8.4-2-.9-2.1.3-.1 1.5-1.9 1.6-3 2.2-1.1-.4-1.7 1-2.1 1.8-.4 1-1.4 1.6-2.5 1.7-1 .6-2-.4-3-.5-.6-.6-1.7-.8-1.8.4-.2 1.1-1.3 1-2 .4-1-.6-2.4-1.2-3.4-.2-.7.5.9 1.7 0 2.3-.6.8-1.7-.1-2.5.3-1.1.6-2.3 1.1-3.5 1.5-.5 1.2-1.5 2.4-2.9 2.5-1-.6-1.9.2-2.7.5-.6.8-1.6.3-2.3.7-.9 0-1.7-.4-2.4.4-1 .7-1.3 2.3-2.6 2.4-1-.7-1.6.7-2.5.5-1.3-.5-2 1-3 1.3-1-.1-1.8.3-2.3 1.2-.5 1.1-1.4 1-2.2 1.4-.8.8-1.8 1.3-2.9 1.3-.8-.2-1.9-.6-2.2.5-.6 1.2-1.5 2.1-2.6 2.8-.3-.4-.6-.9-.7-1.4-.5-2.4-3.7-2.9-3.9-5.5.7-2.5-2.3-1-3.1.1-.9 2.1-3 .5-4.3 1.3-1.7-.1-2.2 2.8-3.8 1.4-1.6 1.6-2.5-1.8-3.8-.3-1.2-.9-2.4-1.5-3.9-1.4-1.3-.3-2.5-4-3.8-1.7-.2 1.5-2.4 1.8-2.7.3.1-2.3-4.8-2.3-2.6-4.5 1.5-.7 1.7-2.8-.3-2.8-.9-1.4-2.2.5-3.3-.8-1.9.6-1.9 2.7-3.1 3.8-1.3.9-1.9 3.4 0 4 1.4-.1 1.8.8.7 1.7 1 .9-.1 2.8 1.3 3.2 1.4.7 3.3.3 4.1 2.2 1.5 1.3-.1 3.2.6 4.7.3.7.8 1.4.2 2.1l.6.3c1.3.6 2.1 1.9 2.7 3.2 0 1.7 0 3.4-.2 5.1-.3 1.3.5 2.6 1.2 3.7.9 1.5 2.9 2.1 3.5 3.9.2 1.4-.1 2.7-.1 4.1-.1 1.4-.1 3.1-1.2 4.2-.8.5-2 1.3-2.9.6-.9-.8-1.8-1.6-2.6-2.5-1.2-.8-2.6.3-2.9 1.5.2.4.3.9.5 1.3.8.9 1.5 1.9 2.5 2.7.7.7 1.6 1.3 2.4 1.9s1.7.8 2.6 1.1c.5 0 .5.6.7 1 1.2-.2 2.4-.3 3.6-.5.9.3 1.8.7 2.8 1.1.8.4 1.7.6 2.6.7 2.6.4 5.1 1 7.6 1.6 1.6.1 3.1 0 4.7 0 .9-.4 1.7-1 2.6-1.5 1.5-.3 2.9-.7 4.4-1.1 1.3-.3 2.6-.9 3.9-.4 1.5 0 2.3 1.1 3.1 2.3 1.3 1.3 1.1 3.2 1.5 4.9-.2 1.2.8.8 1.5.9 1.5-.6 2.9-1.9 3.8-3.2 1.1 0 2.1 2.3 3 3.4.8 1.5 2.1 2.5 3.2 3.6.4-.8.9-1.6 1.4-2.5 1-1.4 1.5-2.9.8-4.5-1.9-.9.5-2.5 1.7-2.2.7 1.1 2.9 3.3 3 .8-1-1.9 1.3-3 2.8-3.5 2-.3 1.8-3 1.1-4.4-.6-1.9 2.3-1.4 3.4-2.4 1.8-1.2.1-3.5.5-5.2.4-2.7 3.5-2.4 5.5-3 .4-1.4 1.2-3.6 2.8-2.1 1.5 1.6 2-1.7 2.2-2.8.7-1.5 1.3-3.1 2.4-4.4.8-1.9 2.5-1.1 4-.9.7-1 1.7-2.6 3.2-3.3 1.2-.4 2.6-3.3.8-2.8 1.5-1.4 3.4-2.3 4.7-4 1-2.1 3.7-2.6 4.6-4.6.7-1.8 2.1-3.5 3.9-4.2 2.7.4 3-3.1 5.2-3.7 1.6-.4 3.5-.4 3.7-2.5.6-2.7 3.7-3.5 5-5.7 2.1-1.4 5-.8 7.3-1.7.2-1.4 2.8-2.5 3.5-.8 2.3.9 5.1.7 7.5.4 2.3.3 3-2.1 4.1-3.5 2.2-.4 4.3-1.2 6.3-2.3 2-.4 3.9-1.1 5.6-2.2 2-1.4 2.5 0 1.5 1.7.3 1.7-.9 3-1.6 4.3-.2 1.4 2 2.1 3.2 2.8 1.5 1.2 2.8-.3 4.4.3 3 0 5.2-2.4 5.8-5.2.3-.5.7-1 1-1.4 1.3-1.2 3.3-.9 4.9-1 .9.1 1.8-.1 2.7-.5 2.3-.6 4.3-1.8 6.4-2.8 1.7-.8 3.3-1.9 5.2-2.2.9-.9 1.9-1.7 3-2.3 1.9-1.8 4-3.6 5.6-5.7.7-.7 1-1.5 1.2-2.4 0-1.4.6-2.7 1-4.1.1-1.1 1.2-1.7 1.6-2.7.4-.6.3-1.3.2-2 .9-.5 1.3-1.6 1.3-2.6.4-.8.8-1.9 1.9-2.2 1.1-.6 2.4-.1 3.6-.6-.5-1.2-.9-2.3-.8-3.5"/><text data-dist-id="d28" transform="translate(755.887 93.246)" class="st2">
                            Dhemaji
                        </text><path data-dist-id="d29" class="st0" fill="#f1f5f9" d="M897 49.5q-.45 0-1.2.6c-1.8 1.1-3.6 1.8-5.6 2.2-2 1.1-4.1 1.9-6.3 2.3-1.1 1.5-1.8 3.8-4.1 3.5-2.5.4-5.2.6-7.5-.4-.7-1.7-3.3-.6-3.5.8-2.3.9-5.3.3-7.3 1.7-1.3 2.2-4.5 3-5 5.7-.2 2-2.1 2.1-3.7 2.5-2.2.7-2.5 4.1-5.2 3.7-1.8.7-3.2 2.4-3.9 4.2-1 2-3.7 2.5-4.6 4.6-1.2 1.7-3.1 2.6-4.7 4 1.9-.5.4 2.4-.8 2.8-1.5.7-2.5 2.3-3.2 3.3-1.5-.2-3.2-1-4 .9-1.1 1.2-1.8 2.9-2.4 4.4-.2 1.1-.8 4.4-2.2 2.8-1.7-1.5-2.5.7-2.8 2.1-2 .6-5.1.3-5.5 3-.3 1.7 1.3 4-.5 5.2-1.1.9-4 .4-3.4 2.4.7 1.4.9 4.1-1.1 4.4-1.5.5-3.8 1.6-2.8 3.5-.1 2.5-2.2.3-3-.8-1.1-.4-3.6 1.2-1.7 2.2.7 1.5.2 3.1-.8 4.5-.5.8-1 1.6-1.4 2.5-.5 1-1.1 1.9-1.8 2.8-.5 1.1.2 2.3.2 3.4-.2 2.1-1.1 4.1-1.6 6.1.6 1.1.5 2.5.2 3.7-.1.9-.9 1.5-1.3 2.3-.1.3-.3.5-.5.8.5.7 1.1 1.3 1.4 2.1.2.6.6 1 1 1.5.5.5.6 1.1.9 1.7.2.4.6.6.8.9 2-2.4 3.8-5.1 4.2-8.3.4-2.7 2-5 2.9-7.6.6-1.4.8-3.4 2.8-2.9 1.6-.4 3.7 1.2 4.9-.2.9-1.5.9-5.4 2.8-2.5.3.1.6 1.3.8 1.7.8 2.4 1.9 2.4 2.5 2.3-.5-1.5-2.5-4.6 1.5-5.5 1.7-.3 4.3-1.2 2.7 1.3-3.5 4.2-.3 2.5 3.4 3.8.1.4-.2 2 .6 2.1.1.6-.9 1.4-.7 2.6.2.9 2 .6 1.5 2.3.5 1.4.4 2.4-.6 3.4-.1 1 .2 2.2.7 2.7-1.1 1.1-1.5 2.8-2.9 3.5-1.1.1.8.8-.2 1.7 0 2.1 1.2 3.5 3.3 3.6 1.5.8 3.2.4 4.7 1.1.8.5 2.5.5 1.2 1.8-.9.7-.5 2 .7 1.6 1.5-.4 1.8 1.6 3.5.8.5-1.7 1.3-3.1 2.4-4.5 1.6-2.5 3.3-5 5.2-7.3 3.3-3.1 6.6-6.1 9.5-9.5 1-1.3 2.2-2.4 3.6-3.4 1.2 2.1.6 4.6 1.2 6.8.4 1.4 1.2 2.8 1.4 4.2-.4 1 .1 2.2-.6 3.1.1.9 1.8 1.1 2.7.9 1.6-.5 3.1.5 4.7.5 1.4-.1 1.9-1.8 3.3-1.7 1.4-.3 1.4 1.5 1.8 2.4.4 1.4 2.1.5 3.1.7 1.9-.1 3 .3 4.9.5.3.8 1.1.5 1.6.7.7.2 1.5 1.6 2-.6.7-.6.6 1.4 1.3-.2 1.6-.2 2.2.7 2.1 1.9.7-2.2 1.4-.1 2.2 0-1-1.7 1.5-.4 1.7-2.8.2-1.4 0 2.8 1.1.1-1.3-1.7 2.2-1.1.6-3 1-1.2 2.5 2.6 2.8-.6 2 1 2.6-3 3.2-.6 1.2-.3 1.8-1.7 2.9-1.3-1-1.4 1.1-1.7.6-3 1.4-.5 2.5-1 2.6.8-.3-3.1 2 1 1.6-1.7 1.9 2.5 2.4-2.2 4.6-.3 1.9.2 2.7 2.9 5.1 1.1 2 .3 3.5 1 3.5 3.1 2.9.1 1.3 4 3.2 5.6.5 2.1-1.9 4.2.8 5.5l-.2.9c.5-.2.2.6.2 1 .3.4 2.3-.2 2.1-1.1.1-1.3 2.2-.9 3-1.7 1.2-.8 1.9-2.3 3.4-2.8 1-.7 2.5.6 3.4-.4.3-1.5 1.2.2 1.9-.2.8-.8.8-2 1.1-2.9.8-1.1-.8-1.3-.9-2 1-.8 1.9-1.8 1-3.1-.3-.9 1.2-1.8.3-2.8-.4-1.1-1.4-2.1-1.2-3.4.5-.3 1-.6 1.6-.9-.1-.8.6-.8.9-1.4.8-1 1.5-2 2.1-3.1-.5-.8.6-2.5-1.8-2-1-.4.5-3.1-1.8-1.1-.7.8-1.7 1.6-1.3 2.8.3 1 .2 3-1.3 1.9-.6-1.2.7-3.1-1.5-4.2.5-.5.9-1 1.5-1.3.8-.7 2.4-.9 2.5-2-.1-1.3-1-2.4-1.6-3.6-1.3-1.1.1-1.6 1.1-2.3 1.5-.6 1.3-1.3.7-2.5-.1-1.4-1.3-2-2.2-2.8.7-.8 1.3-1.8 2.4-1.9 1.6 0 1.5-1 1.2-2.3-.2-1.1.2-2.6-1.4-2.4-1.2-.1-2.6-1.1-3.5 0-1 1.3-1.6-.8-2.4-1.2-1.3-.2-1.4-1.7-2.5-2.3-1.6-.7-3.2-1.5-5-1.3-1.9-.6-.2 1.3-1.4 2-1.4-.7-2.8-1.3-4.2-2-1.4.5-3 .5-4.4.4-1.2-.1-2.2-.9-2.8-1.9-.4-.9-1.1-2.6-2.4-1.9-1.1 1.2-2-.9-2.9.3-.6 1.2-1.9.1-2.6-.4.7-1.2-.4-2-1.1-2.8.6-1.6-1-.9-1.9-1.5-1.2-1-1.6-2.7-2.7-3.9-.7-.9.8-2 1.1-2.9 0-1-.1-2.2.1-3.3-.1-1.3.9-2.5 2.2-2.8 1.1-.7 2.9-.3 3.4-1.7.1-1.2.6-2 .9-2.6-.6-1-1-2-.2-3 .2-1.5 1.5-1 2-.7 1-1.3-.2-1.7-.7-2.7-.6-.9 0-2.8.9-1.2 1.6.8.9-1 1.8-1.5 1.1.7 1.1-.8 1.6-1.5.7.4 2.1.3 2.9-.5-.7-1.7-1.4-3.4-2-5.2-.9-3-1.7-6-2.7-8.9-.1-1.6-2-2.1-2.7-3.4-.6 2.8-2.9 5.2-5.8 5.2-1.5-.6-2.8.9-4.4-.3-1.2-.7-3.4-1.4-3.2-2.8.7-1.4 1.9-2.6 1.6-4.3.8-1.4.6-2.5-.3-2.4"/><text data-dist-id="d29" transform="translate(830.2 119.216)" class="st2">
                            Dibrugarh
                        </text><path data-dist-id="d27" class="st0" fill="#f1f5f9" d="M998.7.5c-11.8 1.1-23.7 2.4-35.5 3.6-1.4.5-2.4 1.8-3.3 3-.9-.4-1.9-.4-2.9-.1-.5 1.2-.9 2.3-.9 3.6l-2.9 1.4c-1.4.3-.3 1.4-.6 2.2-.7.5-1.9.3-2.7.9-.7.9-1.2 2-1.8 3-.1 1.2.3 2.2.6 3.3-1.1.5-2.4 0-3.6.6-1 .2-1.4 1.3-1.9 2.2-.1 1-.4 2.1-1.3 2.6.1.7.3 1.4-.2 2-.4 1-1.5 1.5-1.6 2.7-.4 1.3-.9 2.7-1 4.1-.2.9-.5 1.7-1.2 2.4-1.6 2.2-3.7 3.9-5.6 5.7-1.1.6-2.1 1.4-3 2.3-1.9.3-3.5 1.5-5.2 2.2-2.1 1-4.2 2.2-6.4 2.8-.9.3-1.7.6-2.7.5-1.7 0-3.6-.3-4.9 1-.3.5-.7 1-1 1.4.7 1.3 2.6 1.8 2.7 3.4 1 2.9 1.8 5.9 2.7 8.9.7 1.7 1.4 3.4 2 5.2-.8.7-2.2.9-2.9.5-.6.6-.6 2.2-1.6 1.5-.9.5-.2 2.3-1.8 1.5-.9-1.6-1.5.2-.9 1.2.5 1 1.7 1.5.7 2.7-.5-.3-1.8-.8-2 .7-.8 1-.4 2 .2 3-.3.6-.9 1.4-.9 2.6-.5 1.4-2.3 1-3.4 1.7-1.3.3-2.3 1.4-2.2 2.8-.2 1.1-.1 2.3-.1 3.3-.3 1-1.8 2-1.1 2.9 1.1 1.2 1.5 2.9 2.7 3.9.9.5 2.5-.2 1.9 1.5.7.9 1.8 1.6 1.1 2.8.6.5 2 1.5 2.6.4.9-1.2 1.8.9 2.9-.3 1.3-.7 2 1 2.4 1.9.6 1 1.5 1.9 2.8 1.9 1.5.1 3 .1 4.4-.4 1.4.7 2.8 1.3 4.2 2 1.2-.7-.5-2.6 1.4-2 1.8-.3 3.4.6 5 1.3 1 .6 1.2 2 2.5 2.3.9.4 1.4 2.5 2.4 1.2.9-1.1 2.3-.1 3.5 0 1.6-.2 1.2 1.4 1.4 2.4.3 1.2.3 2.3-1.2 2.3-1.2 0-1.7 1.1-2.4 1.9.9.8 2.1 1.5 2.2 2.8.6 1.2.8 1.9-.7 2.5-.9.6-2.3 1.1-1.1 2.3.6 1.2 1.5 2.3 1.6 3.6-.2 1.1-1.8 1.3-2.5 2-.6.3-1 .8-1.5 1.3 2.2 1.2.9 3 1.5 4.2 1.5 1.1 1.5-.8 1.3-1.9-.4-1.2.5-2 1.3-2.8 2.3-2 .8.7 1.8 1.1 2.4-.6 1.3 1.2 1.8 2 1.2-1.7 3.5-.1 3.8-1.4-.7-2.8.2-2.1 1.7-1 .3-.4.5-1.4 2.2-2.2 1 .5 2 1.1 3 1.6.2 1 1.1 1.4 2.1 1.4 1-.1 2.3.5 1.9 1.7.4.9 1.3 1.5 1.9 2.3 1.7.5 3.4-.5 4.9-1.2.9 0 2.2-1.1 2.8 0 2.1-1 4.2-1.9 6.2-2.9.7-.5 1.2-1.2 2.4-1 1-.3 1.9.8 2.9.2 1-.7 2 .1 2.9-.4.5-1.1 1.4-1.3 2.3-1.9 1.4-.6 2.9-.9 4.4-1.2 1-.4 2.4-.2 3.2-.9.5-1 1.6-1.1 2.5-1.6.9-1.1 1 .8 1.4 1.5 1.9-.6 3.9-.7 5.6-1.7.7-.4 2.3-1.1 2.7-.2.3.9-.6 2.3.7 2.7.6.7.8 2.3 1.9 1.7 1-.2 1.5 1.1 2.5.8 1.3.1 1-1.4 1.3-2.2.9-.7.3-1.9.4-2.5.6-.8 1.8-.6 2.3-1.7 1.5-.9 3.1-1.9 4.9-2.5.8-.5 2.2-.4 2.7-1.3-.5-1.3.7-.6.8-1.9-.2-1.1 1.7-.2 2.3-.9.1-.2-2.6.3-1.9-.7.9-.7 1.8-1.5 2.9-2 1.3-.4 1.3-.8 2-1.7 1.3-.3 1.8-1.2 3.1-1.1-.8-.1-1.7-.3-1.9-1.4-.8-.7 0-1.9-1.1-2.3-1.3-.6.5-2.2-.8-2.5-.4-.8-1.2-1.3-1.7-2 .3-1.1-.7-1.1-1.4-.6-.8.8-1.4-.6-.9-1.1 1.5-.2.1-1.6-.5-2.1-.9.1.6 2-.7 2.3-1.4 0 .8-2.4-.7-2.3-.3.4-.7 2.7-1.2 1.4.1-.9-.8-.6-.7.1.4 1.2-1.4 1.3-1.2.1-.7.8-.8-1-1.4-.2-.5 1-1.5.6-1.6-.4 0-1.1-.8-1.9-1.9-2-1 .3-.9 1.6-1.5 2.3-1.2.8.6 1.9-.2 2.9-.7.8-1.7 1.4-2.5 2-1.9 0-.7-2.2-1.2-3.1-.7-1.1-1.8-.1-2.6.5-.5-.4-.9-.8-1.4-1.2-.8-1.6-1-3.6-.1-5.3.8-.8 2.5-1.2 1.3-2.6-.8-1.5 1.5-2 2.5-2.2.4-1.1 1-2.5.5-3.7-.7-1.5.7-2 1.6-2.7.1-1.3-2.5-1.8-1.4-3-.3-1.5.1-3 .1-4.5.5-2.1-1.9 0-2.9-.9-1.2-.8-1.7-3.6-3.6-2.7-1.2-.3-.9-2.5-2.4-2.7-1.5.4-1.2-2-.9-2.9 1.3-1.5-1.1-1.5-2.1-1.4-1.9.1-1.9-1.3-2.1-2.7-.8-.5-2.7-1.4-.9-2.4 1.6-.1 1.3-1.8 1.9-2.9-1.1-1-2.7-1.1-3.6-2.2-.3-1.4-.3-3.8 1.4-4.2 1.9.4 1.4-2.2-.2-1.8-1.4.1-2.7-.9-2.2-2.4-.2-1.2-.2-2.8-1.7-3-1.6-1.1-.2-2.3 1.2-2.2.8-.5 3.3-.7 2.6-2.1-.6-1.3-1.3-2.6.3-3.5.9-1.6 3-2.5 3.2-4.4 1-1.5 2-3.2 3.4-4.5 1.3-.7 2.9-1.3 2.9-3 1-1.3 3-1.6 4.5-1.9 1.1-1.1 2.3-2.2 3.1-3.5-.1-1.9 1.4-1.2 2.3-2.1-1-2.5 1.5.5 1-1.5.8-.7 1.7-1.8 1.8-2.2 1.7 1.3-.5-1.2.2-2 1.4-.4 2.4-.3 2.7-1.9.8-.9 2-2 2.2-3.1.9-1.4-.4-1.4-.4-2.5 1.7-1.4 3-3.1 4.1-5h-1.6c-8.1-.9-15.7-1.6-23.4-2.1"/><text data-dist-id="d27" transform="translate(928.086 91.648)" class="st2">
                            Tinsukia
                        </text><path data-dist-id="d18" class="st0" fill="#f1f5f9" d="M461 336.9c-.5-.2-1.1.3-1.4.8-.6.8-1.4.8-1.7-.3-1.2-.9-2.8-.4-3.9.4-1 1.1-.7-.5-1.5-.4-.7.2-1.1 1.2-1.8 1.6-.1 1-1.3.2-1.6 1.1-.3.7-1.2 1.1-1.4 1.8-.9-.1-1.8.2-1.5 1.2-.3 1.3-.9.6-1.6-.1-.6-.9-1.7-.3-2.6-.4-1 .3-.1-1.2 0-1.6.5-.3 1.3-1.3.5-1.7l.4-.4c-.9.8-2.3-.4-3.4-.4-1.4-.4-1.8 2-3.3 1.7-.1 1.4-.9 2.4-2 3.2-.6.9-1.9.8-2.5 1.3.5 1-1.2 1-1.8 1.5-1.3.3-2.6 1-3.1 2.3-.6.4.3 2.4-.6 1.8-.1-.9-1-.1-1.4.1-3.5 3.9-6.5 8.4-10.7 11.7-1.3.6-2.2 2.8-2.9 2.5-1.5.8-1.2 2.1-2.8 2.6-2.1-.5-2.6 2.2-4.5 2.5-2 .6-.3 2.6-1.6 3.5-1.5.7-1.3 2.6-.4 3.8-.2 1.5-.8 4 1.4 4.1 1.7 1.1 2.1-.8 3.4-1 1.6-1.4.9 2.7 2.8 1 1.3.2 3.5-.6 2.9 1.6-1.5 0-1.3 2.2-3 1.9-1.5.8-2.3 2.8-3.9 3.5-1.1 1 .4 2.7-.3 4-1.3.7-.9 2.7-2.4 3.2-.1 1.7-.9 2.6-2 3.7.1 1.7.3 3.4-.3 5.1 1 1 .2 2.5.8 3.8.3 1.4 1.1 2.7 1.5 4 .3 1.5.1 3.1-1.6 3.5-1.5 1-.4 2.3.2 3.2.6 1.4.6 2.6 1.3 4 .4 1.5-1.6 2.7.8 3.4 1.7-.9 2.4-3.9 4.7-3.6 1.5-1.1 2.8-2.6 3.7-4.2.7-1.9 2-1 2.5.2 1.8-.7 3.6-.3 5.5-.5 1.6-1 3.6-.8 5.2-1.9 1-1.6 2.3-.2 3.8-.6 1.8.2 3.1-1.2 4.6-1.9 2 .3 2.2-1.5 3.3-2.4 1.8-1.1 2-1.2 1.8.6 1.3 1.2 3-.2 4.5.4 1.1.2-.9 2.6 1.5 2.4 1.7-1.1 2.7.3 3.3 1.7-.7 1.2-3.5 1.4-1.7 3 .5 1.1-.5 3.7 1.4 2.9.6-.4 2.4.9 3.6.9 1.2.6 2.1 2.1 2.9 3.3 1.7 2.5 1.5 5.9 3.7 7.9 1.2 1.6 2.6-.2 4.1.9 1.6-.1 2.5.6 4.1.6 1.5.7.2 2.6.4 3.9 1 1.3.4 3 1.3 4.3.8 1.4 2 1.8 3.2 2.2.6 1.6 3.1.5 3.4-.7.9-1.2 2.7-1 4-1.4 1-1.5 1.5-3.9 3.6-4.3 1.8.5 1.6 2.6 1.4 4.1.4-.3 1.4-.8 2.2-.6 2.5.2.5-1.4 1.3-2.4 1.2-1.7 3.9-3.3 5.6-1.3 1.1 1.8 5.3.1 5.6-1.9-.6-2.8 3-.5 2.9-2.9-1.5-.8-2.3-1.8-.3-2.4 1.4-1.5 3.9-2.8 3.6-5.2-2.2-.7-3-3.4-.3-4.1 2.2-.1 1.6-2.9 3.4-3 1.5-.8 2.7-3.6 2.3-5.6-1.3-2.1.7-1.8 1.9-2.7 2.3-1.9 7.7-1.1 8.7-2.4 1.2-1.4 5.8-1.9 6.7-4.1-.4-1.6.7-3.1.2-4.6 2.5 1.5 4.4-2 5.9-2-1.7 1.7-1.8 3.4.6 4.6-2.1 3.6 3.3-1.8 1.6 2 3.6-1.9-1.9-6.5 2.4-7.6 4.3-3.4-.9 3.3.9 5.3 1.3 4 3-4.7 3.8-.2 2.2-.9 4.3 1.3 5.1 1.9l1.3.6 1.5.6c.4-.5 1.2-.3.9-1.2-.6-.6-2-.5-2.7-1.2-.9-.9-1.9-1.5-2.7-2.5-1.3-1.4-2.8-2.4-3.5-4.2-.5-.8-1.2-1.4-1.5-2.3-.4-.8 0-1.9-1.1-2.3-.7-.5-1.5-1-1.7-1.9-.5-1-1.1-2-1.7-2.9-1.1.3-2.2.1-3.3.1-1.1.1-2.2.4-3.3.6-1.4.3-2.8.6-4.2.6-.9.1-1.8.1-2.6.4-.7.2-1.5-.1-2.2.4-.3.2-.6.3-.9.5.5-4.9-2.3-.6-4.3-.3 2.1-3.6-2.3-5.4-2.2-9.6-.9-1.2-3.9 1.8-5.2-1.8-2.3.7-3.6 3.2-2.7-1.6-4.2-2.6 3.4-5.4-1.2-5.5-1.6 6.5-7.6-1.2-2.6-3.1-3.3-.7-4-6.5 1.4-4.4 1.7-2.8-5-1.1-4.8-3 4.5-1.6 1.4-2.7.1-2.1-1.1-1.1-2.2-2.7.4-3.1.8-1.2-.5-1.7-.2-2.1-1.8.3-4.1.2-5.9.6-.7 1-1.5 2.4-.8 3.6.8.3.9 1.4.2 1.9.5.6.1 2-.7 1.5-.5-.1-1.1.3-1.9-.1-.8.5-1-.5-1.8-.6-.6-1-.7-.2-1.4-.5-.7.6-1.3-1-1.9-.1-.3.7-1.5.8-1.7 1.5.3.8.1 1.6.4 2.4-.2.8-.4 1.6-1.4 1.3-.9 0-1.9.1-2.3 1-.1.9-1.1.8-1.7 1.4-1.2.1-1.7 1.6-2.9 1.8-.7.1-1.7-.4-1.9.7-.4.7-.7 1.7-1.7 1.4-.9-.3-1.6.1-2.2.6-.8 0-1.7-.4-2.5-.7-.6-.6-1.7-1.1-.7-1.8 1-1.6 1.8-3.3 2.8-4.9-.1-.7-.9-1.2 0-2 1-1 2.4-1.2 3.6-1.9.6-1-.7-.9-1.3-1.2-.9-.6-.4-1.7-.1-2.6.1-1.3.1-2.7 1.1-3.6.6-.7 1-1.4 1-2.4-.2-.7-.7-1.5-1.4-1.8-.8-.6-1.6-1.2-2-2 .3-.8.1-1.8.2-2.6-.3-.8-1.3-1-2-.9-.8.4-1.7 0-2.3.7-.9.3-.8 1.2-1.5 1.7-.3.7-1.4 1.6-1.5.3-.4-.5-1.8.2-1.9-.7-.1-1 0-2.1.3-3.1-.4-.8.3-1.4.3-2.2.3-.9 1.1-1.8.4-2.7 0-.2-.2-.3-.3-.4"/><text transform="translate(418.474 385.473)" class="st3">
                            <tspan x="0" y="10" class="st2" data-dist-id="d18">
                                West Karbi Anglong
                            </tspan>
                        </text><path data-dist-id="d17" class="st0" fill="#f1f5f9" d="M75.1 350.4c-1.3 0-2.7-.1-4 .4-1.5.6-3.2.5-4.8.9-.8.7-1.8 1.3-2.5 2.1-.4.8-.6 1.7-1.1 2.4-1.6.5-2.7 2-3.9 3.2-.6.8-1.3 1.5-1.5 2.5-.6.5-1.3.9-2.1 1-.4.8-.5 1.9-1.5 2.3-1.6 1-3.3 2-4.7 3.2-1.8 2.1-3.4 4.2-5.5 6-1.4 1.4-3.4 2.1-4.9 3.4-.9.7-1.7 1.5-2.9 2-1 .5-1.5 1.6-2.4 2.3-1 1-2.4 1.4-3.6 2.2-.8-.8-1.7-1.5-2.5-2.3-.2.8-.5 1.5-1.2 1.9-.7 1.9-3 3.5-3.2 5.5.9 2-1.2 3.2-.5 5.3-.6 1.5-1.9 3.1-2.5 4.4 1.7 0 2.4 2.1 2.5 3.8.6 2.4 2.7 5.4 1 7.8-2.1 1.7-1.7 4.7-.1 6.5 1.6-.2 3.5.4 2.3 2.4-1.4 2.3 1.9 3.6 1.8 5.7 1 2 2.7 3.3 2.8 5.7 1 2.1.7 4.3.3 6.5-1.2 1.9-.6 3.8-1.1 5.8-1.1 1.6-.7 3.9-1.7 5.6h.1c1.3.6 1.2-1.5 2.4-1.1.7-.7 1.2-1.9 2.4-1.7 2.1.1 4-1 6.1-.9 1.3.7 1.6-1.1 2.7-.9 1.3-.3 2.6-.5 3.9-1 1.1-.4.5-2 1.3-2.7.5-1 2.1-.1 2.9.3 1.1.9 1.7-.3 2.1-1.2.1-1.2 1.8-1.3 1.6-2.6-.4-1-1.4-1.8-2-2.8-.8-.7-1.6.5-2.7-.4-1.3 0-1.3-1.4-1.5-2.4l-5.3-3.8c-.5-1-.9-2.2-1-3.3-.1-1.4-1.1-2.6-2.4-3-1.5 0-.9-1.8-1.9-2.1-.8-1.1-1.9-2.2-2.6-3.4-1.1-1.1-1.1-2.7-.6-4.1 1.3-.1 2.6.6 3.8.9.9 0 2.2-.5 2.5-1.4-.4-1.2.8-1.8 1.5-2.6.6-1.2 2.4-2 1.9-3.7-.8-1.2-.7-2.9-.5-4.3.5-1.1-.4-1.9-1-2.4-.3-1.5.1-1.4 1.5-1.6 1-.5 2.7.4 3.2-.9.2-1.3 1.9-.5 2.8-1.1.6-.6 2.4-1.1 1-1.5 0-1.6 1.9.4 2.3-.9.6-1.1 2.3-2.4 1.4-3.7-.9-.3-1.6-1-2.5-1.6 1.2-1.1 2.3-3.3 4.3-2.8 1 .2 2 1 2.7-.3 1.2-.5.6-2.3 1.8-2.7.4-1.1 1.5-1.1 2.3-1.7 1.5 1 .8-1.4 2-1.2 1.7-.1.4-1.4.7-2 1.1-.3 1.5-1.1 2.6-.9.2-1.5 1-2.7 2.2-3.5-.1-.5-.1-1.2.5-1.5.9.1 1.7.3 2.2-.6 1.3-.1 1.5-1.3 2.6-1.7 1-1.4 2.9-1 4.1-1.9-.2-1-.8-2.4.4-3.3.4-1.1-.9.6-.6-.5-1.1-1.2.8-1.3 1.6-1.7 1.6-.6.6-3.1-.8-2.9-1.3.2-2.2-1.3-1.5-2.4.1-.9 2.1-2.6.4-2.7-1.4-.7-2.6-1.2-3.4-2.3"/><text transform="translate(56.497 413.44)" class="st3">
                            <tspan x="0" y="0" class="st2" data-dist-id="d17">
                                South Salmara Mankachar
                            </tspan>
                        </text><path data-dist-id="d12" class="st0" fill="#f1f5f9" d="M155.7 267.7c-1 0-1.9.2-2.7.8-1.2.4-2.5 1.1-1.6 2.6 1.5 1.2 2.2 3.2.1 4.3-2.5 2.4-3.9-1.2-4.3-3.3-.7-2.1-4-2.7-5.6-1.2-2.2 1.5 1 4.1 0 6.3-.5 1.7-2.2 3.2-2 5.3.4 2-.1 3.8-2.2 4.2-2.4 2.5-2.4-1.9-2.1-3.4.9-3.2-2.9-2.2-4.7-2.2-1.7-.3-4.4-.5-4.1 2-1.6.8-1.2 2.9-1.7 3.8-1.1.4 1.4 2.5-.2 3.6-.8-.7-2.1-.8-2.6-1.4-.1.7-.4 1.1-.9 1.6-.2 1 0 1.9.5 2.8.6 1 .1 2.2.5 3.2.7.8.3 1.9.8 2.8.4-.2 1.1-1 1.2.1-.6.7-.4 1.4 0 2.2.1.3-.1.6-.3.8.9.9 1.3 1.9 2.7 1.1.7.7-1.6 1.6.1 2.6 1.1 1.5 2.1 4.1.9 5.5-1.3-.4-3.3.1-1.4 1.5.7 1.1-2.4.5-1.9-.5-1 2.4 1.2 1.8 2.7 2.1-.7 2.5-3 .5-4.1 0-2.3 1.3.7 2.8.3 4.1-1.4.5-2.5-4.2-3.2-1.3.8.8 2.4 2.8 0 2.2-2.4.3-3.4 4.1-5.8 4.3-2.3-2.4-3.7.7-2.9 2.8-.2 1.8.8 5.3-2 5.1-.9-.1-1.9.1-2.9.4l2.1 2.8 6.4 2.3 4.4.8 4.7-.4 4-2.6 6.4-2.7 3.7-2.3 5-.4 4.7-1.9 3.3-4.5 4-.4 2.1-.4c-.3-.6-.8-1.1-1-1.7 0-.9.3-1.8 1.2-2.1.5-.5 1.1-.9 1.8-1.1 1.5-.9 3.3-.4 4.9-.3.8-.3 1.6-1 2.4-1.4.6.4 1.1 1.5 2 1.2.9 0 .8-.9.7-1.5-.1-.9-1.2-.3-1.7-.4-.7 0-.4-1.2-.6-1.7-.2-1.1.9-1.8 1.4-2.6.6-1.2 2.2-1.1 3.1-2 .2-.8.9-1.3 1.7-1.7.6-.6 1.3.3 1.7.8.8.5 1.7.8 2.7.8.7.1 1.4.1 1.9-.5.8 0 1.3-.4 1.4-1.2 0-.6-.1-1.6-.7-1.8-.5-.3-1.6-.5-1.6-1.1.7-1 1.8-1.8 2.4-2.9-.1-.8 0-1.6.5-2.2.6-.6 1.1-1.6 1.9-2s1.4.3 1.9.8c.6.2 1.3.9 1.9.5.7-.5 1.6-.2 2.4-.5.4-.6.6-1.5.5-2.2-.1-1.4-1.7-2-2.2-3.1-.5-.7.1-1.4-.4-2.1.1-.6.6-1.3.8-1.9.1-1.3 1.1-2.1 1.4-3.2.6-.8-.4-1.4-.9-1.9-.5-.3-1.1-1.3-1.7-.8-.4.9-1.1 1.8-2.1 2.2-.7.2-1.3-.6-1.9 0-1.3.2-2.5 1-3.8.7-.4-.7-.9-1.3-1.2-2 .1-.6 1-.9 1.5-1 .6.7 1.5 1 2.4 1 1.2.2 1.7-1.1 2.4-1.9.4-.9-.6-1.5-1-2.1-.2-.9-.2-1.9-.3-2.9-.7-.1-1.6.2-2.1-.4-1.8.7-4.3 2.3-4.7-.8-1.8-2.3-1.8 3-3.5 1.6-.7-.9-1.9-2-3.6-1.8-1.7.9-2.8-1-4.7-.4-2.2-.7-.5-3.9-2.9-4.5-2.4.7-2.6-2.8-4.7-2.8-.3-.1-.6-.2-1-.2"/><text data-dist-id="d12" transform="translate(115.028 300.373)" class="st2">
                            Bongaigaon
                        </text><path data-dist-id="d35" class="st0" fill="#f1f5f9" d="M279.3 210.2c.1 1.8 1.2 3.2 2 4.7.4 1.6 1.2 3 2.6 3.9 2.2 1.7 5 3.5 5.3 6.6.2 1.9-.5 3.7.1 5.6-.7 1.9.4 3.9 1.4 5.5.6 1.7 1.6 3.1 3 4 1 1.5 2.1 3.2 1.4 5.1 1.1 1.7 1.1 3.8-.6 5.2-.7 1.2-1.5 3.2-.4 4.3 1.8.2 2.1 1.9 1.2 3.3-.3 2.4 2.4.5 3.5 1.4l-.6-.9c.2-.2.4-.5.5-.7.5-.4 1.4.1 2.1 0 .4.1.6-.3.8-.4.3-.3.7-.4 1.1-.4.8-.2 1.7.2 2.5.4.8.5 1.7.4 2.5.4.7.2 1 1.3 1.3 1.9.4.7.5 1.5.7 2.3.2.9.3 1.8.5 2.7-.3 1.7 1.5 2 2.7 2.3 1.1.9 1.1 3.1 3 2.5 1.7-.4 1.5 1.4 1.5 2.5.1 1.1.1 2.5 1.2 3.1 1 .5 1.5 1.6 2.1 2.5 1.9.6 3.7 1.5 5.7 1.6 1.6.5 2.8-.2 3.7-1.5.6-1.2.6-2.7 1.9-3.4.8-.7 1.3-1.9 2.5-2 1.8.1 3.5.3 5.2.7 1.3-1 1-1.6.1-2.9-.1-.7.2-1.3.5-1.8-1.2-.3-.8-1 .1-1.3-.3-.8-1.6-.1-.5-1.2 1.1-.8-1.1-1.5-.4-2.7-2.2-.8-1.6-4-3.4-5.1-1.8.2-1.9-1.9-2.3-3 1-1.3 1.1-2.8-.8-1.8-.3-.8 1.1-1.5 0-2 .2-1.3 1.9-3-.5-2.4-.7-1.5 2.7-.3 1.5-1.9-1.3.2-1.7-.7-.4-1.3.2-1.3-2.6-1.6-1.7-3.5-.2-1.3 1.7-.7 1.3-2.3 1.1-1.7-.8-3.1-.3-4.8-1.9-1.7-.2-4.3-1.6-6-2-2.6-2.5-6-2.9-9.1-.8-1.5-.5-4.1-1.6-5.1-.7.2-1.3.8-2 .8-3.4-.9-6.9-1.7-10.3-2.6-1.4.7-2.9 1.4-4.3 2.3-.7.4-1.5.9-2.3.9-3.3.5-6.6.8-9.8 1.5-1.7.3-3.3.6-5 .8-1.8-.8-3.7-1.4-5.4-2.3-1.5-1-3.2-1.8-4.5-3.1z"/><text data-dist-id="d35" transform="translate(282.306 243.656)" class="st2">
                            Tamulpur
                        </text><path data-dist-id="d33" class="st0" fill="#f1f5f9" d="M793.1 146.7c-.6.4-.5 2.1-2.5 1.6-.9.8-4.5 1.7-3.2 2.9 1.7 1.5-.2 3.2-2 2.5-1.7.3-.2 3.8-1.8 4-2.2.3-2.1-1.9-3.1-2.9-2.1-.8-2.6 2.2-3.1 3.4-1.8.3-3.5-.4-5.2-.3-1.6-.1-2.2 1.6-2 3 .4 1.3-.1 3.6-1.9 2.7-.5-.7-.4-1.3-1.5-1.2-1.3-.3-2.6-1.4-3.9-.5-.4.4-.4 1.6-.9.5-.5-1.8-3.2-1-2.9.8.3 1.6-1.6 2.6-3 2.2s-2.2-1.7-3.4-2.3c-.9.4-.9 2.2-2.2 1.7-1.9 1-1.3-1.7-2.5-2.3-1.3-.4-3 .3-3.6 1.6.3 1.3.9 4.1-1.4 3.7-1.5-.2-1.7-2.4-3.4-2.3-.7 1.6-2.5 2.7-2.7 4.3-.3 1.5 1.3 3.3-.6 4.2-1 .6-1.5 2.7-2.5 1-.8-1.2-2.4 1.2-2.9-.7.1-1.3-1.1-3.9-2.4-2-.5 1.6 0 3.5.3 5.1.9 1.5.4 3.8-1.2 4.5-1.7 1.2-2.9-1.1-3.9-2.2-1.3-1.5-3.7.5-2.5 2.1 1 1.4 3.5 2.4 2.4 4.3-1.3 1.6-2.9-1.2-4.6-.5-1.5.2-2.9 1-3.6 2.5-1.4 1.3-2.8-1.4-2.5-2.7.5-1.9-1.9-2-2.7-.6-.4 1.3-1.7.8-2.6 1.7-1.4 1.1-2.6 2.5-1.9 4.4 1.1 1.8-1.2 3.2-2.6 2.5-.9-1.9-2.7-2.5-3.6-.3-1.1 1.5-3.1 1.3-4.7.8-2.3-.4-5.3-1.3-7 .8 1.2 2.1 1.1 5.3-1.2 6.6-1.5.9-2.4 2.5-2.4 4.3-1.4 1.1-2.6 3.1-4.3 3.4-1.6-1.1-3.6.2-5.2-.8-1.9.2-3-1.8-4.6-1.9-1.1 0-2.3.1-3.4.3l-1.5 1.1-1.1.4-.1 1-1.1 1.3 4.6 2.8-.7 1.5-1.4.7-1.9.5-2.3.1-1.7 1.1c.7.3 1.3.6 1.9.9 2.4.6 5 .6 7.2-.3 1.2-.7 2.7-.5 3.9-1.1 1.3-.7 2.7-1.2 3.6-2.4 1.2-.8 2.2-1.8 3.3-2.8 1.2-.8 2.5.3 3.5.9 1.3 1 .7 3.5 2.8 3.9 1.6.8 2.1 3.4 4.3 3.1 1.5 1.2 2.1-.6 3-1.6 1.6-.7 1.4-2.2 1.6-3.6.9-1.1 1.7-2.1 3.2-2.4 1.2-1.4 2.9-2.2 4.7-1.2 1.4 0 2.8.1 4.1-.5 1.3.1 2.5-.5 3.5-1.3 1-.9 1.7-2.2 2.9-3 .5-.6 1.6-1.1 2.2-.5.5.8 1.1 1.3 2 1.4.6-.7 1.4-1.4 2.4-1.5 1.4-.1 2.6 1.2 4 1 1.5.1 2.9-.4 4.3-.6 2.2-.4 3.6-2.3 5.6-3.3 1-.2.2-1.5.6-2.2.7-.9 1.9-.9 2.9-1.1 1.2 0 2.5.9 3.6.1.8-.5 1.8-.3 2.7-.2 1.4.5 2.3-1.2 3.6-1.1 1-.4 2.2.4 3.2-.2 1-.8 2.3-.3 3.5-.3 1.5.4 2.6-1.1 4-.9 1.2.2 2.2-.3 3.3-.7.9-1.9 1.7-3.9 2.8-5.7.4-1.1 1.5-1.5 2.4-2 .9-.7 1.7-1.6 2.8-2.1 1.6-.7 2.7-2 4.3-2.8 1.2-.7 2.9-1.1 3.6-2.4.5-.5.6-1.3.7-2 .2-1.2.3-2.5 1.1-3.5.4-.8 1.4-.7 2.1-1.1 1.2-.3 2.2-1 3.2-1.6.6-1.2 1.5-2.2 2.2-3.2.5-.5.8-1.4 1.5-1.6.8-.1 1.4-.7 1.9-1.2.6-1.1.8-2.3 1-3.5.4-.5.9-1 1.5-1.3.7-.1.8-.8 1.1-1.3.3-1.1 1.6-1.4 1.9-2.5.5-.8.4-1.6.4-2.5.6-.8 1.4-1.4 2.1-2.1-.3-.3-.6-.5-.8-.9-.3-.6-.4-1.2-.9-1.7-.4-.4-.8-.9-1-1.5-.3-.8-.9-1.4-1.4-2.1.1-.4-.1-.4-.3-.3"/><text data-dist-id="d33" transform="translate(722.92 192.498)" class="st2">
                            Majuli
                        </text></svg>